{"glyphs":{"0":{"ha":794,"x_min":50,"x_max":743,"o":"m 743 496 q 709 222 743 336 q 599 47 675 108 q 396 -14 524 -14 q 133 122 217 -14 q 50 496 50 257 q 83 771 50 657 q 193 946 117 885 q 396 1007 269 1007 q 658 872 574 1007 q 743 496 743 738 m 258 496 q 288 241 258 326 q 396 156 317 156 q 504 240 474 156 q 535 496 535 325 q 504 751 535 665 q 396 838 474 838 q 288 751 317 838 q 258 496 258 665 z "},"1":{"ha":794,"x_min":82,"x_max":574,"o":"m 574 0 l 364 0 l 364 574 q 366 668 364 610 q 369 771 368 726 q 340 741 363 763 q 297 703 317 719 l 183 611 l 82 738 l 401 992 l 574 992 l 574 0 z "},"2":{"ha":794,"x_min":53,"x_max":749,"o":"m 749 0 l 56 0 l 56 146 l 304 397 q 425 527 379 475 q 492 622 471 579 q 513 713 513 664 q 480 801 513 772 q 392 831 447 831 q 281 804 335 831 q 167 729 226 778 l 53 864 q 144 933 96 901 q 255 985 192 965 q 407 1006 318 1006 q 574 970 504 1006 q 683 874 644 935 q 721 738 721 814 q 688 588 721 656 q 594 453 656 519 q 444 306 532 386 l 317 186 l 317 176 l 749 176 l 749 0 z "},"3":{"ha":794,"x_min":53,"x_max":739,"o":"m 710 769 q 648 606 710 667 q 496 522 586 544 l 496 518 q 677 446 615 504 q 739 289 739 388 q 697 134 739 203 q 566 26 654 65 q 339 -14 478 -14 q 53 40 178 -14 l 53 218 q 187 169 117 186 q 317 153 257 153 q 474 192 429 153 q 519 301 519 231 q 499 372 519 343 q 426 415 478 400 q 281 429 374 429 l 206 429 l 206 590 l 282 590 q 422 608 374 590 q 487 655 469 625 q 504 724 504 685 q 472 806 504 776 q 363 836 439 836 q 240 812 292 836 q 151 764 188 788 l 54 908 q 191 978 113 950 q 378 1006 269 1006 q 620 944 531 1006 q 710 769 710 882 z "},"4":{"ha":794,"x_min":24,"x_max":771,"o":"m 771 206 l 651 206 l 651 0 l 447 0 l 447 206 l 24 206 l 24 351 l 458 992 l 651 992 l 651 368 l 771 368 l 771 206 m 447 536 q 449 614 447 568 q 452 699 450 660 q 456 751 454 739 l 450 751 q 424 697 438 724 q 390 643 410 671 l 208 368 l 447 368 l 447 536 z "},"5":{"ha":794,"x_min":68,"x_max":731,"o":"m 417 633 q 578 599 507 633 q 690 497 649 564 q 731 332 731 431 q 631 78 731 171 q 335 -14 531 -14 q 188 0 257 -14 q 68 40 119 14 l 68 221 q 192 176 119 194 q 328 157 264 157 q 470 195 421 157 q 519 314 519 233 q 321 464 519 464 q 240 456 282 464 q 171 442 199 449 l 88 486 l 125 992 l 663 992 l 663 814 l 308 814 l 290 619 q 341 628 314 624 q 417 633 368 633 z "},"6":{"ha":794,"x_min":49,"x_max":749,"o":"m 49 421 q 61 590 49 507 q 105 748 74 674 q 192 880 136 822 q 335 970 249 938 q 546 1003 422 1003 q 614 1001 575 1003 q 679 993 653 999 l 679 825 q 622 835 653 832 q 560 839 590 839 q 369 800 436 839 q 274 691 301 761 q 242 529 246 621 l 250 529 q 330 611 278 578 q 465 644 382 644 q 672 563 596 644 q 749 331 749 481 q 658 78 749 169 q 411 -14 567 -14 q 228 33 310 -14 q 97 176 146 79 q 49 421 49 272 m 407 154 q 507 197 468 154 q 546 328 546 239 q 513 442 546 400 q 411 483 479 483 q 331 463 365 483 q 276 411 296 443 q 257 346 257 379 q 274 256 257 300 q 324 183 290 213 q 407 154 358 154 z "},"7":{"ha":794,"x_min":38,"x_max":749,"o":"m 154 0 l 526 815 l 38 815 l 38 992 l 749 992 l 749 860 l 374 0 l 154 0 z "},"8":{"ha":794,"x_min":49,"x_max":744,"o":"m 397 1004 q 555 978 483 1004 q 670 899 626 951 q 714 765 714 846 q 663 619 714 676 q 536 524 613 561 q 637 459 589 496 q 715 373 685 422 q 744 257 744 324 q 701 114 744 175 q 578 19 657 53 q 397 -14 500 -14 q 140 57 231 -14 q 49 251 49 128 q 104 417 49 354 q 239 518 160 479 q 126 619 172 560 q 79 767 79 678 q 124 899 79 846 q 241 978 168 951 q 397 1004 314 1004 m 396 851 q 310 825 344 851 q 276 750 276 799 q 313 667 276 699 q 397 611 349 635 q 481 665 444 633 q 517 750 517 696 q 483 825 517 799 q 396 851 449 851 m 243 264 q 281 175 243 210 q 394 140 319 140 q 511 174 472 140 q 550 263 550 207 q 528 328 550 300 q 473 380 506 357 q 406 422 440 403 l 388 432 q 283 361 324 401 q 243 264 243 321 z "},"9":{"ha":794,"x_min":44,"x_max":744,"o":"m 744 568 q 732 399 744 483 q 688 241 719 315 q 601 109 657 167 q 458 19 544 51 q 247 -14 371 -14 q 179 -12 218 -14 q 114 -4 140 -10 l 114 164 q 172 154 142 158 q 233 150 203 150 q 424 190 357 150 q 519 299 492 229 q 551 460 547 368 l 543 460 q 466 378 514 411 q 324 344 418 344 q 121 426 197 344 q 44 658 44 508 q 135 911 44 819 q 382 1003 226 1003 q 565 956 483 1003 q 696 813 647 910 q 744 568 744 717 m 386 835 q 286 793 325 835 q 247 661 247 751 q 281 547 247 589 q 382 506 314 506 q 463 526 429 506 q 517 578 497 547 q 536 643 536 610 q 519 733 536 689 q 469 806 503 778 q 386 835 436 835 z "},"\u0000":{"ha":0,"x_min":0,"x_max":0,"o":""},"\r":{"ha":361,"x_min":0,"x_max":0,"o":""}," ":{"ha":361,"x_min":0,"x_max":0,"o":""},"!":{"ha":397,"x_min":79,"x_max":317,"o":"m 282 329 l 117 329 l 82 992 l 317 992 l 282 329 m 79 97 q 114 187 79 161 q 199 213 149 213 q 282 187 247 213 q 317 97 317 161 q 282 9 317 36 q 199 -18 247 -18 q 114 9 149 -18 q 79 97 79 36 z "},"\"":{"ha":656,"x_min":90,"x_max":565,"o":"m 279 992 l 251 633 l 118 633 l 90 992 l 279 992 m 565 992 l 538 633 l 404 633 l 376 992 l 565 992 z "},"#":{"ha":897,"x_min":31,"x_max":867,"o":"m 678 572 l 646 415 l 821 415 l 821 275 l 619 275 l 567 0 l 418 0 l 471 275 l 339 275 l 288 0 l 142 0 l 192 275 l 31 275 l 31 415 l 218 415 l 250 572 l 79 572 l 79 714 l 275 714 l 328 990 l 476 990 l 424 714 l 558 714 l 611 990 l 757 990 l 704 714 l 867 714 l 867 572 l 678 572 m 365 415 l 499 415 l 531 572 l 397 572 l 365 415 z "},"$":{"ha":794,"x_min":60,"x_max":740,"o":"m 351 56 q 190 73 261 58 q 61 114 119 88 l 61 293 q 199 242 118 265 q 351 215 279 219 l 351 425 q 180 506 244 467 q 88 594 115 546 q 60 711 60 643 q 141 877 60 815 q 351 950 222 939 l 351 1054 l 444 1054 l 444 953 q 725 890 599 947 l 661 732 q 549 768 606 756 q 444 785 493 781 l 444 585 q 588 524 519 557 q 698 442 656 492 q 740 310 740 392 q 667 140 740 208 q 444 58 593 72 l 444 -81 l 351 -81 l 351 56 m 351 782 q 264 711 264 769 q 285 663 264 682 q 351 622 306 643 l 351 782 m 444 219 q 536 300 536 236 q 513 348 536 328 q 444 389 490 368 l 444 219 z "},"%":{"ha":1251,"x_min":43,"x_max":1208,"o":"m 276 1006 q 453 924 393 1006 q 514 696 514 843 q 457 466 514 549 q 276 383 400 383 q 103 466 163 383 q 43 696 43 549 q 99 924 43 843 q 276 1006 154 1006 m 981 992 l 431 0 l 268 0 l 818 992 l 981 992 m 278 864 q 214 694 214 864 q 278 524 214 524 q 343 694 343 524 q 278 864 343 864 m 971 610 q 1148 528 1088 610 q 1208 300 1208 447 q 1151 70 1208 153 q 971 -12 1094 -12 q 797 70 857 -12 q 738 300 738 153 q 793 528 738 447 q 971 610 849 610 m 972 468 q 908 299 908 468 q 972 128 908 128 q 1038 299 1038 128 q 972 468 1038 468 z "},"&":{"ha":1042,"x_min":56,"x_max":1042,"o":"m 431 1006 q 574 981 511 1006 q 672 908 636 956 q 708 790 708 860 q 651 629 708 694 q 510 515 594 564 l 703 328 q 751 427 731 375 q 786 532 772 479 l 1001 532 q 940 365 981 454 q 838 199 900 276 l 1042 0 l 786 0 l 708 76 q 575 10 649 35 q 415 -14 501 -14 q 151 64 246 -14 q 56 268 56 142 q 104 437 56 374 q 238 549 153 500 q 162 664 183 611 q 140 776 140 717 q 177 899 140 847 q 280 978 214 950 q 431 1006 346 1006 m 429 846 q 363 828 394 846 q 332 763 332 811 q 349 696 332 728 q 396 631 367 664 q 485 694 454 663 q 517 768 517 726 q 489 828 517 810 q 429 846 461 846 m 358 425 q 297 363 319 396 q 274 288 274 331 q 318 194 274 228 q 429 160 363 160 q 513 171 474 160 q 583 201 551 182 l 358 425 z "},"'":{"ha":369,"x_min":90,"x_max":279,"o":"m 279 992 l 251 633 l 118 633 l 90 992 l 279 992 z "},"(":{"ha":471,"x_min":56,"x_max":429,"o":"m 56 381 q 105 708 56 550 q 260 992 154 865 l 429 992 q 285 704 335 861 q 236 382 236 547 q 285 65 236 221 q 428 -219 335 -92 l 260 -219 q 105 58 154 -97 q 56 381 56 213 z "},")":{"ha":471,"x_min":42,"x_max":415,"o":"m 415 381 q 366 58 415 213 q 211 -219 317 -97 l 43 -219 q 186 65 138 -92 q 235 382 235 221 q 185 704 235 547 q 42 992 136 861 l 211 992 q 366 708 317 865 q 415 381 415 550 z "},"*":{"ha":757,"x_min":43,"x_max":714,"o":"m 467 1056 l 439 806 l 692 876 l 714 706 l 483 689 l 635 488 l 481 406 l 375 618 l 282 407 l 122 488 l 272 689 l 43 707 l 69 876 l 317 806 l 289 1056 l 467 1056 z "},"+":{"ha":794,"x_min":60,"x_max":733,"o":"m 471 564 l 733 564 l 733 415 l 471 415 l 471 154 l 322 154 l 322 415 l 60 415 l 60 564 l 322 564 l 322 828 l 471 828 l 471 564 z "},",":{"ha":396,"x_min":43,"x_max":311,"o":"m 311 146 q 260 -15 293 72 q 192 -179 226 -103 l 43 -179 q 82 -4 63 -97 q 111 161 101 89 l 301 161 l 311 146 z "},"-":{"ha":447,"x_min":42,"x_max":406,"o":"m 42 288 l 42 457 l 406 457 l 406 288 l 42 288 z "},".":{"ha":396,"x_min":79,"x_max":317,"o":"m 79 97 q 114 187 79 161 q 199 213 149 213 q 282 187 247 213 q 317 97 317 161 q 282 9 317 36 q 199 -18 247 -18 q 114 9 149 -18 q 79 97 79 36 z "},"/":{"ha":574,"x_min":10,"x_max":567,"o":"m 567 992 l 197 0 l 10 0 l 379 992 l 567 992 z "},":":{"ha":396,"x_min":79,"x_max":317,"o":"m 79 657 q 114 747 79 721 q 199 772 149 772 q 282 747 247 772 q 317 657 317 721 q 282 569 317 596 q 199 542 247 542 q 114 569 149 542 q 79 657 79 596 m 79 97 q 114 187 79 161 q 199 213 149 213 q 282 187 247 213 q 317 97 317 161 q 282 9 317 36 q 199 -18 247 -18 q 114 9 149 -18 q 79 97 79 36 z "},";":{"ha":396,"x_min":43,"x_max":317,"o":"m 79 657 q 114 747 79 721 q 199 772 149 772 q 282 747 247 772 q 317 657 317 721 q 282 569 317 596 q 199 542 247 542 q 114 569 149 542 q 79 657 79 596 m 311 146 q 260 -15 293 72 q 192 -179 226 -103 l 43 -179 q 82 -4 63 -97 q 111 161 101 89 l 301 161 l 311 146 z "},"<":{"ha":794,"x_min":60,"x_max":733,"o":"m 733 138 l 60 435 l 60 532 l 733 868 l 733 706 l 269 490 l 733 300 l 733 138 z "},"=":{"ha":794,"x_min":60,"x_max":733,"o":"m 60 547 l 60 694 l 733 694 l 733 547 l 60 547 m 60 283 l 60 432 l 733 432 l 733 283 l 60 283 z "},">":{"ha":794,"x_min":60,"x_max":733,"o":"m 60 300 l 524 490 l 60 706 l 60 868 l 733 532 l 733 435 l 60 138 l 60 300 z "},"?":{"ha":663,"x_min":4,"x_max":629,"o":"m 188 379 q 217 496 188 449 q 317 594 246 543 q 406 672 379 639 q 433 749 433 704 q 401 816 433 793 q 310 839 368 839 q 194 821 251 839 q 78 772 138 803 l 4 921 q 151 982 72 958 q 325 1006 231 1006 q 549 936 469 1006 q 629 760 629 867 q 611 661 629 703 q 557 584 593 619 q 467 508 521 549 q 404 458 426 479 q 374 418 382 438 q 367 369 367 399 l 367 329 l 188 329 l 188 379 m 165 97 q 200 187 165 161 q 285 213 235 213 q 368 187 333 213 q 403 97 403 161 q 368 9 403 36 q 285 -18 333 -18 q 200 9 235 -18 q 165 97 165 36 z "},"@":{"ha":1246,"x_min":69,"x_max":1176,"o":"m 1176 497 q 1161 371 1176 433 q 1115 257 1146 308 q 1036 176 1083 206 q 925 146 989 146 q 835 170 874 146 q 781 233 796 194 l 769 233 q 695 172 742 199 q 583 146 649 146 q 392 220 460 146 q 325 415 325 294 q 365 580 325 508 q 479 692 406 651 q 653 733 553 733 q 788 722 718 733 q 897 696 858 710 l 883 411 q 882 383 882 397 q 882 364 882 368 q 898 288 882 307 q 933 269 914 269 q 986 301 965 269 q 1017 384 1007 332 q 1028 499 1028 436 q 981 697 1028 615 q 852 821 933 778 q 667 864 771 864 q 422 803 521 864 q 271 639 322 743 q 219 400 219 535 q 320 113 219 213 q 610 13 421 13 q 778 31 690 13 q 938 75 865 49 l 938 -56 q 789 -100 871 -83 q 615 -117 707 -117 q 321 -56 443 -117 q 134 120 199 6 q 69 396 69 235 q 111 631 69 522 q 231 820 153 739 q 419 947 310 901 q 665 992 529 992 q 929 932 814 992 q 1110 761 1044 872 q 1176 497 1176 650 m 482 413 q 514 303 482 336 q 599 269 546 269 q 697 320 668 269 q 731 453 725 371 l 739 603 q 704 608 724 606 q 661 610 685 610 q 556 581 596 610 q 499 508 517 553 q 482 413 482 463 z "},"A":{"ha":958,"x_min":0,"x_max":958,"o":"m 732 0 l 660 236 l 299 236 l 226 0 l 0 0 l 350 996 l 607 996 l 958 0 l 732 0 m 538 643 q 519 703 531 667 q 497 776 508 739 q 479 842 486 814 q 460 773 472 814 q 438 695 449 732 q 422 643 428 658 l 351 413 l 610 413 l 538 643 z "},"B":{"ha":933,"x_min":125,"x_max":860,"o":"m 433 992 q 733 936 632 992 q 835 740 835 881 q 795 597 835 656 q 682 526 756 539 l 682 519 q 772 485 732 510 q 836 413 813 460 q 860 288 860 365 q 763 76 860 153 q 496 0 665 0 l 125 0 l 125 992 l 433 992 m 457 599 q 584 628 549 599 q 619 713 619 657 q 578 794 619 769 q 446 819 536 819 l 335 819 l 335 599 l 457 599 m 335 432 l 335 174 l 472 174 q 604 210 567 174 q 642 308 642 247 q 603 398 642 364 q 465 432 565 432 l 335 432 z "},"C":{"ha":885,"x_min":81,"x_max":836,"o":"m 546 831 q 361 740 425 831 q 297 493 297 650 q 356 248 297 335 q 546 161 415 161 q 667 175 607 161 q 799 214 728 189 l 799 38 q 669 -1 733 11 q 526 -14 606 -14 q 274 49 374 -14 q 128 227 175 113 q 81 494 81 342 q 135 760 81 644 q 292 940 189 875 q 546 1006 396 1006 q 694 987 619 1006 q 836 936 768 968 l 768 765 q 656 811 713 792 q 546 831 600 831 z "},"D":{"ha":1028,"x_min":125,"x_max":947,"o":"m 947 506 q 805 127 947 254 q 406 0 663 0 l 125 0 l 125 992 l 436 992 q 706 936 592 992 q 884 773 821 881 q 947 506 947 665 m 729 500 q 657 742 729 665 q 447 819 585 819 l 335 819 l 335 174 l 425 174 q 729 500 729 174 z "},"E":{"ha":778,"x_min":125,"x_max":696,"o":"m 696 0 l 125 0 l 125 992 l 696 992 l 696 819 l 335 819 l 335 601 l 671 601 l 671 429 l 335 429 l 335 174 l 696 174 l 696 0 z "},"F":{"ha":763,"x_min":125,"x_max":693,"o":"m 332 0 l 125 0 l 125 992 l 693 992 l 693 819 l 332 819 l 332 564 l 668 564 l 668 392 l 332 392 l 332 0 z "},"G":{"ha":1006,"x_min":81,"x_max":894,"o":"m 501 557 l 894 557 l 894 43 q 733 1 817 17 q 542 -14 649 -14 q 200 117 319 -14 q 81 497 81 247 q 141 767 81 653 q 317 943 201 881 q 599 1006 432 1006 q 754 989 678 1006 q 893 944 831 972 l 824 776 q 719 815 778 800 q 597 831 661 831 q 438 789 506 831 q 334 672 371 747 q 297 493 297 596 q 324 321 297 396 q 407 203 350 246 q 556 161 464 161 q 631 165 600 161 q 689 175 663 169 l 689 382 l 501 382 l 501 557 z "},"H":{"ha":1063,"x_min":125,"x_max":938,"o":"m 938 0 l 728 0 l 728 428 l 335 428 l 335 0 l 125 0 l 125 992 l 335 992 l 335 603 l 728 603 l 728 992 l 938 992 l 938 0 z "},"I":{"ha":540,"x_min":44,"x_max":496,"o":"m 496 0 l 44 0 l 44 119 l 165 175 l 165 817 l 44 872 l 44 992 l 496 992 l 496 872 l 375 817 l 375 175 l 496 119 l 496 0 z "},"J":{"ha":460,"x_min":-103,"x_max":335,"o":"m 21 -292 q -50 -287 -19 -292 q -103 -276 -81 -282 l -103 -101 q -56 -111 -81 -107 q -4 -115 -32 -115 q 62 -101 32 -115 q 108 -49 92 -87 q 125 63 125 -10 l 125 992 l 335 992 l 335 64 q 295 -142 335 -64 q 185 -256 256 -221 q 21 -292 114 -292 z "},"K":{"ha":922,"x_min":125,"x_max":922,"o":"m 922 0 l 683 0 l 424 418 l 335 354 l 335 0 l 125 0 l 125 992 l 335 992 l 335 538 q 376 596 356 567 q 418 654 397 625 l 686 992 l 919 992 l 574 553 l 922 0 z "},"L":{"ha":785,"x_min":125,"x_max":738,"o":"m 125 0 l 125 992 l 335 992 l 335 174 l 738 174 l 738 0 l 125 0 z "},"M":{"ha":1310,"x_min":125,"x_max":1185,"o":"m 544 0 l 306 778 l 300 778 q 304 694 301 750 q 310 576 307 639 q 313 461 313 513 l 313 0 l 125 0 l 125 992 l 411 992 l 646 233 l 650 233 l 899 992 l 1185 992 l 1185 0 l 989 0 l 989 469 q 991 578 989 517 q 995 694 993 639 q 999 776 997 749 l 993 776 l 738 0 l 544 0 z "},"N":{"ha":1129,"x_min":125,"x_max":1004,"o":"m 1004 0 l 738 0 l 306 750 l 300 750 q 306 608 303 679 q 313 467 310 538 l 313 0 l 125 0 l 125 992 l 390 992 l 821 249 l 825 249 q 821 386 824 318 q 815 522 818 454 l 815 992 l 1004 992 l 1004 0 z "},"O":{"ha":1106,"x_min":81,"x_max":1025,"o":"m 1025 497 q 974 228 1025 343 q 819 50 924 114 q 553 -14 715 -14 q 287 50 392 -14 q 131 229 182 114 q 81 499 81 344 q 131 767 81 653 q 287 944 182 881 q 554 1007 392 1007 q 819 944 715 1007 q 974 766 924 881 q 1025 497 1025 651 m 301 497 q 361 252 301 342 q 553 163 421 163 q 746 252 688 163 q 804 497 804 342 q 746 743 804 654 q 554 832 688 832 q 361 743 421 832 q 301 497 301 654 z "},"P":{"ha":872,"x_min":125,"x_max":810,"o":"m 442 992 q 722 909 633 992 q 810 682 810 826 q 774 520 810 596 q 653 399 738 444 q 425 353 569 353 l 335 353 l 335 0 l 125 0 l 125 992 l 442 992 m 431 819 l 335 819 l 335 525 l 404 525 q 545 560 493 525 q 597 675 597 596 q 431 819 597 819 z "},"Q":{"ha":1106,"x_min":81,"x_max":1025,"o":"m 1025 497 q 965 209 1025 331 q 781 31 906 88 l 1019 -236 l 750 -236 l 568 -14 l 553 -14 q 287 50 392 -14 q 131 229 182 114 q 81 499 81 344 q 131 767 81 653 q 287 944 182 881 q 554 1007 392 1007 q 819 944 715 1007 q 974 766 924 881 q 1025 497 1025 651 m 301 497 q 361 252 301 342 q 553 163 421 163 q 746 252 688 163 q 804 497 804 342 q 746 743 804 654 q 554 832 688 832 q 361 743 421 832 q 301 497 301 654 z "},"R":{"ha":917,"x_min":125,"x_max":917,"o":"m 414 992 q 713 918 617 992 q 810 694 810 844 q 784 576 810 626 q 716 490 758 525 q 625 432 674 454 l 917 0 l 683 0 l 447 381 l 335 381 l 335 0 l 125 0 l 125 992 l 414 992 m 399 819 l 335 819 l 335 551 l 403 551 q 552 586 507 551 q 597 689 597 621 q 549 790 597 760 q 399 819 501 819 z "},"S":{"ha":765,"x_min":64,"x_max":710,"o":"m 710 275 q 615 65 710 143 q 344 -14 519 -14 q 64 46 188 -14 l 64 242 q 210 185 135 211 q 361 160 286 160 q 472 190 439 160 q 504 265 504 219 q 478 329 504 303 q 410 378 453 356 q 311 428 367 401 q 236 467 276 444 q 159 524 196 490 q 99 607 122 558 q 75 724 75 656 q 165 931 75 857 q 411 1006 256 1006 q 559 988 489 1006 q 706 936 629 969 l 638 772 q 515 815 569 800 q 404 831 461 831 q 313 803 344 831 q 281 731 281 775 q 328 647 281 678 q 468 572 375 617 q 598 497 544 536 q 681 406 651 458 q 710 275 710 353 z "},"T":{"ha":804,"x_min":28,"x_max":776,"o":"m 507 0 l 297 0 l 297 817 l 28 817 l 28 992 l 776 992 l 776 817 l 507 817 l 507 0 z "},"U":{"ha":1050,"x_min":118,"x_max":932,"o":"m 932 350 q 887 165 932 247 q 751 34 842 82 q 521 -14 660 -14 q 221 87 324 -14 q 118 353 118 188 l 118 992 l 328 992 l 328 385 q 378 213 328 263 q 526 163 428 163 q 676 217 629 163 q 722 386 722 271 l 722 992 l 932 992 l 932 350 z "},"V":{"ha":903,"x_min":0,"x_max":903,"o":"m 903 992 l 565 0 l 336 0 l 0 992 l 213 992 l 399 401 q 415 345 404 386 q 436 259 425 304 q 451 183 447 214 q 466 259 456 214 q 488 345 476 304 q 503 401 499 386 l 690 992 l 903 992 z "},"W":{"ha":1343,"x_min":0,"x_max":1343,"o":"m 1343 992 l 1090 0 l 851 0 l 717 521 q 706 567 713 536 q 692 633 700 597 q 679 702 685 669 q 671 753 674 735 q 663 702 669 735 q 650 634 657 669 q 636 567 643 599 q 625 519 629 536 l 492 0 l 253 0 l 0 992 l 207 992 l 333 450 q 351 369 342 418 q 369 272 361 321 q 382 190 378 224 q 394 273 386 225 q 412 366 403 321 q 428 436 421 411 l 572 992 l 771 992 l 915 436 q 931 367 922 413 q 949 272 940 321 q 961 190 957 224 q 974 273 965 225 q 992 369 982 321 q 1010 450 1003 418 l 1136 992 l 1343 992 z "},"X":{"ha":926,"x_min":0,"x_max":926,"o":"m 926 0 l 686 0 l 456 375 l 225 0 l 0 0 l 329 511 l 21 992 l 253 992 l 467 635 l 676 992 l 903 992 l 592 500 l 926 0 z "},"Y":{"ha":867,"x_min":0,"x_max":867,"o":"m 433 583 l 640 992 l 867 992 l 538 386 l 538 0 l 329 0 l 329 379 l 0 992 l 228 992 l 433 583 z "},"Z":{"ha":804,"x_min":33,"x_max":771,"o":"m 771 0 l 33 0 l 33 136 l 508 818 l 46 818 l 46 992 l 758 992 l 758 856 l 283 174 l 771 174 l 771 0 z "},"[":{"ha":460,"x_min":97,"x_max":425,"o":"m 425 -219 l 97 -219 l 97 992 l 425 992 l 425 849 l 274 849 l 274 -76 l 425 -76 l 425 -219 z "},"\\":{"ha":574,"x_min":8,"x_max":565,"o":"m 196 992 l 565 0 l 378 0 l 8 992 l 196 992 z "},"]":{"ha":460,"x_min":35,"x_max":363,"o":"m 35 -76 l 186 -76 l 186 849 l 35 849 l 35 992 l 363 992 l 363 -219 l 35 -219 l 35 -76 z "},"^":{"ha":794,"x_min":32,"x_max":763,"o":"m 32 353 l 329 997 l 426 997 l 763 353 l 600 353 l 382 789 l 192 353 l 32 353 z "},"_":{"ha":571,"x_min":-3,"x_max":574,"o":"m 574 -219 l -3 -219 l -3 -125 l 574 -125 l 574 -219 z "},"`":{"ha":503,"x_min":56,"x_max":447,"o":"m 288 1064 q 337 995 308 1033 q 395 922 365 957 q 447 860 425 886 l 447 842 l 310 842 q 248 887 283 860 q 176 944 213 914 q 107 1003 139 975 q 56 1050 75 1031 l 56 1064 l 288 1064 z "},"a":{"ha":839,"x_min":58,"x_max":735,"o":"m 419 774 q 653 708 572 774 q 735 506 735 642 l 735 0 l 590 0 l 550 103 l 544 103 q 442 14 496 42 q 293 -14 388 -14 q 125 45 192 -14 q 58 226 58 104 q 143 405 58 347 q 397 468 228 463 l 529 472 l 529 506 q 498 593 529 565 q 411 621 467 621 q 303 605 356 621 q 197 565 250 589 l 129 706 q 265 756 190 738 q 419 774 339 774 m 449 349 q 310 313 349 346 q 271 225 271 279 q 299 158 271 178 q 371 138 326 138 q 483 177 438 138 q 529 289 529 217 l 529 351 l 449 349 z "},"b":{"ha":879,"x_min":108,"x_max":817,"o":"m 315 810 q 313 725 315 767 q 307 660 310 683 l 315 660 q 397 740 346 707 q 531 772 449 772 q 738 673 658 772 q 817 381 817 574 q 736 86 817 186 q 525 -14 656 -14 q 394 16 442 -14 q 315 83 346 46 l 301 83 l 267 0 l 108 0 l 108 1056 l 315 1056 l 315 810 m 464 607 q 351 557 383 607 q 315 404 318 507 l 315 382 q 348 213 315 272 q 467 154 381 154 q 568 213 531 154 q 606 383 606 272 q 567 551 606 494 q 464 607 529 607 z "},"c":{"ha":714,"x_min":63,"x_max":671,"o":"m 417 -14 q 155 80 247 -14 q 63 375 63 174 q 110 601 63 514 q 241 731 157 689 q 435 772 325 772 q 570 757 513 772 q 671 721 628 742 l 610 561 q 519 593 561 581 q 435 606 476 606 q 274 376 274 606 q 316 208 274 263 q 435 154 358 154 q 550 172 500 154 q 647 219 600 189 l 647 43 q 548 -1 600 13 q 417 -14 496 -14 z "},"d":{"ha":879,"x_min":63,"x_max":771,"o":"m 349 -14 q 142 85 222 -14 q 63 378 63 185 q 143 672 63 572 q 354 772 224 772 q 489 740 436 772 q 572 661 542 708 l 579 661 q 569 726 575 683 q 564 813 564 768 l 564 1056 l 771 1056 l 771 0 l 613 0 l 572 99 l 564 99 q 482 19 533 51 q 349 -14 431 -14 m 421 151 q 542 202 507 151 q 578 354 576 253 l 578 376 q 544 546 578 488 q 418 604 510 604 q 311 545 350 604 q 272 375 272 486 q 311 208 272 264 q 421 151 350 151 z "},"e":{"ha":821,"x_min":63,"x_max":761,"o":"m 421 772 q 669 683 578 772 q 761 428 761 593 l 761 328 l 272 328 q 324 190 275 240 q 461 140 374 140 q 594 155 535 140 q 718 200 654 169 l 718 40 q 601 -1 663 13 q 451 -14 539 -14 q 250 28 338 -14 q 113 157 163 71 q 63 374 63 243 q 108 595 63 507 q 233 728 153 683 q 421 772 314 772 m 422 625 q 323 586 363 625 q 276 465 283 547 l 567 465 q 531 580 565 535 q 422 625 496 625 z "},"f":{"ha":538,"x_min":28,"x_max":600,"o":"m 528 603 l 349 603 l 349 0 l 142 0 l 142 603 l 28 603 l 28 703 l 142 758 l 142 814 q 174 965 142 911 q 267 1040 207 1018 q 410 1063 328 1063 q 520 1053 471 1063 q 600 1031 569 1043 l 547 879 q 496 892 524 886 q 432 899 468 899 q 369 872 389 899 q 349 806 349 846 l 349 758 l 528 758 l 528 603 z "},"g":{"ha":879,"x_min":63,"x_max":771,"o":"m 354 772 q 574 661 494 772 l 579 661 l 596 758 l 771 758 l 771 -1 q 675 -249 771 -164 q 392 -333 579 -333 q 242 -324 311 -333 q 108 -289 174 -314 l 108 -124 q 404 -182 249 -182 q 564 -10 564 -182 l 564 6 q 566 54 564 29 q 569 99 568 79 l 564 99 q 471 13 525 39 q 349 -14 417 -14 q 138 90 214 -14 q 63 378 63 193 q 140 668 63 564 q 354 772 218 772 m 419 604 q 274 375 274 604 q 422 149 274 149 q 540 194 501 149 q 578 351 578 239 l 578 376 q 540 551 578 499 q 419 604 503 604 z "},"h":{"ha":913,"x_min":108,"x_max":808,"o":"m 315 840 q 312 733 315 785 q 306 661 308 682 l 317 661 q 410 746 353 719 q 536 772 467 772 q 734 706 660 772 q 808 494 808 640 l 808 0 l 601 0 l 601 443 q 479 607 601 607 q 351 542 386 607 q 315 357 315 478 l 315 0 l 108 0 l 108 1056 l 315 1056 l 315 840 z "},"i":{"ha":424,"x_min":100,"x_max":325,"o":"m 213 1056 q 292 1034 258 1056 q 325 954 325 1013 q 292 875 325 897 q 213 853 258 853 q 133 875 165 853 q 100 954 100 897 q 133 1034 100 1013 q 213 1056 165 1056 m 315 758 l 315 0 l 108 0 l 108 758 l 315 758 z "},"j":{"ha":424,"x_min":-89,"x_max":325,"o":"m 100 954 q 133 1034 100 1013 q 213 1056 165 1056 q 292 1034 258 1056 q 325 954 325 1013 q 292 875 325 897 q 213 853 258 853 q 133 875 165 853 q 100 954 100 897 m 47 -333 q -26 -328 13 -333 q -89 -317 -64 -324 l -89 -154 q -42 -163 -64 -160 q 8 -167 -19 -167 q 79 -143 50 -167 q 108 -51 108 -119 l 108 758 l 315 758 l 315 -82 q 289 -208 315 -151 q 203 -299 263 -265 q 47 -333 144 -333 z "},"k":{"ha":861,"x_min":108,"x_max":861,"o":"m 315 583 q 312 498 315 540 q 304 413 308 456 l 307 413 q 350 472 328 442 q 397 528 372 501 l 610 758 l 843 758 l 542 429 l 861 0 l 622 0 l 404 307 l 315 236 l 315 0 l 108 0 l 108 1056 l 315 1056 l 315 583 z "},"l":{"ha":424,"x_min":108,"x_max":315,"o":"m 315 0 l 108 0 l 108 1056 l 315 1056 l 315 0 z "},"m":{"ha":1364,"x_min":108,"x_max":1260,"o":"m 999 772 q 1194 706 1128 772 q 1260 494 1260 640 l 1260 0 l 1053 0 l 1053 443 q 939 607 1053 607 q 822 549 857 607 q 788 381 788 490 l 788 0 l 581 0 l 581 443 q 467 607 581 607 q 348 542 381 607 q 315 357 315 478 l 315 0 l 108 0 l 108 758 l 267 758 l 294 661 l 306 661 q 401 746 340 719 q 526 772 461 772 q 668 745 610 772 q 757 661 726 718 l 775 661 q 872 746 810 719 q 999 772 933 772 z "},"n":{"ha":913,"x_min":108,"x_max":808,"o":"m 539 772 q 735 706 661 772 q 808 494 808 640 l 808 0 l 601 0 l 601 443 q 572 566 601 525 q 479 607 543 607 q 350 542 385 607 q 315 357 315 478 l 315 0 l 108 0 l 108 758 l 267 758 l 294 661 l 306 661 q 405 746 342 719 q 539 772 468 772 z "},"o":{"ha":860,"x_min":63,"x_max":797,"o":"m 797 381 q 698 89 797 192 q 428 -14 599 -14 q 240 32 322 -14 q 110 166 157 78 q 63 381 63 254 q 161 671 63 569 q 432 772 260 772 q 621 726 539 772 q 750 594 703 681 q 797 381 797 507 m 274 381 q 310 210 274 268 q 431 153 347 153 q 549 210 513 153 q 586 381 586 268 q 549 549 586 493 q 429 606 513 606 q 310 549 347 606 q 274 381 274 493 z "},"p":{"ha":879,"x_min":108,"x_max":817,"o":"m 531 772 q 738 673 658 772 q 817 381 817 574 q 735 87 817 188 q 525 -14 653 -14 q 394 16 443 -14 q 315 83 346 46 l 304 83 q 315 -28 315 25 l 315 -333 l 108 -333 l 108 758 l 276 758 l 306 660 l 315 660 q 397 739 346 706 q 531 772 449 772 m 464 607 q 351 557 383 607 q 315 404 318 507 l 315 382 q 348 213 315 272 q 467 154 381 154 q 572 213 538 154 q 606 383 606 272 q 464 607 606 607 z "},"q":{"ha":879,"x_min":63,"x_max":771,"o":"m 564 -15 q 572 99 564 43 l 564 99 q 483 19 535 51 q 349 -14 432 -14 q 142 85 221 -14 q 63 378 63 185 q 143 672 63 572 q 353 772 224 772 q 488 740 436 772 q 572 661 540 708 l 578 661 l 596 758 l 771 758 l 771 -333 l 564 -333 l 564 -15 m 422 149 q 542 199 508 149 q 578 351 576 250 l 578 376 q 544 546 578 488 q 419 604 510 604 q 310 545 346 604 q 274 375 274 486 q 422 149 274 149 z "},"r":{"ha":631,"x_min":108,"x_max":601,"o":"m 532 772 q 568 771 547 772 q 601 767 589 769 l 586 572 q 558 577 576 575 q 525 579 539 579 q 424 560 472 579 q 345 500 375 542 q 315 386 315 458 l 315 0 l 108 0 l 108 758 l 265 758 l 296 631 l 306 631 q 397 731 339 689 q 532 772 456 772 z "},"s":{"ha":690,"x_min":63,"x_max":638,"o":"m 638 225 q 556 48 638 110 q 314 -14 475 -14 q 178 -3 235 -14 q 64 31 121 7 l 64 201 q 196 156 125 174 q 321 138 267 138 q 408 156 382 138 q 433 203 433 174 q 423 238 433 222 q 378 272 413 253 q 269 322 343 292 q 153 383 199 353 q 85 455 107 413 q 63 561 63 497 q 144 719 63 667 q 363 772 226 772 q 497 758 433 772 q 629 713 561 744 l 567 564 q 461 603 511 588 q 360 619 411 619 q 268 569 268 619 q 280 537 268 551 q 326 506 292 522 q 426 461 360 489 q 539 406 492 435 q 612 335 586 378 q 638 225 638 293 z "},"t":{"ha":603,"x_min":32,"x_max":558,"o":"m 428 151 q 494 158 463 151 q 558 175 526 165 l 558 21 q 476 -3 525 7 q 368 -14 426 -14 q 247 8 300 -14 q 162 85 193 31 q 131 238 131 140 l 131 603 l 32 603 l 32 690 l 146 760 l 206 919 l 338 919 l 338 758 l 550 758 l 550 603 l 338 603 l 338 238 q 363 173 338 194 q 428 151 388 151 z "},"u":{"ha":913,"x_min":104,"x_max":804,"o":"m 804 758 l 804 0 l 646 0 l 618 97 l 607 97 q 508 13 571 39 q 374 -14 444 -14 q 178 52 251 -14 q 104 264 104 118 l 104 758 l 311 758 l 311 315 q 340 193 311 235 q 433 151 369 151 q 563 216 528 151 q 597 401 597 281 l 597 758 l 804 758 z "},"v":{"ha":790,"x_min":0,"x_max":790,"o":"m 289 0 l 0 758 l 217 758 l 363 326 q 383 246 375 288 q 392 171 390 204 l 397 171 q 428 326 401 246 l 574 758 l 790 758 l 501 0 l 289 0 z "},"w":{"ha":1189,"x_min":14,"x_max":1175,"o":"m 674 265 q 658 335 668 289 q 635 435 647 382 q 611 534 622 489 q 596 600 600 579 l 590 600 q 576 534 586 579 q 553 435 565 489 q 529 335 540 382 q 513 263 518 288 l 451 0 l 229 0 l 14 758 l 219 758 l 307 422 q 324 339 317 388 q 339 245 332 290 q 349 174 346 200 l 354 174 q 360 226 356 193 q 370 293 364 258 q 381 356 376 328 q 389 394 386 385 l 482 758 l 710 758 l 799 394 q 812 332 804 375 q 826 244 819 289 q 832 174 832 200 l 838 174 q 847 242 840 197 q 863 338 854 288 q 882 422 872 388 l 972 758 l 1175 758 l 957 0 l 732 0 l 674 265 z "},"x":{"ha":803,"x_min":7,"x_max":796,"o":"m 264 388 l 19 758 l 254 758 l 401 517 l 550 758 l 785 758 l 538 388 l 796 0 l 561 0 l 401 260 l 242 0 l 7 0 l 264 388 z "},"y":{"ha":790,"x_min":0,"x_max":790,"o":"m 0 758 l 226 758 l 369 332 q 386 269 381 301 q 394 200 392 236 l 399 200 q 410 269 403 236 q 428 332 418 301 l 568 758 l 790 758 l 469 -97 q 344 -274 426 -215 q 153 -333 261 -333 q 92 -330 118 -333 q 47 -322 67 -326 l 47 -158 q 84 -164 63 -161 q 129 -167 106 -167 q 233 -127 194 -167 q 289 -32 271 -87 l 301 6 l 0 758 z "},"z":{"ha":678,"x_min":38,"x_max":636,"o":"m 636 0 l 38 0 l 38 122 l 389 600 l 58 600 l 58 758 l 624 758 l 624 624 l 282 158 l 636 158 l 636 0 z "},"{":{"ha":547,"x_min":21,"x_max":492,"o":"m 492 -219 q 309 -200 374 -219 q 219 -139 244 -181 q 194 -31 194 -97 l 194 183 q 150 276 194 249 q 21 304 106 304 l 21 467 q 150 494 106 467 q 194 588 194 522 l 194 803 q 219 911 194 869 q 309 972 244 953 q 492 992 374 992 l 492 839 q 406 819 438 838 q 374 743 374 801 l 374 540 q 215 390 374 414 l 215 382 q 374 232 374 358 l 374 29 q 406 -47 374 -29 q 492 -67 438 -65 l 492 -219 z "},"|":{"ha":765,"x_min":308,"x_max":457,"o":"m 308 1051 l 457 1051 l 457 -315 l 308 -315 l 308 1051 z "},"}":{"ha":547,"x_min":56,"x_max":526,"o":"m 56 -67 q 142 -47 110 -65 q 174 29 174 -29 l 174 232 q 332 382 174 358 l 332 390 q 174 540 174 414 l 174 743 q 142 819 174 801 q 56 839 110 838 l 56 992 q 239 972 175 992 q 328 911 303 953 q 353 803 353 869 l 353 588 q 397 494 353 522 q 526 467 442 467 l 526 304 q 397 276 442 304 q 353 183 353 249 l 353 -31 q 328 -139 353 -97 q 239 -200 303 -181 q 56 -219 175 -219 l 56 -67 z "},"~":{"ha":794,"x_min":60,"x_max":733,"o":"m 372 418 q 285 448 321 440 q 218 456 250 456 q 137 432 179 456 q 60 374 94 408 l 60 531 q 233 604 129 604 q 315 597 274 604 q 421 561 356 589 q 508 531 472 539 q 575 524 544 524 q 657 547 615 524 q 733 606 699 571 l 733 449 q 560 375 664 375 q 478 383 519 375 q 372 418 438 392 z "}," ":{"ha":361,"x_min":0,"x_max":0,"o":""},"¡":{"ha":397,"x_min":79,"x_max":317,"o":"m 317 643 q 282 553 317 579 q 197 528 247 528 q 115 553 150 528 q 79 643 79 579 q 115 731 79 704 q 197 758 150 758 q 282 731 247 758 q 317 643 317 704 m 114 411 l 279 411 l 314 -250 l 79 -250 l 114 411 z "},"¢":{"ha":794,"x_min":97,"x_max":706,"o":"m 503 899 q 617 882 568 896 q 706 849 667 868 l 644 689 q 553 721 596 708 q 469 733 511 733 q 308 504 308 733 q 351 336 308 390 q 469 282 393 282 q 581 296 535 282 q 682 333 628 310 l 682 161 q 595 128 639 140 q 503 114 551 117 l 503 -14 l 382 -14 l 382 119 q 172 231 247 139 q 97 503 97 322 q 133 715 97 633 q 233 838 168 796 q 382 893 297 881 l 382 1006 l 503 1006 l 503 899 z "},"£":{"ha":794,"x_min":56,"x_max":767,"o":"m 475 1006 q 617 990 550 1006 q 739 950 685 974 l 676 794 q 582 826 629 814 q 492 838 535 838 q 415 812 447 838 q 382 721 382 786 l 382 590 l 636 590 l 636 442 l 382 442 l 382 344 q 349 233 382 271 q 279 176 315 196 l 767 176 l 767 0 l 56 0 l 56 168 q 145 228 113 193 q 178 343 178 264 l 178 442 l 57 442 l 57 590 l 178 590 l 178 722 q 218 887 178 825 q 326 977 258 949 q 475 1006 393 1006 z "},"¤":{"ha":794,"x_min":76,"x_max":717,"o":"m 128 490 q 138 560 128 526 q 164 624 147 594 l 76 710 l 176 810 l 263 724 q 326 750 292 740 q 396 760 361 760 q 529 722 467 760 l 615 810 l 717 713 l 629 625 q 656 562 646 597 q 665 490 665 526 q 629 356 665 417 l 714 271 l 615 172 l 529 257 q 466 232 500 242 q 396 222 432 222 q 261 257 318 222 l 176 174 l 78 272 l 164 357 q 128 490 128 418 m 268 490 q 306 400 268 438 q 396 363 343 363 q 488 400 450 363 q 526 490 526 438 q 488 582 526 544 q 396 619 450 619 q 306 582 343 619 q 268 490 268 544 z "},"¥":{"ha":794,"x_min":4,"x_max":788,"o":"m 396 583 l 575 992 l 788 992 l 528 485 l 660 485 l 660 364 l 493 364 l 493 271 l 660 271 l 660 150 l 493 150 l 493 0 l 299 0 l 299 150 l 131 150 l 131 271 l 299 271 l 299 364 l 131 364 l 131 485 l 260 485 l 4 992 l 218 992 l 396 583 z "},"¦":{"ha":765,"x_min":308,"x_max":457,"o":"m 308 1051 l 457 1051 l 457 499 l 308 499 l 308 1051 m 308 238 l 457 238 l 457 -315 l 308 -315 l 308 238 z "},"§":{"ha":675,"x_min":72,"x_max":607,"o":"m 82 543 q 109 644 82 603 q 172 711 136 686 q 106 778 129 739 q 82 868 82 817 q 158 1009 82 956 q 357 1063 233 1063 q 486 1047 426 1063 q 603 1006 546 1031 l 547 876 q 453 916 501 899 q 353 933 406 933 q 272 918 297 933 q 247 871 247 903 q 281 813 247 836 q 392 758 315 789 q 548 665 489 719 q 607 529 607 611 q 583 420 607 461 q 522 354 560 379 q 585 292 564 328 q 607 206 607 256 q 526 46 607 106 q 308 -14 446 -14 q 177 0 235 -14 q 72 40 119 14 l 72 181 q 191 134 125 154 q 308 114 257 114 q 413 137 385 114 q 440 193 440 160 q 430 233 440 217 q 390 267 419 250 q 300 310 360 285 q 182 369 231 339 q 108 440 133 399 q 82 543 82 482 m 233 558 q 272 484 233 517 q 390 418 310 451 l 400 414 q 436 453 419 429 q 453 511 453 476 q 421 585 453 553 q 294 651 389 618 q 252 617 271 642 q 233 558 233 593 z "},"¨":{"ha":843,"x_min":189,"x_max":654,"o":"m 189 953 q 217 1023 189 1001 q 283 1044 244 1044 q 351 1023 322 1044 q 379 953 379 1001 q 351 885 379 907 q 283 863 322 863 q 217 885 244 863 q 189 953 189 907 m 463 953 q 490 1023 463 1001 q 558 1044 518 1044 q 626 1023 597 1044 q 654 953 654 1001 q 626 885 654 907 q 558 863 597 863 q 490 885 518 863 q 463 953 463 907 z "},"©":{"ha":1156,"x_min":68,"x_max":1088,"o":"m 578 -14 q 374 24 467 -14 q 212 130 281 61 q 106 292 143 199 q 68 496 68 385 q 106 694 68 601 q 214 856 144 786 q 376 966 283 926 q 578 1006 469 1006 q 776 968 683 1006 q 938 862 868 931 q 1048 700 1008 793 q 1088 496 1088 607 q 1050 292 1088 385 q 944 130 1013 199 q 782 24 875 61 q 578 -14 689 -14 m 578 75 q 785 129 692 75 q 935 278 879 183 q 990 496 990 374 q 959 660 990 583 q 872 794 928 736 q 741 885 817 853 q 578 918 665 918 q 365 864 460 918 q 217 715 271 810 q 163 496 163 619 q 216 278 163 374 q 363 129 269 183 q 578 75 457 75 m 599 178 q 387 265 457 178 q 317 496 317 353 q 350 660 317 589 q 447 773 383 732 q 604 814 511 814 q 775 772 694 814 l 735 679 q 606 715 665 715 q 478 657 524 715 q 433 496 433 599 q 473 333 433 390 q 604 275 513 275 q 676 284 636 275 q 750 307 715 293 l 750 211 q 682 188 717 197 q 599 178 647 178 z "},"ª":{"ha":532,"x_min":32,"x_max":472,"o":"m 278 1003 q 424 953 376 1003 q 472 818 472 903 l 472 518 l 381 518 l 360 593 q 196 510 299 510 q 77 547 122 510 q 32 661 32 585 q 94 776 32 743 q 269 815 157 810 l 336 818 l 336 829 q 250 897 336 897 q 181 886 219 897 q 103 856 143 875 l 58 947 q 157 986 103 969 q 278 1003 211 1003 m 269 733 q 190 708 208 729 q 171 663 171 686 q 186 624 171 636 q 224 613 201 613 q 306 641 276 613 q 336 713 336 669 l 336 738 l 269 733 z "},"«":{"ha":854,"x_min":56,"x_max":799,"o":"m 56 389 l 307 697 l 456 617 l 267 381 l 456 144 l 307 64 l 56 371 l 56 389 m 399 389 l 650 697 l 799 617 l 610 381 l 799 144 l 650 64 l 399 371 l 399 389 z "},"¬":{"ha":794,"x_min":60,"x_max":733,"o":"m 733 564 l 733 168 l 585 168 l 585 415 l 60 415 l 60 564 l 733 564 z "},"­":{"ha":447,"x_min":42,"x_max":406,"o":"m 42 288 l 42 457 l 406 457 l 406 288 l 42 288 z "},"®":{"ha":1156,"x_min":68,"x_max":1088,"o":"m 578 -14 q 374 24 467 -14 q 212 130 281 61 q 106 292 143 199 q 68 496 68 385 q 106 694 68 601 q 214 856 144 786 q 376 966 283 926 q 578 1006 469 1006 q 776 968 683 1006 q 938 862 868 931 q 1048 700 1008 793 q 1088 496 1088 607 q 1050 292 1088 385 q 944 130 1013 199 q 782 24 875 61 q 578 -14 689 -14 m 578 75 q 785 129 692 75 q 935 278 879 183 q 990 496 990 374 q 959 660 990 583 q 872 794 928 736 q 741 885 817 853 q 578 918 665 918 q 365 864 460 918 q 217 715 271 810 q 163 496 163 619 q 216 278 163 374 q 363 129 269 183 q 578 75 457 75 m 381 192 l 381 806 l 565 806 q 732 758 679 806 q 785 619 785 710 q 751 516 785 554 q 676 461 718 478 l 838 192 l 711 192 l 579 425 l 493 425 l 493 192 l 381 192 m 563 518 q 644 546 617 518 q 671 617 671 574 q 647 688 671 665 q 561 710 622 710 l 493 710 l 493 518 l 563 518 z "},"¯":{"ha":694,"x_min":-4,"x_max":699,"o":"m 699 1056 l -4 1056 l -4 1192 l 699 1192 l 699 1056 z "},"°":{"ha":594,"x_min":54,"x_max":539,"o":"m 297 538 q 172 567 226 538 q 85 650 117 597 q 54 771 54 703 q 85 892 54 839 q 172 975 117 944 q 297 1006 226 1006 q 424 976 369 1006 q 508 893 478 946 q 539 771 539 840 q 508 650 539 703 q 424 567 478 597 q 297 538 369 538 m 297 667 q 372 695 342 667 q 403 771 403 724 q 372 849 403 821 q 297 878 342 878 q 223 849 254 878 q 192 771 192 821 q 223 695 192 724 q 297 667 254 667 z "},"±":{"ha":794,"x_min":60,"x_max":733,"o":"m 471 606 l 733 606 l 733 457 l 471 457 l 471 196 l 322 196 l 322 457 l 60 457 l 60 606 l 322 606 l 322 869 l 471 869 l 471 606 m 60 0 l 60 149 l 733 149 l 733 0 l 60 0 z "},"²":{"ha":526,"x_min":32,"x_max":476,"o":"m 476 578 l 38 578 l 38 692 l 189 840 q 274 934 251 901 q 297 1003 297 967 q 281 1042 297 1028 q 238 1056 265 1056 q 115 996 183 1056 l 32 1099 q 131 1162 76 1138 q 260 1186 186 1186 q 405 1142 350 1186 q 460 1017 460 1099 q 425 903 460 954 q 308 778 390 851 l 238 714 l 476 714 l 476 578 z "},"³":{"ha":526,"x_min":40,"x_max":471,"o":"m 256 1185 q 396 1142 340 1185 q 451 1028 451 1100 q 424 947 451 981 q 336 893 397 913 l 336 885 q 438 831 406 871 q 471 743 471 792 q 411 614 471 661 q 225 567 351 567 q 40 614 126 567 l 40 743 q 130 699 85 717 q 224 682 175 682 q 321 754 321 682 q 297 804 321 782 q 208 826 274 826 l 132 826 l 132 935 l 194 935 q 285 958 265 935 q 306 1008 306 981 q 289 1051 306 1035 q 238 1068 272 1068 q 177 1056 206 1068 q 110 1015 149 1043 l 42 1111 q 135 1164 83 1143 q 256 1185 186 1185 z "},"´":{"ha":503,"x_min":56,"x_max":447,"o":"m 447 1050 q 396 1003 428 1031 q 327 944 364 975 q 255 887 290 914 q 193 842 219 860 l 56 842 l 56 860 q 108 922 78 886 q 167 995 138 957 q 215 1064 196 1033 l 447 1064 l 447 1050 z "},"µ":{"ha":917,"x_min":108,"x_max":808,"o":"m 808 758 l 808 0 l 651 0 l 622 101 l 613 101 q 544 15 585 44 q 443 -14 503 -14 q 313 47 358 -14 l 308 47 q 313 3 311 33 q 315 -59 314 -26 q 315 -117 315 -92 l 315 -333 l 108 -333 l 108 758 l 315 758 l 315 315 q 439 151 315 151 q 567 216 532 151 q 601 401 601 281 l 601 758 l 808 758 z "},"¶":{"ha":910,"x_min":76,"x_max":792,"o":"m 792 -176 l 682 -176 l 682 919 l 569 919 l 569 -176 l 460 -176 l 460 379 q 361 367 418 367 q 211 399 275 367 q 112 506 147 431 q 76 707 76 581 q 115 916 76 840 q 222 1024 153 992 q 382 1056 292 1056 l 792 1056 l 792 -176 z "},"·":{"ha":396,"x_min":79,"x_max":317,"o":"m 79 489 q 114 578 79 553 q 199 604 149 604 q 282 578 247 604 q 317 489 317 553 q 282 401 317 428 q 199 374 247 374 q 114 401 149 374 q 79 489 79 428 z "},"¸":{"ha":285,"x_min":-25,"x_max":283,"o":"m 283 -169 q 238 -290 283 -247 q 74 -333 193 -333 q 19 -329 43 -333 q -25 -319 -6 -325 l -25 -206 q 23 -215 -6 -211 q 72 -219 51 -219 q 106 -210 92 -219 q 121 -178 121 -201 q 96 -133 121 -153 q 8 -104 71 -114 l 61 0 l 192 0 l 174 -42 q 249 -87 215 -56 q 283 -169 283 -118 z "},"¹":{"ha":526,"x_min":63,"x_max":396,"o":"m 396 1172 l 396 578 l 235 578 l 235 881 q 235 928 235 899 q 238 984 236 957 q 240 1021 239 1011 q 216 994 232 1010 q 189 968 200 978 l 136 926 l 63 1013 l 267 1172 l 396 1172 z "},"º":{"ha":539,"x_min":39,"x_max":500,"o":"m 500 757 q 438 574 500 639 q 268 510 375 510 q 103 574 168 510 q 39 757 39 639 q 101 939 39 875 q 271 1003 164 1003 q 435 939 369 1003 q 500 757 500 875 m 176 757 q 199 655 176 689 q 269 621 221 621 q 361 757 361 621 q 269 892 361 892 q 199 858 221 892 q 176 757 176 825 z "},"»":{"ha":854,"x_min":56,"x_max":799,"o":"m 799 371 l 547 64 l 399 144 l 588 381 l 399 617 l 547 697 l 799 389 l 799 371 m 456 371 l 204 64 l 56 144 l 244 381 l 56 617 l 204 697 l 456 389 l 456 371 z "},"¼":{"ha":1153,"x_min":31,"x_max":1140,"o":"m 217 0 l 767 992 l 929 992 l 379 0 l 217 0 m 203 700 q 203 747 203 718 q 206 803 204 776 q 208 840 207 831 q 184 813 200 829 q 157 788 168 797 l 104 746 l 31 832 l 235 992 l 364 992 l 364 397 l 203 397 l 203 700 m 894 0 l 894 103 l 635 103 l 635 207 l 896 599 l 1056 599 l 1056 217 l 1140 217 l 1140 103 l 1056 103 l 1056 0 l 894 0 m 760 217 l 894 217 l 894 328 q 899 453 894 386 q 875 400 892 435 q 846 346 858 365 l 760 217 z "},"½":{"ha":1214,"x_min":31,"x_max":1164,"o":"m 217 0 l 767 992 l 929 992 l 379 0 l 217 0 m 203 700 q 203 747 203 718 q 206 803 204 776 q 208 840 207 831 q 184 813 200 829 q 157 788 168 797 l 104 746 l 31 832 l 235 992 l 364 992 l 364 397 l 203 397 l 203 700 m 725 0 l 725 114 l 876 263 q 962 356 939 324 q 985 425 985 389 q 969 464 985 450 q 925 478 953 478 q 803 418 871 478 l 719 521 q 819 584 764 560 q 947 608 874 608 q 1092 565 1038 608 q 1147 439 1147 521 q 1113 325 1147 376 q 996 200 1078 274 l 925 136 l 1164 136 l 1164 0 l 725 0 z "},"¾":{"ha":1174,"x_min":61,"x_max":1161,"o":"m 246 386 q 61 433 147 386 l 61 563 q 151 519 106 536 q 244 501 196 501 q 342 574 342 501 q 318 624 342 601 q 229 646 294 646 l 153 646 l 153 754 l 215 754 q 306 777 286 754 q 326 828 326 800 q 310 871 326 854 q 258 888 293 888 q 198 875 226 888 q 131 835 169 863 l 63 931 q 156 983 104 963 q 276 1004 207 1004 q 417 962 361 1004 q 472 847 472 919 q 445 766 472 800 q 357 713 418 732 l 357 704 q 459 651 426 690 q 492 563 492 611 q 432 433 492 481 q 246 386 372 386 m 265 0 l 815 992 l 978 992 l 428 0 l 265 0 m 915 0 l 915 103 l 656 103 l 656 207 l 917 599 l 1076 599 l 1076 217 l 1161 217 l 1161 103 l 1076 103 l 1076 0 l 915 0 m 781 217 l 915 217 l 915 328 q 919 453 915 386 q 896 400 913 435 q 867 346 879 365 l 781 217 z "},"¿":{"ha":663,"x_min":38,"x_max":663,"o":"m 501 642 q 467 552 501 578 q 382 526 432 526 q 299 552 335 526 q 264 642 264 578 q 299 730 264 703 q 382 757 335 757 q 467 730 432 757 q 501 642 501 703 m 479 360 q 450 244 479 292 q 350 144 421 196 q 260 67 288 100 q 233 -10 233 35 q 266 -76 233 -53 q 357 -100 299 -100 q 472 -82 415 -100 q 589 -33 529 -64 l 663 -182 q 515 -243 594 -219 q 342 -267 436 -267 q 117 -197 197 -267 q 38 -21 38 -128 q 56 78 38 36 q 110 156 74 119 q 200 231 146 192 q 263 281 242 261 q 292 322 285 301 q 300 369 300 342 l 300 410 l 479 410 l 479 360 z "},"À":{"ha":958,"x_min":0,"x_max":958,"o":"m 732 0 l 660 236 l 299 236 l 226 0 l 0 0 l 350 996 l 607 996 l 958 0 l 732 0 m 538 643 q 519 703 531 667 q 497 776 508 739 q 479 842 486 814 q 460 773 472 814 q 438 695 449 732 q 422 643 428 658 l 351 413 l 610 413 l 538 643 m 460 1297 q 509 1228 481 1267 q 567 1155 538 1190 q 619 1093 597 1119 l 619 1075 l 482 1075 q 420 1120 456 1093 q 348 1178 385 1147 q 279 1236 311 1208 q 228 1283 247 1264 l 228 1297 l 460 1297 z "},"Á":{"ha":958,"x_min":0,"x_max":958,"o":"m 732 0 l 660 236 l 299 236 l 226 0 l 0 0 l 350 996 l 607 996 l 958 0 l 732 0 m 538 643 q 519 703 531 667 q 497 776 508 739 q 479 842 486 814 q 460 773 472 814 q 438 695 449 732 q 422 643 428 658 l 351 413 l 610 413 l 538 643 m 772 1283 q 721 1236 753 1264 q 652 1178 689 1208 q 580 1120 615 1147 q 518 1075 544 1093 l 381 1075 l 381 1093 q 433 1155 403 1119 q 492 1228 463 1190 q 540 1297 521 1267 l 772 1297 l 772 1283 z "},"Â":{"ha":958,"x_min":0,"x_max":958,"o":"m 732 0 l 660 236 l 299 236 l 226 0 l 0 0 l 350 996 l 607 996 l 958 0 l 732 0 m 538 643 q 519 703 531 667 q 497 776 508 739 q 479 842 486 814 q 460 773 472 814 q 438 695 449 732 q 422 643 428 658 l 351 413 l 610 413 l 538 643 m 600 1297 q 651 1228 619 1267 q 715 1154 682 1190 q 774 1093 749 1118 l 774 1075 l 636 1075 q 557 1127 600 1097 q 478 1194 514 1157 q 400 1128 442 1157 q 322 1075 358 1099 l 185 1075 l 185 1093 q 244 1155 211 1119 q 308 1228 276 1190 q 358 1297 339 1267 l 600 1297 z "},"Ã":{"ha":958,"x_min":0,"x_max":958,"o":"m 732 0 l 660 236 l 299 236 l 226 0 l 0 0 l 350 996 l 607 996 l 958 0 l 732 0 m 538 643 q 519 703 531 667 q 497 776 508 739 q 479 842 486 814 q 460 773 472 814 q 438 695 449 732 q 422 643 428 658 l 351 413 l 610 413 l 538 643 m 199 1074 q 259 1233 207 1182 q 383 1283 311 1283 q 456 1265 421 1283 q 526 1230 492 1247 q 592 1213 560 1213 q 632 1231 613 1213 q 660 1285 651 1249 l 761 1285 q 700 1126 753 1178 q 576 1075 647 1075 q 505 1092 540 1075 q 435 1128 469 1110 q 368 1146 401 1146 q 328 1128 347 1146 q 300 1074 308 1110 l 199 1074 z "},"Ä":{"ha":958,"x_min":0,"x_max":958,"o":"m 732 0 l 660 236 l 299 236 l 226 0 l 0 0 l 350 996 l 607 996 l 958 0 l 732 0 m 538 643 q 519 703 531 667 q 497 776 508 739 q 479 842 486 814 q 460 773 472 814 q 438 695 449 732 q 422 643 428 658 l 351 413 l 610 413 l 538 643 m 246 1186 q 274 1256 246 1235 q 340 1278 301 1278 q 408 1256 379 1278 q 436 1186 436 1235 q 408 1118 436 1140 q 340 1096 379 1096 q 274 1118 301 1096 q 246 1186 246 1140 m 519 1186 q 547 1256 519 1235 q 615 1278 575 1278 q 683 1256 654 1278 q 711 1186 711 1235 q 683 1118 711 1140 q 615 1096 654 1096 q 547 1118 575 1096 q 519 1186 519 1140 z "},"Å":{"ha":958,"x_min":0,"x_max":958,"o":"m 732 0 l 660 236 l 299 236 l 226 0 l 0 0 l 350 996 l 607 996 l 958 0 l 732 0 m 538 643 q 519 703 531 667 q 497 776 508 739 q 479 842 486 814 q 460 773 472 814 q 438 695 449 732 q 422 643 428 658 l 351 413 l 610 413 l 538 643 m 478 900 q 356 943 403 900 q 310 1061 310 986 q 356 1179 310 1136 q 478 1222 403 1222 q 600 1179 550 1222 q 650 1063 650 1136 q 601 943 650 986 q 478 900 551 900 m 478 996 q 524 1013 506 996 q 543 1061 543 1031 q 524 1109 543 1092 q 478 1126 506 1126 q 431 1109 450 1126 q 413 1061 413 1092 q 429 1013 413 1031 q 478 996 446 996 z "},"Æ":{"ha":1322,"x_min":0,"x_max":1240,"o":"m 1240 0 l 649 0 l 649 236 l 315 236 l 214 0 l 0 0 l 444 992 l 1240 992 l 1240 819 l 858 819 l 858 601 l 1215 601 l 1215 429 l 858 429 l 858 174 l 1240 174 l 1240 0 m 392 413 l 649 413 l 649 813 l 563 813 l 392 413 z "},"Ç":{"ha":885,"x_min":81,"x_max":836,"o":"m 546 831 q 361 740 425 831 q 297 493 297 650 q 356 248 297 335 q 546 161 415 161 q 667 175 607 161 q 799 214 728 189 l 799 38 q 669 -1 733 11 q 526 -14 606 -14 q 274 49 374 -14 q 128 227 175 113 q 81 494 81 342 q 135 760 81 644 q 292 940 189 875 q 546 1006 396 1006 q 694 987 619 1006 q 836 936 768 968 l 768 765 q 656 811 713 792 q 546 831 600 831 m 675 -169 q 630 -290 675 -247 q 465 -333 585 -333 q 410 -329 435 -333 q 367 -319 386 -325 l 367 -206 q 415 -215 386 -211 q 464 -219 443 -219 q 498 -210 483 -219 q 513 -178 513 -201 q 488 -133 513 -153 q 400 -104 463 -114 l 453 0 l 583 0 l 565 -42 q 641 -87 607 -56 q 675 -169 675 -118 z "},"È":{"ha":778,"x_min":125,"x_max":696,"o":"m 696 0 l 125 0 l 125 992 l 696 992 l 696 819 l 335 819 l 335 601 l 671 601 l 671 429 l 335 429 l 335 174 l 696 174 l 696 0 m 399 1297 q 448 1228 419 1267 q 506 1155 476 1190 q 558 1093 536 1119 l 558 1075 l 421 1075 q 359 1120 394 1093 q 287 1178 324 1147 q 218 1236 250 1208 q 167 1283 186 1264 l 167 1297 l 399 1297 z "},"É":{"ha":778,"x_min":125,"x_max":711,"o":"m 696 0 l 125 0 l 125 992 l 696 992 l 696 819 l 335 819 l 335 601 l 671 601 l 671 429 l 335 429 l 335 174 l 696 174 l 696 0 m 711 1283 q 660 1236 692 1264 q 591 1178 628 1208 q 519 1120 554 1147 q 457 1075 483 1093 l 319 1075 l 319 1093 q 372 1155 342 1119 q 431 1228 401 1190 q 479 1297 460 1267 l 711 1297 l 711 1283 z "},"Ê":{"ha":778,"x_min":124,"x_max":713,"o":"m 696 0 l 125 0 l 125 992 l 696 992 l 696 819 l 335 819 l 335 601 l 671 601 l 671 429 l 335 429 l 335 174 l 696 174 l 696 0 m 539 1297 q 590 1228 558 1267 q 654 1154 621 1190 q 713 1093 688 1118 l 713 1075 l 575 1075 q 496 1127 539 1097 q 417 1194 453 1157 q 339 1128 381 1157 q 261 1075 297 1099 l 124 1075 l 124 1093 q 183 1155 150 1119 q 247 1228 215 1190 q 297 1297 278 1267 l 539 1297 z "},"Ë":{"ha":778,"x_min":125,"x_max":696,"o":"m 696 0 l 125 0 l 125 992 l 696 992 l 696 819 l 335 819 l 335 601 l 671 601 l 671 429 l 335 429 l 335 174 l 696 174 l 696 0 m 185 1186 q 213 1256 185 1235 q 279 1278 240 1278 q 347 1256 318 1278 q 375 1186 375 1235 q 347 1118 375 1140 q 279 1096 318 1096 q 213 1118 240 1096 q 185 1186 185 1140 m 458 1186 q 486 1256 458 1235 q 554 1278 514 1278 q 622 1256 593 1278 q 650 1186 650 1235 q 622 1118 650 1140 q 554 1096 593 1096 q 486 1118 514 1096 q 458 1186 458 1140 z "},"Ì":{"ha":540,"x_min":19,"x_max":496,"o":"m 496 0 l 44 0 l 44 119 l 165 175 l 165 817 l 44 872 l 44 992 l 496 992 l 496 872 l 375 817 l 375 175 l 496 119 l 496 0 m 251 1297 q 301 1228 272 1267 q 359 1155 329 1190 q 411 1093 389 1119 l 411 1075 l 274 1075 q 212 1120 247 1093 q 140 1178 176 1147 q 71 1236 103 1208 q 19 1283 39 1264 l 19 1297 l 251 1297 z "},"Í":{"ha":540,"x_min":44,"x_max":564,"o":"m 496 0 l 44 0 l 44 119 l 165 175 l 165 817 l 44 872 l 44 992 l 496 992 l 496 872 l 375 817 l 375 175 l 496 119 l 496 0 m 564 1283 q 513 1236 544 1264 q 444 1178 481 1208 q 372 1120 407 1147 q 310 1075 336 1093 l 172 1075 l 172 1093 q 224 1155 194 1119 q 283 1228 254 1190 q 332 1297 313 1267 l 564 1297 l 564 1283 z "},"Î":{"ha":540,"x_min":-24,"x_max":565,"o":"m 496 0 l 44 0 l 44 119 l 165 175 l 165 817 l 44 872 l 44 992 l 496 992 l 496 872 l 375 817 l 375 175 l 496 119 l 496 0 m 392 1297 q 442 1228 411 1267 q 507 1154 474 1190 q 565 1093 540 1118 l 565 1075 l 428 1075 q 349 1127 392 1097 q 269 1194 306 1157 q 192 1128 233 1157 q 114 1075 150 1099 l -24 1075 l -24 1093 q 35 1155 3 1119 q 99 1228 68 1190 q 150 1297 131 1267 l 392 1297 z "},"Ï":{"ha":540,"x_min":38,"x_max":503,"o":"m 496 0 l 44 0 l 44 119 l 165 175 l 165 817 l 44 872 l 44 992 l 496 992 l 496 872 l 375 817 l 375 175 l 496 119 l 496 0 m 38 1186 q 65 1256 38 1235 q 132 1278 93 1278 q 199 1256 171 1278 q 228 1186 228 1235 q 199 1118 228 1140 q 132 1096 171 1096 q 65 1118 93 1096 q 38 1186 38 1140 m 311 1186 q 339 1256 311 1235 q 407 1278 367 1278 q 474 1256 446 1278 q 503 1186 503 1235 q 474 1118 503 1140 q 407 1096 446 1096 q 339 1118 367 1096 q 311 1186 311 1140 z "},"Ð":{"ha":1028,"x_min":32,"x_max":947,"o":"m 436 992 q 706 936 592 992 q 884 773 821 881 q 947 506 947 665 q 805 127 947 254 q 406 0 663 0 l 125 0 l 125 404 l 32 404 l 32 576 l 125 576 l 125 992 l 436 992 m 446 819 l 335 819 l 335 576 l 496 576 l 496 404 l 335 404 l 335 174 l 424 174 q 729 500 729 174 q 656 742 729 665 q 446 819 582 819 z "},"Ñ":{"ha":1129,"x_min":125,"x_max":1004,"o":"m 1004 0 l 738 0 l 306 750 l 300 750 q 306 608 303 679 q 313 467 310 538 l 313 0 l 125 0 l 125 992 l 390 992 l 821 249 l 825 249 q 821 386 824 318 q 815 522 818 454 l 815 992 l 1004 992 l 1004 0 m 285 1074 q 345 1233 293 1182 q 469 1283 397 1283 q 542 1265 507 1283 q 612 1230 578 1247 q 678 1213 646 1213 q 718 1231 699 1213 q 746 1285 738 1249 l 847 1285 q 786 1126 839 1178 q 663 1075 733 1075 q 591 1092 626 1075 q 522 1128 556 1110 q 454 1146 488 1146 q 414 1128 433 1146 q 386 1074 394 1110 l 285 1074 z "},"Ò":{"ha":1106,"x_min":81,"x_max":1025,"o":"m 1025 497 q 974 228 1025 343 q 819 50 924 114 q 553 -14 715 -14 q 287 50 392 -14 q 131 229 182 114 q 81 499 81 344 q 131 767 81 653 q 287 944 182 881 q 554 1007 392 1007 q 819 944 715 1007 q 974 766 924 881 q 1025 497 1025 651 m 301 497 q 361 252 301 342 q 553 163 421 163 q 746 252 688 163 q 804 497 804 342 q 746 743 804 654 q 554 832 688 832 q 361 743 421 832 q 301 497 301 654 m 533 1297 q 583 1228 554 1267 q 641 1155 611 1190 q 693 1093 671 1119 l 693 1075 l 556 1075 q 494 1120 529 1093 q 422 1178 458 1147 q 353 1236 385 1208 q 301 1283 321 1264 l 301 1297 l 533 1297 z "},"Ó":{"ha":1106,"x_min":81,"x_max":1025,"o":"m 1025 497 q 974 228 1025 343 q 819 50 924 114 q 553 -14 715 -14 q 287 50 392 -14 q 131 229 182 114 q 81 499 81 344 q 131 767 81 653 q 287 944 182 881 q 554 1007 392 1007 q 819 944 715 1007 q 974 766 924 881 q 1025 497 1025 651 m 301 497 q 361 252 301 342 q 553 163 421 163 q 746 252 688 163 q 804 497 804 342 q 746 743 804 654 q 554 832 688 832 q 361 743 421 832 q 301 497 301 654 m 846 1283 q 794 1236 826 1264 q 726 1178 763 1208 q 653 1120 689 1147 q 592 1075 618 1093 l 454 1075 l 454 1093 q 506 1155 476 1119 q 565 1228 536 1190 q 614 1297 594 1267 l 846 1297 l 846 1283 z "},"Ô":{"ha":1106,"x_min":81,"x_max":1025,"o":"m 1025 497 q 974 228 1025 343 q 819 50 924 114 q 553 -14 715 -14 q 287 50 392 -14 q 131 229 182 114 q 81 499 81 344 q 131 767 81 653 q 287 944 182 881 q 554 1007 392 1007 q 819 944 715 1007 q 974 766 924 881 q 1025 497 1025 651 m 301 497 q 361 252 301 342 q 553 163 421 163 q 746 252 688 163 q 804 497 804 342 q 746 743 804 654 q 554 832 688 832 q 361 743 421 832 q 301 497 301 654 m 674 1297 q 724 1228 693 1267 q 789 1154 756 1190 q 847 1093 822 1118 l 847 1075 l 710 1075 q 631 1127 674 1097 q 551 1194 588 1157 q 474 1128 515 1157 q 396 1075 432 1099 l 258 1075 l 258 1093 q 317 1155 285 1119 q 381 1228 350 1190 q 432 1297 413 1267 l 674 1297 z "},"Õ":{"ha":1106,"x_min":81,"x_max":1025,"o":"m 1025 497 q 974 228 1025 343 q 819 50 924 114 q 553 -14 715 -14 q 287 50 392 -14 q 131 229 182 114 q 81 499 81 344 q 131 767 81 653 q 287 944 182 881 q 554 1007 392 1007 q 819 944 715 1007 q 974 766 924 881 q 1025 497 1025 651 m 301 497 q 361 252 301 342 q 553 163 421 163 q 746 252 688 163 q 804 497 804 342 q 746 743 804 654 q 554 832 688 832 q 361 743 421 832 q 301 497 301 654 m 272 1074 q 333 1233 281 1182 q 457 1283 385 1283 q 530 1265 494 1283 q 599 1230 565 1247 q 665 1213 633 1213 q 706 1231 686 1213 q 733 1285 725 1249 l 835 1285 q 774 1126 826 1178 q 650 1075 721 1075 q 578 1092 614 1075 q 509 1128 543 1110 q 442 1146 475 1146 q 401 1128 421 1146 q 374 1074 382 1110 l 272 1074 z "},"Ö":{"ha":1106,"x_min":81,"x_max":1025,"o":"m 1025 497 q 974 228 1025 343 q 819 50 924 114 q 553 -14 715 -14 q 287 50 392 -14 q 131 229 182 114 q 81 499 81 344 q 131 767 81 653 q 287 944 182 881 q 554 1007 392 1007 q 819 944 715 1007 q 974 766 924 881 q 1025 497 1025 651 m 301 497 q 361 252 301 342 q 553 163 421 163 q 746 252 688 163 q 804 497 804 342 q 746 743 804 654 q 554 832 688 832 q 361 743 421 832 q 301 497 301 654 m 319 1186 q 347 1256 319 1235 q 414 1278 375 1278 q 481 1256 453 1278 q 510 1186 510 1235 q 481 1118 510 1140 q 414 1096 453 1096 q 347 1118 375 1096 q 319 1186 319 1140 m 593 1186 q 621 1256 593 1235 q 689 1278 649 1278 q 756 1256 728 1278 q 785 1186 785 1235 q 756 1118 785 1140 q 689 1096 728 1096 q 621 1118 649 1096 q 593 1186 593 1140 z "},"×":{"ha":794,"x_min":88,"x_max":706,"o":"m 601 799 l 706 697 l 499 490 l 703 285 l 601 182 l 394 386 l 190 183 l 89 286 l 290 490 l 88 694 l 190 799 l 394 596 l 601 799 z "},"Ø":{"ha":1106,"x_min":81,"x_max":1025,"o":"m 1025 497 q 974 228 1025 343 q 819 50 924 114 q 553 -14 715 -14 q 325 31 421 -14 l 264 -61 l 154 13 l 215 104 q 114 272 147 172 q 81 499 81 372 q 131 767 81 653 q 287 944 182 881 q 554 1007 392 1007 q 682 995 624 1007 q 788 960 740 983 l 844 1044 l 953 974 l 893 885 q 992 719 960 818 q 1025 497 1025 621 m 301 497 q 310 382 301 435 q 339 289 319 329 l 682 801 q 554 832 628 832 q 361 743 421 832 q 301 497 301 654 m 804 497 q 769 699 804 621 l 431 189 q 486 169 456 176 q 553 163 517 163 q 746 252 688 163 q 804 497 804 342 z "},"Ù":{"ha":1050,"x_min":118,"x_max":932,"o":"m 932 350 q 887 165 932 247 q 751 34 842 82 q 521 -14 660 -14 q 221 87 324 -14 q 118 353 118 188 l 118 992 l 328 992 l 328 385 q 378 213 328 263 q 526 163 428 163 q 676 217 629 163 q 722 386 722 271 l 722 992 l 932 992 l 932 350 m 506 1297 q 555 1228 526 1267 q 613 1155 583 1190 q 665 1093 643 1119 l 665 1075 l 528 1075 q 466 1120 501 1093 q 394 1178 431 1147 q 325 1236 357 1208 q 274 1283 293 1264 l 274 1297 l 506 1297 z "},"Ú":{"ha":1050,"x_min":118,"x_max":932,"o":"m 932 350 q 887 165 932 247 q 751 34 842 82 q 521 -14 660 -14 q 221 87 324 -14 q 118 353 118 188 l 118 992 l 328 992 l 328 385 q 378 213 328 263 q 526 163 428 163 q 676 217 629 163 q 722 386 722 271 l 722 992 l 932 992 l 932 350 m 818 1283 q 767 1236 799 1264 q 698 1178 735 1208 q 626 1120 661 1147 q 564 1075 590 1093 l 426 1075 l 426 1093 q 478 1155 449 1119 q 538 1228 508 1190 q 586 1297 567 1267 l 818 1297 l 818 1283 z "},"Û":{"ha":1050,"x_min":118,"x_max":932,"o":"m 932 350 q 887 165 932 247 q 751 34 842 82 q 521 -14 660 -14 q 221 87 324 -14 q 118 353 118 188 l 118 992 l 328 992 l 328 385 q 378 213 328 263 q 526 163 428 163 q 676 217 629 163 q 722 386 722 271 l 722 992 l 932 992 l 932 350 m 646 1297 q 697 1228 665 1267 q 761 1154 728 1190 q 819 1093 794 1118 l 819 1075 l 682 1075 q 603 1127 646 1097 q 524 1194 560 1157 q 446 1128 488 1157 q 368 1075 404 1099 l 231 1075 l 231 1093 q 290 1155 257 1119 q 353 1228 322 1190 q 404 1297 385 1267 l 646 1297 z "},"Ü":{"ha":1050,"x_min":118,"x_max":932,"o":"m 932 350 q 887 165 932 247 q 751 34 842 82 q 521 -14 660 -14 q 221 87 324 -14 q 118 353 118 188 l 118 992 l 328 992 l 328 385 q 378 213 328 263 q 526 163 428 163 q 676 217 629 163 q 722 386 722 271 l 722 992 l 932 992 l 932 350 m 292 1186 q 319 1256 292 1235 q 386 1278 347 1278 q 453 1256 425 1278 q 482 1186 482 1235 q 453 1118 482 1140 q 386 1096 425 1096 q 319 1118 347 1096 q 292 1186 292 1140 m 565 1186 q 593 1256 565 1235 q 661 1278 621 1278 q 728 1256 700 1278 q 757 1186 757 1235 q 728 1118 757 1140 q 661 1096 700 1096 q 593 1118 621 1096 q 565 1186 565 1140 z "},"Ý":{"ha":867,"x_min":0,"x_max":867,"o":"m 433 583 l 640 992 l 867 992 l 538 386 l 538 0 l 329 0 l 329 379 l 0 992 l 228 992 l 433 583 m 726 1283 q 675 1236 707 1264 q 606 1178 643 1208 q 534 1120 569 1147 q 472 1075 499 1093 l 335 1075 l 335 1093 q 387 1155 357 1119 q 446 1228 417 1190 q 494 1297 475 1267 l 726 1297 l 726 1283 z "},"Þ":{"ha":872,"x_min":125,"x_max":810,"o":"m 810 522 q 775 364 810 438 q 659 244 740 290 q 439 199 578 199 l 335 199 l 335 0 l 125 0 l 125 992 l 335 992 l 335 836 l 456 836 q 724 751 639 836 q 810 522 810 665 m 403 368 q 549 404 501 368 q 597 522 597 440 q 554 631 597 596 q 419 665 511 665 l 335 665 l 335 368 l 403 368 z "},"ß":{"ha":988,"x_min":108,"x_max":939,"o":"m 847 842 q 828 753 847 790 q 779 688 808 715 q 721 639 750 660 q 672 601 692 618 q 653 565 653 583 q 685 517 653 539 q 794 446 717 496 q 901 353 863 403 q 939 221 939 303 q 859 46 939 106 q 626 -14 779 -14 q 421 29 497 -14 l 421 193 q 509 153 453 171 q 613 135 565 135 q 697 156 667 135 q 726 218 726 176 q 717 260 726 243 q 680 299 707 278 q 599 350 653 319 q 481 439 514 399 q 447 535 447 479 q 466 608 447 578 q 513 661 485 639 q 570 704 542 683 q 617 749 599 725 q 636 806 636 772 q 592 875 636 849 q 482 901 547 901 q 363 868 410 901 q 315 765 315 835 l 315 0 l 108 0 l 108 772 q 158 935 108 871 q 292 1031 207 1000 q 482 1063 376 1063 q 669 1037 586 1063 q 799 962 751 1011 q 847 842 847 913 z "},"à":{"ha":839,"x_min":58,"x_max":735,"o":"m 419 774 q 653 708 572 774 q 735 506 735 642 l 735 0 l 590 0 l 550 103 l 544 103 q 442 14 496 42 q 293 -14 388 -14 q 125 45 192 -14 q 58 226 58 104 q 143 405 58 347 q 397 468 228 463 l 529 472 l 529 506 q 498 593 529 565 q 411 621 467 621 q 303 605 356 621 q 197 565 250 589 l 129 706 q 265 756 190 738 q 419 774 339 774 m 449 349 q 310 313 349 346 q 271 225 271 279 q 299 158 271 178 q 371 138 326 138 q 483 177 438 138 q 529 289 529 217 l 529 351 l 449 349 m 400 1064 q 449 995 421 1033 q 508 922 478 957 q 560 860 538 886 l 560 842 l 422 842 q 360 887 396 860 q 288 944 325 914 q 219 1003 251 975 q 168 1050 188 1031 l 168 1064 l 400 1064 z "},"á":{"ha":839,"x_min":58,"x_max":735,"o":"m 419 774 q 653 708 572 774 q 735 506 735 642 l 735 0 l 590 0 l 550 103 l 544 103 q 442 14 496 42 q 293 -14 388 -14 q 125 45 192 -14 q 58 226 58 104 q 143 405 58 347 q 397 468 228 463 l 529 472 l 529 506 q 498 593 529 565 q 411 621 467 621 q 303 605 356 621 q 197 565 250 589 l 129 706 q 265 756 190 738 q 419 774 339 774 m 449 349 q 310 313 349 346 q 271 225 271 279 q 299 158 271 178 q 371 138 326 138 q 483 177 438 138 q 529 289 529 217 l 529 351 l 449 349 m 713 1050 q 661 1003 693 1031 q 592 944 629 975 q 520 887 556 914 q 458 842 485 860 l 321 842 l 321 860 q 373 922 343 886 q 432 995 403 957 q 481 1064 461 1033 l 713 1064 l 713 1050 z "},"â":{"ha":839,"x_min":58,"x_max":735,"o":"m 419 774 q 653 708 572 774 q 735 506 735 642 l 735 0 l 590 0 l 550 103 l 544 103 q 442 14 496 42 q 293 -14 388 -14 q 125 45 192 -14 q 58 226 58 104 q 143 405 58 347 q 397 468 228 463 l 529 472 l 529 506 q 498 593 529 565 q 411 621 467 621 q 303 605 356 621 q 197 565 250 589 l 129 706 q 265 756 190 738 q 419 774 339 774 m 449 349 q 310 313 349 346 q 271 225 271 279 q 299 158 271 178 q 371 138 326 138 q 483 177 438 138 q 529 289 529 217 l 529 351 l 449 349 m 540 1064 q 591 995 560 1033 q 656 921 622 957 q 714 860 689 885 l 714 842 l 576 842 q 497 894 540 864 q 418 961 454 924 q 340 894 382 924 q 263 842 299 865 l 125 842 l 125 860 q 184 922 151 886 q 248 995 217 957 q 299 1064 279 1033 l 540 1064 z "},"ã":{"ha":839,"x_min":58,"x_max":735,"o":"m 419 774 q 653 708 572 774 q 735 506 735 642 l 735 0 l 590 0 l 550 103 l 544 103 q 442 14 496 42 q 293 -14 388 -14 q 125 45 192 -14 q 58 226 58 104 q 143 405 58 347 q 397 468 228 463 l 529 472 l 529 506 q 498 593 529 565 q 411 621 467 621 q 303 605 356 621 q 197 565 250 589 l 129 706 q 265 756 190 738 q 419 774 339 774 m 449 349 q 310 313 349 346 q 271 225 271 279 q 299 158 271 178 q 371 138 326 138 q 483 177 438 138 q 529 289 529 217 l 529 351 l 449 349 m 139 840 q 199 999 147 949 q 324 1050 251 1050 q 397 1032 361 1050 q 466 997 432 1014 q 532 979 500 979 q 572 997 553 979 q 600 1051 592 1015 l 701 1051 q 640 893 693 944 q 517 842 588 842 q 445 859 481 842 q 376 894 410 876 q 308 913 342 913 q 268 894 288 913 q 240 840 249 876 l 139 840 z "},"ä":{"ha":839,"x_min":58,"x_max":735,"o":"m 419 774 q 653 708 572 774 q 735 506 735 642 l 735 0 l 590 0 l 550 103 l 544 103 q 442 14 496 42 q 293 -14 388 -14 q 125 45 192 -14 q 58 226 58 104 q 143 405 58 347 q 397 468 228 463 l 529 472 l 529 506 q 498 593 529 565 q 411 621 467 621 q 303 605 356 621 q 197 565 250 589 l 129 706 q 265 756 190 738 q 419 774 339 774 m 449 349 q 310 313 349 346 q 271 225 271 279 q 299 158 271 178 q 371 138 326 138 q 483 177 438 138 q 529 289 529 217 l 529 351 l 449 349 m 186 953 q 214 1023 186 1001 q 281 1044 242 1044 q 348 1023 319 1044 q 376 953 376 1001 q 348 885 376 907 q 281 863 319 863 q 214 885 242 863 q 186 953 186 907 m 460 953 q 488 1023 460 1001 q 556 1044 515 1044 q 623 1023 594 1044 q 651 953 651 1001 q 623 885 651 907 q 556 863 594 863 q 488 885 515 863 q 460 953 460 907 z "},"å":{"ha":839,"x_min":58,"x_max":735,"o":"m 419 774 q 653 708 572 774 q 735 506 735 642 l 735 0 l 590 0 l 550 103 l 544 103 q 442 14 496 42 q 293 -14 388 -14 q 125 45 192 -14 q 58 226 58 104 q 143 405 58 347 q 397 468 228 463 l 529 472 l 529 506 q 498 593 529 565 q 411 621 467 621 q 303 605 356 621 q 197 565 250 589 l 129 706 q 265 756 190 738 q 419 774 339 774 m 449 349 q 310 313 349 346 q 271 225 271 279 q 299 158 271 178 q 371 138 326 138 q 483 177 438 138 q 529 289 529 217 l 529 351 l 449 349 m 417 840 q 295 883 342 840 q 249 1001 249 926 q 295 1119 249 1076 q 417 1163 342 1163 q 539 1119 489 1163 q 589 1003 589 1076 q 540 883 589 926 q 417 840 490 840 m 417 936 q 463 953 444 936 q 482 1001 482 971 q 463 1049 482 1032 q 417 1067 444 1067 q 370 1049 389 1067 q 351 1001 351 1032 q 368 953 351 971 q 417 936 385 936 z "},"æ":{"ha":1274,"x_min":58,"x_max":1214,"o":"m 890 772 q 1059 732 986 772 q 1173 615 1132 692 q 1214 428 1214 539 l 1214 328 l 724 328 q 776 190 726 240 q 913 140 825 140 q 1171 200 1046 140 l 1171 40 q 1053 -1 1114 13 q 901 -14 992 -14 q 732 21 808 -14 q 607 126 656 56 q 526 47 567 78 q 432 1 485 15 q 300 -14 379 -14 q 180 12 235 -14 q 92 91 125 38 q 58 226 58 144 q 140 405 58 347 q 386 468 222 463 l 515 472 l 515 529 q 485 599 515 576 q 403 621 456 621 q 298 606 349 621 q 196 568 247 592 l 129 706 q 263 756 189 738 q 415 774 336 774 q 647 685 568 774 q 751 751 692 729 q 890 772 810 772 m 886 625 q 776 586 818 625 q 728 465 735 547 l 1019 465 q 985 580 1018 535 q 886 625 951 625 m 439 349 q 308 313 344 346 q 271 225 271 279 q 297 158 271 178 q 365 138 322 138 q 472 177 429 138 q 515 289 515 217 l 515 351 l 439 349 z "},"ç":{"ha":714,"x_min":63,"x_max":671,"o":"m 417 -14 q 155 80 247 -14 q 63 375 63 174 q 110 601 63 514 q 241 731 157 689 q 435 772 325 772 q 570 757 513 772 q 671 721 628 742 l 610 561 q 519 593 561 581 q 435 606 476 606 q 274 376 274 606 q 316 208 274 263 q 435 154 358 154 q 550 172 500 154 q 647 219 600 189 l 647 43 q 548 -1 600 13 q 417 -14 496 -14 m 565 -169 q 520 -290 565 -247 q 356 -333 475 -333 q 301 -329 325 -333 q 257 -319 276 -325 l 257 -206 q 305 -215 276 -211 q 354 -219 333 -219 q 388 -210 374 -219 q 403 -178 403 -201 q 378 -133 403 -153 q 290 -104 353 -114 l 343 0 l 474 0 l 456 -42 q 531 -87 497 -56 q 565 -169 565 -118 z "},"è":{"ha":821,"x_min":63,"x_max":761,"o":"m 421 772 q 669 683 578 772 q 761 428 761 593 l 761 328 l 272 328 q 324 190 275 240 q 461 140 374 140 q 594 155 535 140 q 718 200 654 169 l 718 40 q 601 -1 663 13 q 451 -14 539 -14 q 250 28 338 -14 q 113 157 163 71 q 63 374 63 243 q 108 595 63 507 q 233 728 153 683 q 421 772 314 772 m 422 625 q 323 586 363 625 q 276 465 283 547 l 567 465 q 531 580 565 535 q 422 625 496 625 m 392 1064 q 441 995 413 1033 q 499 922 469 957 q 551 860 529 886 l 551 842 l 414 842 q 352 887 388 860 q 280 944 317 914 q 211 1003 243 975 q 160 1050 179 1031 l 160 1064 l 392 1064 z "},"é":{"ha":821,"x_min":63,"x_max":761,"o":"m 421 772 q 669 683 578 772 q 761 428 761 593 l 761 328 l 272 328 q 324 190 275 240 q 461 140 374 140 q 594 155 535 140 q 718 200 654 169 l 718 40 q 601 -1 663 13 q 451 -14 539 -14 q 250 28 338 -14 q 113 157 163 71 q 63 374 63 243 q 108 595 63 507 q 233 728 153 683 q 421 772 314 772 m 422 625 q 323 586 363 625 q 276 465 283 547 l 567 465 q 531 580 565 535 q 422 625 496 625 m 704 1050 q 653 1003 685 1031 q 584 944 621 975 q 512 887 547 914 q 450 842 476 860 l 313 842 l 313 860 q 365 922 335 886 q 424 995 394 957 q 472 1064 453 1033 l 704 1064 l 704 1050 z "},"ê":{"ha":821,"x_min":63,"x_max":761,"o":"m 421 772 q 669 683 578 772 q 761 428 761 593 l 761 328 l 272 328 q 324 190 275 240 q 461 140 374 140 q 594 155 535 140 q 718 200 654 169 l 718 40 q 601 -1 663 13 q 451 -14 539 -14 q 250 28 338 -14 q 113 157 163 71 q 63 374 63 243 q 108 595 63 507 q 233 728 153 683 q 421 772 314 772 m 422 625 q 323 586 363 625 q 276 465 283 547 l 567 465 q 531 580 565 535 q 422 625 496 625 m 532 1064 q 583 995 551 1033 q 647 921 614 957 q 706 860 681 885 l 706 842 l 568 842 q 489 894 532 864 q 410 961 446 924 q 332 894 374 924 q 254 842 290 865 l 117 842 l 117 860 q 176 922 143 886 q 240 995 208 957 q 290 1064 271 1033 l 532 1064 z "},"ë":{"ha":821,"x_min":63,"x_max":761,"o":"m 421 772 q 669 683 578 772 q 761 428 761 593 l 761 328 l 272 328 q 324 190 275 240 q 461 140 374 140 q 594 155 535 140 q 718 200 654 169 l 718 40 q 601 -1 663 13 q 451 -14 539 -14 q 250 28 338 -14 q 113 157 163 71 q 63 374 63 243 q 108 595 63 507 q 233 728 153 683 q 421 772 314 772 m 422 625 q 323 586 363 625 q 276 465 283 547 l 567 465 q 531 580 565 535 q 422 625 496 625 m 178 953 q 206 1023 178 1001 q 272 1044 233 1044 q 340 1023 311 1044 q 368 953 368 1001 q 340 885 368 907 q 272 863 311 863 q 206 885 233 863 q 178 953 178 907 m 451 953 q 479 1023 451 1001 q 547 1044 507 1044 q 615 1023 586 1044 q 643 953 643 1001 q 615 885 643 907 q 547 863 586 863 q 479 885 507 863 q 451 953 451 907 z "},"ì":{"ha":424,"x_min":-39,"x_max":353,"o":"m 315 0 l 108 0 l 108 758 l 315 758 l 315 0 m 193 1064 q 242 995 214 1033 q 301 922 271 957 q 353 860 331 886 l 353 842 l 215 842 q 153 887 189 860 q 81 944 118 914 q 13 1003 44 975 q -39 1050 -19 1031 l -39 1064 l 193 1064 z "},"í":{"ha":424,"x_min":108,"x_max":506,"o":"m 315 0 l 108 0 l 108 758 l 315 758 l 315 0 m 506 1050 q 454 1003 486 1031 q 385 944 422 975 q 313 887 349 914 q 251 842 278 860 l 114 842 l 114 860 q 166 922 136 886 q 225 995 196 957 q 274 1064 254 1033 l 506 1064 l 506 1050 z "},"î":{"ha":424,"x_min":-82,"x_max":507,"o":"m 315 0 l 108 0 l 108 758 l 315 758 l 315 0 m 333 1064 q 384 995 353 1033 q 449 921 415 957 q 507 860 482 885 l 507 842 l 369 842 q 290 894 333 864 q 211 961 247 924 q 133 894 175 924 q 56 842 92 865 l -82 842 l -82 860 q -23 922 -56 886 q 41 995 10 957 q 92 1064 72 1033 l 333 1064 z "},"ï":{"ha":424,"x_min":-21,"x_max":444,"o":"m 315 0 l 108 0 l 108 758 l 315 758 l 315 0 m -21 953 q 7 1023 -21 1001 q 74 1044 35 1044 q 141 1023 113 1044 q 169 953 169 1001 q 141 885 169 907 q 74 863 113 863 q 7 885 35 863 q -21 953 -21 907 m 253 953 q 281 1023 253 1001 q 349 1044 308 1044 q 416 1023 388 1044 q 444 953 444 1001 q 416 885 444 907 q 349 863 388 863 q 281 885 308 863 q 253 953 253 907 z "},"ð":{"ha":860,"x_min":63,"x_max":797,"o":"m 311 1063 q 403 1017 360 1040 q 486 967 447 993 l 639 1061 l 707 957 l 592 886 q 745 674 693 793 q 797 389 797 554 q 697 91 797 196 q 428 -14 597 -14 q 240 26 322 -14 q 110 144 157 67 q 63 332 63 222 q 104 518 63 442 q 219 635 146 594 q 389 675 293 675 q 575 608 528 675 l 581 611 q 526 712 558 667 q 450 799 494 757 l 294 703 l 226 808 l 346 881 q 297 912 322 896 q 243 943 271 928 l 311 1063 m 431 522 q 310 474 346 522 q 274 331 274 426 q 310 192 274 246 q 431 139 347 139 q 550 195 514 139 q 586 361 586 251 q 549 474 586 425 q 431 522 511 522 z "},"ñ":{"ha":913,"x_min":108,"x_max":808,"o":"m 539 772 q 735 706 661 772 q 808 494 808 640 l 808 0 l 601 0 l 601 443 q 572 566 601 525 q 479 607 543 607 q 350 542 385 607 q 315 357 315 478 l 315 0 l 108 0 l 108 758 l 267 758 l 294 661 l 306 661 q 405 746 342 719 q 539 772 468 772 m 176 840 q 237 999 185 949 q 361 1050 289 1050 q 434 1032 399 1050 q 503 997 469 1014 q 569 979 538 979 q 610 997 590 979 q 638 1051 629 1015 l 739 1051 q 678 893 731 944 q 554 842 625 842 q 483 859 518 842 q 413 894 447 876 q 346 913 379 913 q 306 894 325 913 q 278 840 286 876 l 176 840 z "},"ò":{"ha":860,"x_min":63,"x_max":797,"o":"m 797 381 q 698 89 797 192 q 428 -14 599 -14 q 240 32 322 -14 q 110 166 157 78 q 63 381 63 254 q 161 671 63 569 q 432 772 260 772 q 621 726 539 772 q 750 594 703 681 q 797 381 797 507 m 274 381 q 310 210 274 268 q 431 153 347 153 q 549 210 513 153 q 586 381 586 268 q 549 549 586 493 q 429 606 513 606 q 310 549 347 606 q 274 381 274 493 m 411 1064 q 460 995 432 1033 q 519 922 489 957 q 571 860 549 886 l 571 842 l 433 842 q 372 887 407 860 q 299 944 336 914 q 231 1003 263 975 q 179 1050 199 1031 l 179 1064 l 411 1064 z "},"ó":{"ha":860,"x_min":63,"x_max":797,"o":"m 797 381 q 698 89 797 192 q 428 -14 599 -14 q 240 32 322 -14 q 110 166 157 78 q 63 381 63 254 q 161 671 63 569 q 432 772 260 772 q 621 726 539 772 q 750 594 703 681 q 797 381 797 507 m 274 381 q 310 210 274 268 q 431 153 347 153 q 549 210 513 153 q 586 381 586 268 q 549 549 586 493 q 429 606 513 606 q 310 549 347 606 q 274 381 274 493 m 724 1050 q 672 1003 704 1031 q 603 944 640 975 q 531 887 567 914 q 469 842 496 860 l 332 842 l 332 860 q 384 922 354 886 q 443 995 414 957 q 492 1064 472 1033 l 724 1064 l 724 1050 z "},"ô":{"ha":860,"x_min":63,"x_max":797,"o":"m 797 381 q 698 89 797 192 q 428 -14 599 -14 q 240 32 322 -14 q 110 166 157 78 q 63 381 63 254 q 161 671 63 569 q 432 772 260 772 q 621 726 539 772 q 750 594 703 681 q 797 381 797 507 m 274 381 q 310 210 274 268 q 431 153 347 153 q 549 210 513 153 q 586 381 586 268 q 549 549 586 493 q 429 606 513 606 q 310 549 347 606 q 274 381 274 493 m 551 1064 q 602 995 571 1033 q 667 921 633 957 q 725 860 700 885 l 725 842 l 588 842 q 508 894 551 864 q 429 961 465 924 q 351 894 393 924 q 274 842 310 865 l 136 842 l 136 860 q 195 922 163 886 q 259 995 228 957 q 310 1064 290 1033 l 551 1064 z "},"õ":{"ha":860,"x_min":63,"x_max":797,"o":"m 797 381 q 698 89 797 192 q 428 -14 599 -14 q 240 32 322 -14 q 110 166 157 78 q 63 381 63 254 q 161 671 63 569 q 432 772 260 772 q 621 726 539 772 q 750 594 703 681 q 797 381 797 507 m 274 381 q 310 210 274 268 q 431 153 347 153 q 549 210 513 153 q 586 381 586 268 q 549 549 586 493 q 429 606 513 606 q 310 549 347 606 q 274 381 274 493 m 150 840 q 210 999 158 949 q 335 1050 263 1050 q 408 1032 372 1050 q 477 997 443 1014 q 543 979 511 979 q 583 997 564 979 q 611 1051 603 1015 l 713 1051 q 651 893 704 944 q 528 842 599 842 q 456 859 492 842 q 387 894 421 876 q 319 913 353 913 q 279 894 299 913 q 251 840 260 876 l 150 840 z "},"ö":{"ha":860,"x_min":63,"x_max":797,"o":"m 797 381 q 698 89 797 192 q 428 -14 599 -14 q 240 32 322 -14 q 110 166 157 78 q 63 381 63 254 q 161 671 63 569 q 432 772 260 772 q 621 726 539 772 q 750 594 703 681 q 797 381 797 507 m 274 381 q 310 210 274 268 q 431 153 347 153 q 549 210 513 153 q 586 381 586 268 q 549 549 586 493 q 429 606 513 606 q 310 549 347 606 q 274 381 274 493 m 197 953 q 225 1023 197 1001 q 292 1044 253 1044 q 359 1023 331 1044 q 388 953 388 1001 q 359 885 388 907 q 292 863 331 863 q 225 885 253 863 q 197 953 197 907 m 471 953 q 499 1023 471 1001 q 567 1044 526 1044 q 634 1023 606 1044 q 663 953 663 1001 q 634 885 663 907 q 567 863 606 863 q 499 885 526 863 q 471 953 471 907 z "},"÷":{"ha":794,"x_min":60,"x_max":733,"o":"m 396 624 q 329 648 357 624 q 301 726 301 672 q 329 806 301 783 q 396 829 357 829 q 462 806 433 829 q 490 726 490 783 q 462 648 490 672 q 396 624 433 624 m 60 415 l 60 564 l 733 564 l 733 415 l 60 415 m 396 150 q 329 174 357 150 q 301 253 301 199 q 329 333 301 310 q 396 356 357 356 q 462 333 433 356 q 490 253 490 310 q 462 174 490 199 q 396 150 433 150 z "},"ø":{"ha":860,"x_min":63,"x_max":797,"o":"m 797 381 q 698 89 797 192 q 428 -14 599 -14 q 345 -6 385 -14 q 269 17 306 3 l 224 -51 l 119 19 l 165 88 q 90 212 117 139 q 63 381 63 285 q 161 671 63 569 q 432 772 260 772 q 600 738 522 772 l 638 793 l 740 719 l 701 663 q 772 542 747 613 q 797 381 797 471 m 274 381 q 286 268 274 314 l 501 590 q 429 606 471 606 q 310 549 347 606 q 274 381 274 493 m 586 381 q 578 476 586 435 l 368 163 q 431 153 393 153 q 549 210 513 153 q 586 381 586 268 z "},"ù":{"ha":913,"x_min":104,"x_max":804,"o":"m 804 758 l 804 0 l 646 0 l 618 97 l 607 97 q 508 13 571 39 q 374 -14 444 -14 q 178 52 251 -14 q 104 264 104 118 l 104 758 l 311 758 l 311 315 q 340 193 311 235 q 433 151 369 151 q 563 216 528 151 q 597 401 597 281 l 597 758 l 804 758 m 438 1064 q 487 995 458 1033 q 545 922 515 957 q 597 860 575 886 l 597 842 l 460 842 q 398 887 433 860 q 326 944 363 914 q 257 1003 289 975 q 206 1050 225 1031 l 206 1064 l 438 1064 z "},"ú":{"ha":913,"x_min":104,"x_max":804,"o":"m 804 758 l 804 0 l 646 0 l 618 97 l 607 97 q 508 13 571 39 q 374 -14 444 -14 q 178 52 251 -14 q 104 264 104 118 l 104 758 l 311 758 l 311 315 q 340 193 311 235 q 433 151 369 151 q 563 216 528 151 q 597 401 597 281 l 597 758 l 804 758 m 750 1050 q 699 1003 731 1031 q 630 944 667 975 q 558 887 593 914 q 496 842 522 860 l 358 842 l 358 860 q 410 922 381 886 q 469 995 440 957 q 518 1064 499 1033 l 750 1064 l 750 1050 z "},"û":{"ha":913,"x_min":104,"x_max":804,"o":"m 804 758 l 804 0 l 646 0 l 618 97 l 607 97 q 508 13 571 39 q 374 -14 444 -14 q 178 52 251 -14 q 104 264 104 118 l 104 758 l 311 758 l 311 315 q 340 193 311 235 q 433 151 369 151 q 563 216 528 151 q 597 401 597 281 l 597 758 l 804 758 m 578 1064 q 628 995 597 1033 q 693 921 660 957 q 751 860 726 885 l 751 842 l 614 842 q 535 894 578 864 q 456 961 492 924 q 378 894 419 924 q 300 842 336 865 l 163 842 l 163 860 q 222 922 189 886 q 285 995 254 957 q 336 1064 317 1033 l 578 1064 z "},"ü":{"ha":913,"x_min":104,"x_max":804,"o":"m 804 758 l 804 0 l 646 0 l 618 97 l 607 97 q 508 13 571 39 q 374 -14 444 -14 q 178 52 251 -14 q 104 264 104 118 l 104 758 l 311 758 l 311 315 q 340 193 311 235 q 433 151 369 151 q 563 216 528 151 q 597 401 597 281 l 597 758 l 804 758 m 224 953 q 251 1023 224 1001 q 318 1044 279 1044 q 385 1023 357 1044 q 414 953 414 1001 q 385 885 414 907 q 318 863 357 863 q 251 885 279 863 q 224 953 224 907 m 497 953 q 525 1023 497 1001 q 593 1044 553 1044 q 660 1023 632 1044 q 689 953 689 1001 q 660 885 689 907 q 593 863 632 863 q 525 885 553 863 q 497 953 497 907 z "},"ý":{"ha":790,"x_min":0,"x_max":790,"o":"m 0 758 l 226 758 l 369 332 q 386 269 381 301 q 394 200 392 236 l 399 200 q 410 269 403 236 q 428 332 418 301 l 568 758 l 790 758 l 469 -97 q 344 -274 426 -215 q 153 -333 261 -333 q 92 -330 118 -333 q 47 -322 67 -326 l 47 -158 q 84 -164 63 -161 q 129 -167 106 -167 q 233 -127 194 -167 q 289 -32 271 -87 l 301 6 l 0 758 m 689 1050 q 638 1003 669 1031 q 569 944 606 975 q 497 887 532 914 q 435 842 461 860 l 297 842 l 297 860 q 349 922 319 886 q 408 995 379 957 q 457 1064 438 1033 l 689 1064 l 689 1050 z "},"þ":{"ha":879,"x_min":108,"x_max":817,"o":"m 817 381 q 738 87 817 188 q 531 -14 658 -14 q 397 13 449 -14 q 315 79 346 40 l 306 79 q 313 27 310 58 q 315 -26 315 -4 l 315 -333 l 108 -333 l 108 1056 l 315 1056 l 315 790 q 312 719 315 757 q 306 660 308 681 l 315 660 q 397 740 344 707 q 531 772 450 772 q 738 673 658 772 q 817 381 817 574 m 606 383 q 464 607 606 607 q 351 557 383 607 q 315 404 318 507 l 315 382 q 348 213 315 272 q 467 154 381 154 q 572 213 538 154 q 606 383 606 272 z "},"ÿ":{"ha":790,"x_min":0,"x_max":790,"o":"m 0 758 l 226 758 l 369 332 q 386 269 381 301 q 394 200 392 236 l 399 200 q 410 269 403 236 q 428 332 418 301 l 568 758 l 790 758 l 469 -97 q 344 -274 426 -215 q 153 -333 261 -333 q 92 -330 118 -333 q 47 -322 67 -326 l 47 -158 q 84 -164 63 -161 q 129 -167 106 -167 q 233 -127 194 -167 q 289 -32 271 -87 l 301 6 l 0 758 m 163 953 q 190 1023 163 1001 q 257 1044 218 1044 q 324 1023 296 1044 q 353 953 353 1001 q 324 885 353 907 q 257 863 296 863 q 190 885 218 863 q 163 953 163 907 m 436 953 q 464 1023 436 1001 q 532 1044 492 1044 q 599 1023 571 1044 q 628 953 628 1001 q 599 885 628 907 q 532 863 571 863 q 464 885 492 863 q 436 953 436 907 z "},"Ā":{"ha":958,"x_min":0,"x_max":958,"o":"m 732 0 l 660 236 l 299 236 l 226 0 l 0 0 l 350 996 l 607 996 l 958 0 l 732 0 m 538 643 q 519 703 531 667 q 497 776 508 739 q 479 842 486 814 q 460 773 472 814 q 438 695 449 732 q 422 643 428 658 l 351 413 l 610 413 l 538 643 m 708 1218 l 708 1075 l 249 1075 l 249 1218 l 708 1218 z "},"ā":{"ha":839,"x_min":58,"x_max":735,"o":"m 419 774 q 653 708 572 774 q 735 506 735 642 l 735 0 l 590 0 l 550 103 l 544 103 q 442 14 496 42 q 293 -14 388 -14 q 125 45 192 -14 q 58 226 58 104 q 143 405 58 347 q 397 468 228 463 l 529 472 l 529 506 q 498 593 529 565 q 411 621 467 621 q 303 605 356 621 q 197 565 250 589 l 129 706 q 265 756 190 738 q 419 774 339 774 m 449 349 q 310 313 349 346 q 271 225 271 279 q 299 158 271 178 q 371 138 326 138 q 483 177 438 138 q 529 289 529 217 l 529 351 l 449 349 m 649 985 l 649 842 l 189 842 l 189 985 l 649 985 z "},"Ă":{"ha":958,"x_min":0,"x_max":958,"o":"m 732 0 l 660 236 l 299 236 l 226 0 l 0 0 l 350 996 l 607 996 l 958 0 l 732 0 m 538 643 q 519 703 531 667 q 497 776 508 739 q 479 842 486 814 q 460 773 472 814 q 438 695 449 732 q 422 643 428 658 l 351 413 l 610 413 l 538 643 m 746 1304 q 665 1139 739 1203 q 476 1075 592 1075 q 288 1138 357 1075 q 213 1304 218 1200 l 328 1304 q 352 1247 332 1265 q 406 1224 372 1229 q 478 1219 439 1219 q 544 1226 511 1219 q 600 1250 576 1232 q 628 1304 624 1268 l 746 1304 z "},"ă":{"ha":839,"x_min":58,"x_max":735,"o":"m 419 774 q 653 708 572 774 q 735 506 735 642 l 735 0 l 590 0 l 550 103 l 544 103 q 442 14 496 42 q 293 -14 388 -14 q 125 45 192 -14 q 58 226 58 104 q 143 405 58 347 q 397 468 228 463 l 529 472 l 529 506 q 498 593 529 565 q 411 621 467 621 q 303 605 356 621 q 197 565 250 589 l 129 706 q 265 756 190 738 q 419 774 339 774 m 449 349 q 310 313 349 346 q 271 225 271 279 q 299 158 271 178 q 371 138 326 138 q 483 177 438 138 q 529 289 529 217 l 529 351 l 449 349 m 686 1071 q 606 906 679 969 q 417 842 532 842 q 228 904 297 842 q 153 1071 158 967 l 268 1071 q 292 1014 272 1032 q 346 991 313 996 q 418 986 379 986 q 484 992 451 986 q 540 1017 517 999 q 568 1071 564 1035 l 686 1071 z "},"Ą":{"ha":958,"x_min":0,"x_max":958,"o":"m 732 0 l 660 236 l 299 236 l 226 0 l 0 0 l 350 996 l 607 996 l 958 0 l 732 0 m 538 643 q 519 703 531 667 q 497 776 508 739 q 479 842 486 814 q 460 773 472 814 q 438 695 449 732 q 422 643 428 658 l 351 413 l 610 413 l 538 643 m 799 -154 q 814 -196 799 -182 q 853 -210 829 -210 q 896 -206 875 -210 q 931 -197 917 -201 l 931 -318 q 883 -328 908 -324 q 825 -333 858 -333 q 701 -290 747 -333 q 656 -178 656 -246 q 700 -64 656 -117 q 808 24 744 -11 l 899 0 q 825 -81 851 -44 q 799 -154 799 -118 z "},"ą":{"ha":839,"x_min":58,"x_max":750,"o":"m 419 774 q 653 708 572 774 q 735 506 735 642 l 735 0 l 590 0 l 550 103 l 544 103 q 442 14 496 42 q 293 -14 388 -14 q 125 45 192 -14 q 58 226 58 104 q 143 405 58 347 q 397 468 228 463 l 529 472 l 529 506 q 498 593 529 565 q 411 621 467 621 q 303 605 356 621 q 197 565 250 589 l 129 706 q 265 756 190 738 q 419 774 339 774 m 449 349 q 310 313 349 346 q 271 225 271 279 q 299 158 271 178 q 371 138 326 138 q 483 177 438 138 q 529 289 529 217 l 529 351 l 449 349 m 618 -154 q 633 -196 618 -182 q 672 -210 649 -210 q 715 -206 694 -210 q 750 -197 736 -201 l 750 -318 q 703 -328 728 -324 q 644 -333 678 -333 q 521 -290 567 -333 q 475 -178 475 -246 q 519 -64 475 -117 q 628 24 564 -11 l 718 0 q 644 -81 671 -44 q 618 -154 618 -118 z "},"Ć":{"ha":885,"x_min":81,"x_max":836,"o":"m 546 831 q 361 740 425 831 q 297 493 297 650 q 356 248 297 335 q 546 161 415 161 q 667 175 607 161 q 799 214 728 189 l 799 38 q 669 -1 733 11 q 526 -14 606 -14 q 274 49 374 -14 q 128 227 175 113 q 81 494 81 342 q 135 760 81 644 q 292 940 189 875 q 546 1006 396 1006 q 694 987 619 1006 q 836 936 768 968 l 768 765 q 656 811 713 792 q 546 831 600 831 m 817 1283 q 765 1236 797 1264 q 697 1178 733 1208 q 624 1120 660 1147 q 563 1075 589 1093 l 425 1075 l 425 1093 q 477 1155 447 1119 q 536 1228 507 1190 q 585 1297 565 1267 l 817 1297 l 817 1283 z "},"ć":{"ha":714,"x_min":63,"x_max":692,"o":"m 417 -14 q 155 80 247 -14 q 63 375 63 174 q 110 601 63 514 q 241 731 157 689 q 435 772 325 772 q 570 757 513 772 q 671 721 628 742 l 610 561 q 519 593 561 581 q 435 606 476 606 q 274 376 274 606 q 316 208 274 263 q 435 154 358 154 q 550 172 500 154 q 647 219 600 189 l 647 43 q 548 -1 600 13 q 417 -14 496 -14 m 692 1050 q 640 1003 672 1031 q 572 944 608 975 q 499 887 535 914 q 438 842 464 860 l 300 842 l 300 860 q 352 922 322 886 q 411 995 382 957 q 460 1064 440 1033 l 692 1064 l 692 1050 z "},"Ĉ":{"ha":885,"x_min":81,"x_max":836,"o":"m 546 831 q 361 740 425 831 q 297 493 297 650 q 356 248 297 335 q 546 161 415 161 q 667 175 607 161 q 799 214 728 189 l 799 38 q 669 -1 733 11 q 526 -14 606 -14 q 274 49 374 -14 q 128 227 175 113 q 81 494 81 342 q 135 760 81 644 q 292 940 189 875 q 546 1006 396 1006 q 694 987 619 1006 q 836 936 768 968 l 768 765 q 656 811 713 792 q 546 831 600 831 m 644 1297 q 695 1228 664 1267 q 760 1154 726 1190 q 818 1093 793 1118 l 818 1075 l 681 1075 q 601 1127 644 1097 q 522 1194 558 1157 q 444 1128 486 1157 q 367 1075 403 1099 l 229 1075 l 229 1093 q 288 1155 256 1119 q 352 1228 321 1190 q 403 1297 383 1267 l 644 1297 z "},"ĉ":{"ha":714,"x_min":63,"x_max":693,"o":"m 417 -14 q 155 80 247 -14 q 63 375 63 174 q 110 601 63 514 q 241 731 157 689 q 435 772 325 772 q 570 757 513 772 q 671 721 628 742 l 610 561 q 519 593 561 581 q 435 606 476 606 q 274 376 274 606 q 316 208 274 263 q 435 154 358 154 q 550 172 500 154 q 647 219 600 189 l 647 43 q 548 -1 600 13 q 417 -14 496 -14 m 519 1064 q 570 995 539 1033 q 635 921 601 957 q 693 860 668 885 l 693 842 l 556 842 q 476 894 519 864 q 397 961 433 924 q 319 894 361 924 q 242 842 278 865 l 104 842 l 104 860 q 163 922 131 886 q 227 995 196 957 q 278 1064 258 1033 l 519 1064 z "},"Ċ":{"ha":885,"x_min":81,"x_max":836,"o":"m 546 831 q 361 740 425 831 q 297 493 297 650 q 356 248 297 335 q 546 161 415 161 q 667 175 607 161 q 799 214 728 189 l 799 38 q 669 -1 733 11 q 526 -14 606 -14 q 274 49 374 -14 q 128 227 175 113 q 81 494 81 342 q 135 760 81 644 q 292 940 189 875 q 546 1006 396 1006 q 694 987 619 1006 q 836 936 768 968 l 768 765 q 656 811 713 792 q 546 831 600 831 m 524 1289 q 603 1267 569 1289 q 636 1188 636 1246 q 603 1108 636 1131 q 524 1086 569 1086 q 444 1108 476 1086 q 411 1188 411 1131 q 444 1267 411 1246 q 524 1289 476 1289 z "},"ċ":{"ha":714,"x_min":63,"x_max":671,"o":"m 417 -14 q 155 80 247 -14 q 63 375 63 174 q 110 601 63 514 q 241 731 157 689 q 435 772 325 772 q 570 757 513 772 q 671 721 628 742 l 610 561 q 519 593 561 581 q 435 606 476 606 q 274 376 274 606 q 316 208 274 263 q 435 154 358 154 q 550 172 500 154 q 647 219 600 189 l 647 43 q 548 -1 600 13 q 417 -14 496 -14 m 399 1056 q 478 1034 444 1056 q 511 954 511 1013 q 478 875 511 897 q 399 853 444 853 q 319 875 351 853 q 286 954 286 897 q 319 1034 286 1013 q 399 1056 351 1056 z "},"Č":{"ha":885,"x_min":81,"x_max":836,"o":"m 546 831 q 361 740 425 831 q 297 493 297 650 q 356 248 297 335 q 546 161 415 161 q 667 175 607 161 q 799 214 728 189 l 799 38 q 669 -1 733 11 q 526 -14 606 -14 q 274 49 374 -14 q 128 227 175 113 q 81 494 81 342 q 135 760 81 644 q 292 940 189 875 q 546 1006 396 1006 q 694 987 619 1006 q 836 936 768 968 l 768 765 q 656 811 713 792 q 546 831 600 831 m 403 1075 q 352 1144 383 1107 q 288 1218 321 1182 q 229 1279 256 1254 l 229 1297 l 367 1297 q 444 1245 403 1275 q 522 1178 486 1215 q 601 1245 558 1215 q 681 1297 644 1275 l 818 1297 l 818 1279 q 760 1218 793 1254 q 695 1144 726 1182 q 644 1075 664 1107 l 403 1075 z "},"č":{"ha":714,"x_min":63,"x_max":693,"o":"m 417 -14 q 155 80 247 -14 q 63 375 63 174 q 110 601 63 514 q 241 731 157 689 q 435 772 325 772 q 570 757 513 772 q 671 721 628 742 l 610 561 q 519 593 561 581 q 435 606 476 606 q 274 376 274 606 q 316 208 274 263 q 435 154 358 154 q 550 172 500 154 q 647 219 600 189 l 647 43 q 548 -1 600 13 q 417 -14 496 -14 m 278 842 q 227 911 258 874 q 163 985 196 949 q 104 1046 131 1021 l 104 1064 l 242 1064 q 319 1012 278 1042 q 397 944 361 982 q 476 1012 433 982 q 556 1064 519 1042 l 693 1064 l 693 1046 q 635 985 668 1021 q 570 911 601 949 q 519 842 539 874 l 278 842 z "},"Ď":{"ha":1028,"x_min":125,"x_max":947,"o":"m 947 506 q 805 127 947 254 q 406 0 663 0 l 125 0 l 125 992 l 436 992 q 706 936 592 992 q 884 773 821 881 q 947 506 947 665 m 729 500 q 657 742 729 665 q 447 819 585 819 l 335 819 l 335 174 l 425 174 q 729 500 729 174 m 393 1075 q 342 1144 374 1107 q 278 1218 311 1182 q 219 1279 246 1254 l 219 1297 l 357 1297 q 435 1245 393 1275 q 513 1178 476 1215 q 592 1245 549 1215 q 671 1297 635 1275 l 808 1297 l 808 1279 q 750 1218 783 1254 q 685 1144 717 1182 q 635 1075 654 1107 l 393 1075 z "},"ď":{"ha":879,"x_min":63,"x_max":1051,"o":"m 1051 1042 q 1003 942 1031 996 q 939 833 975 889 l 818 833 l 818 851 q 842 951 829 892 q 860 1056 854 1011 l 1051 1056 l 1051 1042 m 349 -14 q 142 85 222 -14 q 63 378 63 185 q 143 672 63 572 q 354 772 224 772 q 489 740 436 772 q 572 661 542 708 l 579 661 q 569 726 575 683 q 564 813 564 768 l 564 1056 l 771 1056 l 771 0 l 613 0 l 572 99 l 564 99 q 482 19 533 51 q 349 -14 431 -14 m 421 151 q 542 202 507 151 q 578 354 576 253 l 578 376 q 544 546 578 488 q 418 604 510 604 q 311 545 350 604 q 272 375 272 486 q 311 208 272 264 q 421 151 350 151 z "},"Đ":{"ha":1028,"x_min":32,"x_max":947,"o":"m 436 992 q 706 936 592 992 q 884 773 821 881 q 947 506 947 665 q 805 127 947 254 q 406 0 663 0 l 125 0 l 125 404 l 32 404 l 32 576 l 125 576 l 125 992 l 436 992 m 446 819 l 335 819 l 335 576 l 496 576 l 496 404 l 335 404 l 335 174 l 424 174 q 729 500 729 174 q 656 742 729 665 q 446 819 582 819 z "},"đ":{"ha":901,"x_min":63,"x_max":876,"o":"m 349 -14 q 142 81 222 -14 q 63 357 63 175 q 143 636 63 542 q 354 731 224 731 q 489 699 436 731 q 572 619 542 667 l 579 619 q 569 695 574 649 q 564 776 564 742 l 564 811 l 350 811 l 350 946 l 564 946 l 564 1056 l 771 1056 l 771 946 l 876 946 l 876 811 l 771 811 l 771 0 l 613 0 l 572 99 l 564 99 q 482 19 533 51 q 349 -14 431 -14 m 421 151 q 542 197 507 151 q 578 336 576 243 l 578 356 q 544 509 578 456 q 418 563 510 563 q 311 509 350 563 q 272 354 272 456 q 311 202 272 253 q 421 151 350 151 z "},"Ē":{"ha":778,"x_min":125,"x_max":696,"o":"m 696 0 l 125 0 l 125 992 l 696 992 l 696 819 l 335 819 l 335 601 l 671 601 l 671 429 l 335 429 l 335 174 l 696 174 l 696 0 m 647 1218 l 647 1075 l 188 1075 l 188 1218 l 647 1218 z "},"ē":{"ha":821,"x_min":63,"x_max":761,"o":"m 421 772 q 669 683 578 772 q 761 428 761 593 l 761 328 l 272 328 q 324 190 275 240 q 461 140 374 140 q 594 155 535 140 q 718 200 654 169 l 718 40 q 601 -1 663 13 q 451 -14 539 -14 q 250 28 338 -14 q 113 157 163 71 q 63 374 63 243 q 108 595 63 507 q 233 728 153 683 q 421 772 314 772 m 422 625 q 323 586 363 625 q 276 465 283 547 l 567 465 q 531 580 565 535 q 422 625 496 625 m 640 985 l 640 842 l 181 842 l 181 985 l 640 985 z "},"Ĕ":{"ha":778,"x_min":125,"x_max":696,"o":"m 696 0 l 125 0 l 125 992 l 696 992 l 696 819 l 335 819 l 335 601 l 671 601 l 671 429 l 335 429 l 335 174 l 696 174 l 696 0 m 685 1304 q 604 1139 678 1203 q 415 1075 531 1075 q 226 1138 296 1075 q 151 1304 157 1200 l 267 1304 q 291 1247 271 1265 q 344 1224 311 1229 q 417 1219 378 1219 q 483 1226 450 1219 q 539 1250 515 1232 q 567 1304 563 1268 l 685 1304 z "},"ĕ":{"ha":821,"x_min":63,"x_max":761,"o":"m 421 772 q 669 683 578 772 q 761 428 761 593 l 761 328 l 272 328 q 324 190 275 240 q 461 140 374 140 q 594 155 535 140 q 718 200 654 169 l 718 40 q 601 -1 663 13 q 451 -14 539 -14 q 250 28 338 -14 q 113 157 163 71 q 63 374 63 243 q 108 595 63 507 q 233 728 153 683 q 421 772 314 772 m 422 625 q 323 586 363 625 q 276 465 283 547 l 567 465 q 531 580 565 535 q 422 625 496 625 m 678 1071 q 597 906 671 969 q 408 842 524 842 q 219 904 289 842 q 144 1071 150 967 l 260 1071 q 284 1014 264 1032 q 338 991 304 996 q 410 986 371 986 q 476 992 443 986 q 532 1017 508 999 q 560 1071 556 1035 l 678 1071 z "},"Ė":{"ha":778,"x_min":125,"x_max":696,"o":"m 696 0 l 125 0 l 125 992 l 696 992 l 696 819 l 335 819 l 335 601 l 671 601 l 671 429 l 335 429 l 335 174 l 696 174 l 696 0 m 418 1289 q 497 1267 464 1289 q 531 1188 531 1246 q 497 1108 531 1131 q 418 1086 464 1086 q 338 1108 371 1086 q 306 1188 306 1131 q 338 1267 306 1246 q 418 1289 371 1289 z "},"ė":{"ha":821,"x_min":63,"x_max":761,"o":"m 421 772 q 669 683 578 772 q 761 428 761 593 l 761 328 l 272 328 q 324 190 275 240 q 461 140 374 140 q 594 155 535 140 q 718 200 654 169 l 718 40 q 601 -1 663 13 q 451 -14 539 -14 q 250 28 338 -14 q 113 157 163 71 q 63 374 63 243 q 108 595 63 507 q 233 728 153 683 q 421 772 314 772 m 422 625 q 323 586 363 625 q 276 465 283 547 l 567 465 q 531 580 565 535 q 422 625 496 625 m 411 1056 q 490 1034 457 1056 q 524 954 524 1013 q 490 875 524 897 q 411 853 457 853 q 331 875 364 853 q 299 954 299 897 q 331 1034 299 1013 q 411 1056 364 1056 z "},"Ę":{"ha":778,"x_min":125,"x_max":696,"o":"m 696 0 l 125 0 l 125 992 l 696 992 l 696 819 l 335 819 l 335 601 l 671 601 l 671 429 l 335 429 l 335 174 l 696 174 l 696 0 m 564 -154 q 579 -196 564 -182 q 618 -210 594 -210 q 661 -206 640 -210 q 696 -197 682 -201 l 696 -318 q 649 -328 674 -324 q 590 -333 624 -333 q 467 -290 513 -333 q 421 -178 421 -246 q 465 -64 421 -117 q 574 24 510 -11 l 664 0 q 590 -81 617 -44 q 564 -154 564 -118 z "},"ę":{"ha":821,"x_min":63,"x_max":761,"o":"m 574 -154 q 589 -196 574 -182 q 628 -210 604 -210 q 671 -206 650 -210 q 706 -197 692 -201 l 706 -318 q 658 -328 683 -324 q 600 -333 633 -333 q 476 -290 522 -333 q 431 -178 431 -246 q 459 -87 431 -131 q 531 -11 488 -44 q 451 -14 494 -14 q 250 28 338 -14 q 113 157 163 71 q 63 374 63 243 q 108 595 63 507 q 233 728 153 683 q 421 772 314 772 q 669 683 578 772 q 761 428 761 593 l 761 328 l 272 328 q 324 190 275 240 q 461 140 374 140 q 594 155 535 140 q 718 200 654 169 l 718 40 q 604 -76 635 -33 q 574 -154 574 -118 m 422 625 q 323 586 363 625 q 276 465 283 547 l 567 465 q 531 580 565 535 q 422 625 496 625 z "},"Ě":{"ha":778,"x_min":124,"x_max":713,"o":"m 696 0 l 125 0 l 125 992 l 696 992 l 696 819 l 335 819 l 335 601 l 671 601 l 671 429 l 335 429 l 335 174 l 696 174 l 696 0 m 297 1075 q 247 1144 278 1107 q 183 1218 215 1182 q 124 1279 150 1254 l 124 1297 l 261 1297 q 339 1245 297 1275 q 417 1178 381 1215 q 496 1245 453 1215 q 575 1297 539 1275 l 713 1297 l 713 1279 q 654 1218 688 1254 q 590 1144 621 1182 q 539 1075 558 1107 l 297 1075 z "},"ě":{"ha":821,"x_min":63,"x_max":761,"o":"m 421 772 q 669 683 578 772 q 761 428 761 593 l 761 328 l 272 328 q 324 190 275 240 q 461 140 374 140 q 594 155 535 140 q 718 200 654 169 l 718 40 q 601 -1 663 13 q 451 -14 539 -14 q 250 28 338 -14 q 113 157 163 71 q 63 374 63 243 q 108 595 63 507 q 233 728 153 683 q 421 772 314 772 m 422 625 q 323 586 363 625 q 276 465 283 547 l 567 465 q 531 580 565 535 q 422 625 496 625 m 290 842 q 240 911 271 874 q 176 985 208 949 q 117 1046 143 1021 l 117 1064 l 254 1064 q 332 1012 290 1042 q 410 944 374 982 q 489 1012 446 982 q 568 1064 532 1042 l 706 1064 l 706 1046 q 647 985 681 1021 q 583 911 614 949 q 532 842 551 874 l 290 842 z "},"Ĝ":{"ha":1006,"x_min":81,"x_max":894,"o":"m 501 557 l 894 557 l 894 43 q 733 1 817 17 q 542 -14 649 -14 q 200 117 319 -14 q 81 497 81 247 q 141 767 81 653 q 317 943 201 881 q 599 1006 432 1006 q 754 989 678 1006 q 893 944 831 972 l 824 776 q 719 815 778 800 q 597 831 661 831 q 438 789 506 831 q 334 672 371 747 q 297 493 297 596 q 324 321 297 396 q 407 203 350 246 q 556 161 464 161 q 631 165 600 161 q 689 175 663 169 l 689 382 l 501 382 l 501 557 m 676 1297 q 727 1228 696 1267 q 792 1154 758 1190 q 850 1093 825 1118 l 850 1075 l 713 1075 q 633 1127 676 1097 q 554 1194 590 1157 q 476 1128 518 1157 q 399 1075 435 1099 l 261 1075 l 261 1093 q 320 1155 288 1119 q 384 1228 353 1190 q 435 1297 415 1267 l 676 1297 z "},"ĝ":{"ha":879,"x_min":63,"x_max":771,"o":"m 354 772 q 574 661 494 772 l 579 661 l 596 758 l 771 758 l 771 -1 q 675 -249 771 -164 q 392 -333 579 -333 q 242 -324 311 -333 q 108 -289 174 -314 l 108 -124 q 404 -182 249 -182 q 564 -10 564 -182 l 564 6 q 566 54 564 29 q 569 99 568 79 l 564 99 q 471 13 525 39 q 349 -14 417 -14 q 138 90 214 -14 q 63 378 63 193 q 140 668 63 564 q 354 772 218 772 m 419 604 q 274 375 274 604 q 422 149 274 149 q 540 194 501 149 q 578 351 578 239 l 578 376 q 540 551 578 499 q 419 604 503 604 m 557 1064 q 608 995 576 1033 q 672 921 639 957 q 731 860 706 885 l 731 842 l 593 842 q 514 894 557 864 q 435 961 471 924 q 357 894 399 924 q 279 842 315 865 l 142 842 l 142 860 q 201 922 168 886 q 265 995 233 957 q 315 1064 296 1033 l 557 1064 z "},"Ğ":{"ha":1006,"x_min":81,"x_max":894,"o":"m 501 557 l 894 557 l 894 43 q 733 1 817 17 q 542 -14 649 -14 q 200 117 319 -14 q 81 497 81 247 q 141 767 81 653 q 317 943 201 881 q 599 1006 432 1006 q 754 989 678 1006 q 893 944 831 972 l 824 776 q 719 815 778 800 q 597 831 661 831 q 438 789 506 831 q 334 672 371 747 q 297 493 297 596 q 324 321 297 396 q 407 203 350 246 q 556 161 464 161 q 631 165 600 161 q 689 175 663 169 l 689 382 l 501 382 l 501 557 m 822 1304 q 742 1139 815 1203 q 553 1075 668 1075 q 364 1138 433 1075 q 289 1304 294 1200 l 404 1304 q 428 1247 408 1265 q 482 1224 449 1229 q 554 1219 515 1219 q 620 1226 588 1219 q 676 1250 653 1232 q 704 1304 700 1268 l 822 1304 z "},"ğ":{"ha":879,"x_min":63,"x_max":771,"o":"m 354 772 q 574 661 494 772 l 579 661 l 596 758 l 771 758 l 771 -1 q 675 -249 771 -164 q 392 -333 579 -333 q 242 -324 311 -333 q 108 -289 174 -314 l 108 -124 q 404 -182 249 -182 q 564 -10 564 -182 l 564 6 q 566 54 564 29 q 569 99 568 79 l 564 99 q 471 13 525 39 q 349 -14 417 -14 q 138 90 214 -14 q 63 378 63 193 q 140 668 63 564 q 354 772 218 772 m 419 604 q 274 375 274 604 q 422 149 274 149 q 540 194 501 149 q 578 351 578 239 l 578 376 q 540 551 578 499 q 419 604 503 604 m 703 1071 q 622 906 696 969 q 433 842 549 842 q 244 904 314 842 q 169 1071 175 967 l 285 1071 q 309 1014 289 1032 q 363 991 329 996 q 435 986 396 986 q 501 992 468 986 q 557 1017 533 999 q 585 1071 581 1035 l 703 1071 z "},"Ġ":{"ha":1006,"x_min":81,"x_max":894,"o":"m 501 557 l 894 557 l 894 43 q 733 1 817 17 q 542 -14 649 -14 q 200 117 319 -14 q 81 497 81 247 q 141 767 81 653 q 317 943 201 881 q 599 1006 432 1006 q 754 989 678 1006 q 893 944 831 972 l 824 776 q 719 815 778 800 q 597 831 661 831 q 438 789 506 831 q 334 672 371 747 q 297 493 297 596 q 324 321 297 396 q 407 203 350 246 q 556 161 464 161 q 631 165 600 161 q 689 175 663 169 l 689 382 l 501 382 l 501 557 m 556 1289 q 635 1267 601 1289 q 668 1188 668 1246 q 635 1108 668 1131 q 556 1086 601 1086 q 476 1108 508 1086 q 443 1188 443 1131 q 476 1267 443 1246 q 556 1289 508 1289 z "},"ġ":{"ha":879,"x_min":63,"x_max":771,"o":"m 354 772 q 574 661 494 772 l 579 661 l 596 758 l 771 758 l 771 -1 q 675 -249 771 -164 q 392 -333 579 -333 q 242 -324 311 -333 q 108 -289 174 -314 l 108 -124 q 404 -182 249 -182 q 564 -10 564 -182 l 564 6 q 566 54 564 29 q 569 99 568 79 l 564 99 q 471 13 525 39 q 349 -14 417 -14 q 138 90 214 -14 q 63 378 63 193 q 140 668 63 564 q 354 772 218 772 m 419 604 q 274 375 274 604 q 422 149 274 149 q 540 194 501 149 q 578 351 578 239 l 578 376 q 540 551 578 499 q 419 604 503 604 m 436 1056 q 515 1034 482 1056 q 549 954 549 1013 q 515 875 549 897 q 436 853 482 853 q 356 875 389 853 q 324 954 324 897 q 356 1034 324 1013 q 436 1056 389 1056 z "},"Ģ":{"ha":1006,"x_min":81,"x_max":894,"o":"m 501 557 l 894 557 l 894 43 q 733 1 817 17 q 542 -14 649 -14 q 200 117 319 -14 q 81 497 81 247 q 141 767 81 653 q 317 943 201 881 q 599 1006 432 1006 q 754 989 678 1006 q 893 944 831 972 l 824 776 q 719 815 778 800 q 597 831 661 831 q 438 789 506 831 q 334 672 371 747 q 297 493 297 596 q 324 321 297 396 q 407 203 350 246 q 556 161 464 161 q 631 165 600 161 q 689 175 663 169 l 689 382 l 501 382 l 501 557 m 658 -99 q 610 -198 638 -144 q 546 -307 582 -251 l 425 -307 l 425 -289 q 449 -189 436 -249 q 467 -85 461 -129 l 658 -85 l 658 -99 z "},"ģ":{"ha":879,"x_min":63,"x_max":771,"o":"m 544 1046 q 521 946 533 1006 q 503 842 508 886 l 311 842 l 311 856 q 360 955 332 901 q 424 1064 389 1008 l 544 1064 l 544 1046 m 354 772 q 574 661 494 772 l 579 661 l 596 758 l 771 758 l 771 -1 q 675 -249 771 -164 q 392 -333 579 -333 q 242 -324 311 -333 q 108 -289 174 -314 l 108 -124 q 404 -182 249 -182 q 564 -10 564 -182 l 564 6 q 566 54 564 29 q 569 99 568 79 l 564 99 q 471 13 525 39 q 349 -14 417 -14 q 138 90 214 -14 q 63 378 63 193 q 140 668 63 564 q 354 772 218 772 m 419 604 q 274 375 274 604 q 422 149 274 149 q 540 194 501 149 q 578 351 578 239 l 578 376 q 540 551 578 499 q 419 604 503 604 z "},"Ĥ":{"ha":1063,"x_min":125,"x_max":938,"o":"m 938 0 l 728 0 l 728 428 l 335 428 l 335 0 l 125 0 l 125 992 l 335 992 l 335 603 l 728 603 l 728 992 l 938 992 l 938 0 m 653 1297 q 703 1228 672 1267 q 768 1154 735 1190 q 826 1093 801 1118 l 826 1075 l 689 1075 q 610 1127 653 1097 q 531 1194 567 1157 q 453 1128 494 1157 q 375 1075 411 1099 l 238 1075 l 238 1093 q 297 1155 264 1119 q 360 1228 329 1190 q 411 1297 392 1267 l 653 1297 z "},"ĥ":{"ha":913,"x_min":-79,"x_max":808,"o":"m 315 840 q 312 733 315 785 q 306 661 308 682 l 317 661 q 410 746 353 719 q 536 772 467 772 q 734 706 660 772 q 808 494 808 640 l 808 0 l 601 0 l 601 443 q 479 607 601 607 q 351 542 386 607 q 315 357 315 478 l 315 0 l 108 0 l 108 1056 l 315 1056 l 315 840 m 336 1361 q 387 1292 356 1331 q 451 1218 418 1254 q 510 1157 485 1182 l 510 1139 l 372 1139 q 293 1191 336 1161 q 214 1258 250 1221 q 136 1192 178 1221 q 58 1139 94 1163 l -79 1139 l -79 1157 q -20 1219 -53 1183 q 44 1292 13 1254 q 94 1361 75 1331 l 336 1361 z "},"Ħ":{"ha":1063,"x_min":0,"x_max":1063,"o":"m 125 0 l 125 725 l 0 725 l 0 860 l 125 860 l 125 992 l 335 992 l 335 860 l 728 860 l 728 992 l 938 992 l 938 860 l 1063 860 l 1063 725 l 938 725 l 938 0 l 728 0 l 728 428 l 335 428 l 335 0 l 125 0 m 335 603 l 728 603 l 728 725 l 335 725 l 335 603 z "},"ħ":{"ha":913,"x_min":3,"x_max":808,"o":"m 315 1056 l 315 946 l 529 946 l 529 811 l 315 811 l 315 799 q 312 692 315 743 q 306 619 308 640 l 318 619 q 410 704 354 678 q 538 731 467 731 q 735 665 661 731 q 808 453 808 599 l 808 0 l 601 0 l 601 401 q 479 565 601 565 q 351 501 386 565 q 315 315 315 436 l 315 0 l 108 0 l 108 811 l 3 811 l 3 946 l 108 946 l 108 1056 l 315 1056 z "},"Ĩ":{"ha":540,"x_min":-10,"x_max":553,"o":"m 496 0 l 44 0 l 44 119 l 165 175 l 165 817 l 44 872 l 44 992 l 496 992 l 496 872 l 375 817 l 375 175 l 496 119 l 496 0 m -10 1074 q 51 1233 -1 1182 q 175 1283 103 1283 q 248 1265 213 1283 q 317 1230 283 1247 q 383 1213 351 1213 q 424 1231 404 1213 q 451 1285 443 1249 l 553 1285 q 492 1126 544 1178 q 368 1075 439 1075 q 297 1092 332 1075 q 227 1128 261 1110 q 160 1146 193 1146 q 119 1128 139 1146 q 92 1074 100 1110 l -10 1074 z "},"ĩ":{"ha":424,"x_min":-68,"x_max":494,"o":"m 315 0 l 108 0 l 108 758 l 315 758 l 315 0 m -68 840 q -8 999 -60 949 q 117 1050 44 1050 q 190 1032 154 1050 q 259 997 225 1014 q 325 979 293 979 q 365 997 346 979 q 393 1051 385 1015 l 494 1051 q 433 893 486 944 q 310 842 381 842 q 238 859 274 842 q 169 894 203 876 q 101 913 135 913 q 61 894 81 913 q 33 840 42 876 l -68 840 z "},"Ī":{"ha":540,"x_min":40,"x_max":500,"o":"m 496 0 l 44 0 l 44 119 l 165 175 l 165 817 l 44 872 l 44 992 l 496 992 l 496 872 l 375 817 l 375 175 l 496 119 l 496 0 m 500 1218 l 500 1075 l 40 1075 l 40 1218 l 500 1218 z "},"ī":{"ha":424,"x_min":-18,"x_max":442,"o":"m 315 0 l 108 0 l 108 758 l 315 758 l 315 0 m 442 985 l 442 842 l -18 842 l -18 985 l 442 985 z "},"Ĭ":{"ha":540,"x_min":4,"x_max":538,"o":"m 496 0 l 44 0 l 44 119 l 165 175 l 165 817 l 44 872 l 44 992 l 496 992 l 496 872 l 375 817 l 375 175 l 496 119 l 496 0 m 538 1304 q 457 1139 531 1203 q 268 1075 383 1075 q 79 1138 149 1075 q 4 1304 10 1200 l 119 1304 q 144 1247 124 1265 q 197 1224 164 1229 q 269 1219 231 1219 q 335 1226 303 1219 q 392 1250 368 1232 q 419 1304 415 1268 l 538 1304 z "},"ĭ":{"ha":424,"x_min":-54,"x_max":479,"o":"m 315 0 l 108 0 l 108 758 l 315 758 l 315 0 m 479 1071 q 399 906 472 969 q 210 842 325 842 q 21 904 90 842 q -54 1071 -49 967 l 61 1071 q 85 1014 65 1032 q 139 991 106 996 q 211 986 172 986 q 277 992 244 986 q 333 1017 310 999 q 361 1071 357 1035 l 479 1071 z "},"Į":{"ha":540,"x_min":44,"x_max":496,"o":"m 496 0 l 44 0 l 44 119 l 165 175 l 165 817 l 44 872 l 44 992 l 496 992 l 496 872 l 375 817 l 375 175 l 496 119 l 496 0 m 356 -154 q 371 -196 356 -182 q 410 -210 386 -210 q 453 -206 432 -210 q 488 -197 474 -201 l 488 -318 q 440 -328 465 -324 q 382 -333 415 -333 q 258 -290 304 -333 q 213 -178 213 -246 q 257 -64 213 -117 q 365 24 301 -11 l 456 0 q 382 -81 408 -44 q 356 -154 356 -118 z "},"į":{"ha":424,"x_min":63,"x_max":338,"o":"m 213 1056 q 292 1034 258 1056 q 325 954 325 1013 q 292 875 325 897 q 213 853 258 853 q 133 875 165 853 q 100 954 100 897 q 133 1034 100 1013 q 213 1056 165 1056 m 315 758 l 315 0 l 108 0 l 108 758 l 315 758 m 206 -154 q 221 -196 206 -182 q 260 -210 236 -210 q 303 -206 282 -210 q 338 -197 324 -201 l 338 -318 q 290 -328 315 -324 q 232 -333 265 -333 q 108 -290 154 -333 q 63 -178 63 -246 q 107 -64 63 -117 q 215 24 151 -11 l 306 0 q 232 -81 258 -44 q 206 -154 206 -118 z "},"İ":{"ha":540,"x_min":44,"x_max":496,"o":"m 496 0 l 44 0 l 44 119 l 165 175 l 165 817 l 44 872 l 44 992 l 496 992 l 496 872 l 375 817 l 375 175 l 496 119 l 496 0 m 271 1289 q 350 1267 317 1289 q 383 1188 383 1246 q 350 1108 383 1131 q 271 1086 317 1086 q 191 1108 224 1086 q 158 1188 158 1131 q 191 1267 158 1246 q 271 1289 224 1289 z "},"Ĳ":{"ha":1000,"x_min":44,"x_max":875,"o":"m 496 0 l 44 0 l 44 119 l 165 175 l 165 817 l 44 872 l 44 992 l 496 992 l 496 872 l 375 817 l 375 175 l 496 119 l 496 0 m 561 -292 q 490 -287 521 -292 q 438 -276 460 -282 l 438 -101 q 484 -111 460 -107 q 536 -115 508 -115 q 602 -101 572 -115 q 649 -49 632 -87 q 665 63 665 -10 l 665 992 l 875 992 l 875 64 q 835 -142 875 -64 q 725 -256 796 -221 q 561 -292 654 -292 z "},"ĳ":{"ha":847,"x_min":100,"x_max":749,"o":"m 213 1056 q 292 1034 258 1056 q 325 954 325 1013 q 292 875 325 897 q 213 853 258 853 q 133 875 165 853 q 100 954 100 897 q 133 1034 100 1013 q 213 1056 165 1056 m 315 758 l 315 0 l 108 0 l 108 758 l 315 758 m 524 954 q 556 1034 524 1013 q 636 1056 589 1056 q 715 1034 682 1056 q 749 954 749 1013 q 715 875 749 897 q 636 853 682 853 q 556 875 589 853 q 524 954 524 897 m 471 -333 q 398 -328 436 -333 q 335 -317 360 -324 l 335 -154 q 382 -163 360 -160 q 432 -167 404 -167 q 503 -143 474 -167 q 532 -51 532 -119 l 532 758 l 739 758 l 739 -82 q 713 -208 739 -151 q 627 -299 686 -265 q 471 -333 568 -333 z "},"Ĵ":{"ha":460,"x_min":-103,"x_max":525,"o":"m 21 -292 q -50 -287 -19 -292 q -103 -276 -81 -282 l -103 -101 q -56 -111 -81 -107 q -4 -115 -32 -115 q 62 -101 32 -115 q 108 -49 92 -87 q 125 63 125 -10 l 125 992 l 335 992 l 335 64 q 295 -142 335 -64 q 185 -256 256 -221 q 21 -292 114 -292 m 351 1297 q 402 1228 371 1267 q 467 1154 433 1190 q 525 1093 500 1118 l 525 1075 l 388 1075 q 308 1127 351 1097 q 229 1194 265 1157 q 151 1128 193 1157 q 74 1075 110 1099 l -64 1075 l -64 1093 q -5 1155 -37 1119 q 59 1228 28 1190 q 110 1297 90 1267 l 351 1297 z "},"ĵ":{"ha":424,"x_min":-89,"x_max":507,"o":"m 47 -333 q -26 -328 13 -333 q -89 -317 -64 -324 l -89 -154 q -42 -163 -64 -160 q 8 -167 -19 -167 q 79 -143 50 -167 q 108 -51 108 -119 l 108 758 l 315 758 l 315 -82 q 289 -208 315 -151 q 203 -299 263 -265 q 47 -333 144 -333 m 333 1064 q 384 995 353 1033 q 449 921 415 957 q 507 860 482 885 l 507 842 l 369 842 q 290 894 333 864 q 211 961 247 924 q 133 894 175 924 q 56 842 92 865 l -82 842 l -82 860 q -23 922 -56 886 q 41 995 10 957 q 92 1064 72 1033 l 333 1064 z "},"Ķ":{"ha":922,"x_min":125,"x_max":922,"o":"m 922 0 l 683 0 l 424 418 l 335 354 l 335 0 l 125 0 l 125 992 l 335 992 l 335 538 q 376 596 356 567 q 418 654 397 625 l 686 992 l 919 992 l 574 553 l 922 0 m 600 -99 q 551 -198 579 -144 q 488 -307 524 -251 l 367 -307 l 367 -289 q 390 -189 378 -249 q 408 -85 403 -129 l 600 -85 l 600 -99 z "},"ķ":{"ha":861,"x_min":108,"x_max":861,"o":"m 315 583 q 312 498 315 540 q 304 413 308 456 l 307 413 q 350 472 328 442 q 397 528 372 501 l 610 758 l 843 758 l 542 429 l 861 0 l 622 0 l 404 307 l 315 236 l 315 0 l 108 0 l 108 1056 l 315 1056 l 315 583 m 547 -99 q 499 -198 526 -144 q 435 -307 471 -251 l 314 -307 l 314 -289 q 338 -189 325 -249 q 356 -85 350 -129 l 547 -85 l 547 -99 z "},"ĸ":{"ha":861,"x_min":108,"x_max":861,"o":"m 843 758 l 544 411 l 861 0 l 625 0 l 413 289 l 315 228 l 315 0 l 108 0 l 108 758 l 315 758 l 315 560 q 314 476 314 518 q 311 394 314 435 l 314 394 q 361 452 338 424 q 410 510 385 481 l 622 758 l 843 758 z "},"Ĺ":{"ha":785,"x_min":125,"x_max":738,"o":"m 125 0 l 125 992 l 335 992 l 335 174 l 738 174 l 738 0 l 125 0 m 521 1283 q 469 1236 501 1264 q 401 1178 438 1208 q 328 1120 364 1147 q 267 1075 293 1093 l 129 1075 l 129 1093 q 181 1155 151 1119 q 240 1228 211 1190 q 289 1297 269 1267 l 521 1297 l 521 1283 z "},"ĺ":{"ha":424,"x_min":108,"x_max":506,"o":"m 315 0 l 108 0 l 108 1056 l 315 1056 l 315 0 m 506 1347 q 454 1300 486 1328 q 385 1242 422 1272 q 313 1184 349 1211 q 251 1139 278 1157 l 114 1139 l 114 1157 q 166 1219 136 1183 q 225 1292 196 1254 q 274 1361 254 1331 l 506 1361 l 506 1347 z "},"Ļ":{"ha":785,"x_min":125,"x_max":738,"o":"m 125 0 l 125 992 l 335 992 l 335 174 l 738 174 l 738 0 l 125 0 m 544 -99 q 496 -198 524 -144 q 432 -307 468 -251 l 311 -307 l 311 -289 q 335 -189 322 -249 q 353 -85 347 -129 l 544 -85 l 544 -99 z "},"ļ":{"ha":424,"x_min":96,"x_max":329,"o":"m 315 0 l 108 0 l 108 1056 l 315 1056 l 315 0 m 329 -99 q 281 -198 308 -144 q 217 -307 253 -251 l 96 -307 l 96 -289 q 119 -189 107 -249 q 138 -85 132 -129 l 329 -85 l 329 -99 z "},"Ľ":{"ha":785,"x_min":125,"x_max":776,"o":"m 776 978 q 728 878 756 932 q 664 769 700 825 l 543 769 l 543 788 q 567 888 554 828 q 585 992 579 947 l 776 992 l 776 978 m 125 0 l 125 992 l 335 992 l 335 174 l 738 174 l 738 0 l 125 0 z "},"ľ":{"ha":424,"x_min":108,"x_max":586,"o":"m 586 1042 q 538 942 565 996 q 474 833 510 889 l 353 833 l 353 851 q 376 951 364 892 q 394 1056 389 1011 l 586 1056 l 586 1042 m 315 0 l 108 0 l 108 1056 l 315 1056 l 315 0 z "},"Ŀ":{"ha":785,"x_min":125,"x_max":738,"o":"m 125 0 l 125 992 l 335 992 l 335 174 l 738 174 l 738 0 l 125 0 m 610 646 q 689 624 656 646 q 722 544 722 603 q 689 465 722 488 q 610 443 656 443 q 530 465 563 443 q 497 544 497 488 q 530 624 497 603 q 610 646 563 646 z "},"ŀ":{"ha":503,"x_min":108,"x_max":575,"o":"m 315 0 l 108 0 l 108 1056 l 315 1056 l 315 0 m 463 626 q 542 605 508 626 q 575 525 575 583 q 542 446 575 468 q 463 424 508 424 q 383 446 415 424 q 350 525 350 468 q 383 605 350 583 q 463 626 415 626 z "},"Ł":{"ha":785,"x_min":1,"x_max":738,"o":"m 125 0 l 125 333 l 78 306 l 1 439 l 125 514 l 125 992 l 335 992 l 335 642 l 432 701 l 511 568 l 335 461 l 335 174 l 738 174 l 738 0 l 125 0 z "},"ł":{"ha":424,"x_min":-17,"x_max":442,"o":"m 108 0 l 108 324 l 60 294 l -17 428 l 108 504 l 108 1056 l 315 1056 l 315 631 l 363 660 l 442 526 l 315 450 l 315 0 l 108 0 z "},"Ń":{"ha":1129,"x_min":125,"x_max":1004,"o":"m 1004 0 l 738 0 l 306 750 l 300 750 q 306 608 303 679 q 313 467 310 538 l 313 0 l 125 0 l 125 992 l 390 992 l 821 249 l 825 249 q 821 386 824 318 q 815 522 818 454 l 815 992 l 1004 992 l 1004 0 m 858 1283 q 807 1236 839 1264 q 738 1178 775 1208 q 666 1120 701 1147 q 604 1075 631 1093 l 467 1075 l 467 1093 q 519 1155 489 1119 q 578 1228 549 1190 q 626 1297 607 1267 l 858 1297 l 858 1283 z "},"ń":{"ha":913,"x_min":108,"x_max":808,"o":"m 539 772 q 735 706 661 772 q 808 494 808 640 l 808 0 l 601 0 l 601 443 q 572 566 601 525 q 479 607 543 607 q 350 542 385 607 q 315 357 315 478 l 315 0 l 108 0 l 108 758 l 267 758 l 294 661 l 306 661 q 405 746 342 719 q 539 772 468 772 m 750 1050 q 699 1003 731 1031 q 630 944 667 975 q 558 887 593 914 q 496 842 522 860 l 358 842 l 358 860 q 410 922 381 886 q 469 995 440 957 q 518 1064 499 1033 l 750 1064 l 750 1050 z "},"Ņ":{"ha":1129,"x_min":125,"x_max":1004,"o":"m 1004 0 l 738 0 l 306 750 l 300 750 q 306 608 303 679 q 313 467 310 538 l 313 0 l 125 0 l 125 992 l 390 992 l 821 249 l 825 249 q 821 386 824 318 q 815 522 818 454 l 815 992 l 1004 992 l 1004 0 m 682 -99 q 633 -198 661 -144 q 569 -307 606 -251 l 449 -307 l 449 -289 q 472 -189 460 -249 q 490 -85 485 -129 l 682 -85 l 682 -99 z "},"ņ":{"ha":913,"x_min":108,"x_max":808,"o":"m 539 772 q 735 706 661 772 q 808 494 808 640 l 808 0 l 601 0 l 601 443 q 572 566 601 525 q 479 607 543 607 q 350 542 385 607 q 315 357 315 478 l 315 0 l 108 0 l 108 758 l 267 758 l 294 661 l 306 661 q 405 746 342 719 q 539 772 468 772 m 574 -99 q 525 -198 553 -144 q 461 -307 497 -251 l 340 -307 l 340 -289 q 364 -189 351 -249 q 382 -85 376 -129 l 574 -85 l 574 -99 z "},"Ň":{"ha":1129,"x_min":125,"x_max":1004,"o":"m 1004 0 l 738 0 l 306 750 l 300 750 q 306 608 303 679 q 313 467 310 538 l 313 0 l 125 0 l 125 992 l 390 992 l 821 249 l 825 249 q 821 386 824 318 q 815 522 818 454 l 815 992 l 1004 992 l 1004 0 m 444 1075 q 394 1144 425 1107 q 330 1218 363 1182 q 271 1279 297 1254 l 271 1297 l 408 1297 q 486 1245 444 1275 q 564 1178 528 1215 q 643 1245 600 1215 q 722 1297 686 1275 l 860 1297 l 860 1279 q 801 1218 835 1254 q 737 1144 768 1182 q 686 1075 706 1107 l 444 1075 z "},"ň":{"ha":913,"x_min":108,"x_max":808,"o":"m 539 772 q 735 706 661 772 q 808 494 808 640 l 808 0 l 601 0 l 601 443 q 572 566 601 525 q 479 607 543 607 q 350 542 385 607 q 315 357 315 478 l 315 0 l 108 0 l 108 758 l 267 758 l 294 661 l 306 661 q 405 746 342 719 q 539 772 468 772 m 336 842 q 285 911 317 874 q 222 985 254 949 q 163 1046 189 1021 l 163 1064 l 300 1064 q 378 1012 336 1042 q 456 944 419 982 q 535 1012 492 982 q 614 1064 578 1042 l 751 1064 l 751 1046 q 693 985 726 1021 q 628 911 660 949 q 578 842 597 874 l 336 842 z "},"ŉ":{"ha":1069,"x_min":3,"x_max":965,"o":"m 696 772 q 892 706 818 772 q 965 494 965 640 l 965 0 l 758 0 l 758 443 q 729 566 758 525 q 636 607 700 607 q 507 542 542 607 q 472 357 472 478 l 472 0 l 265 0 l 265 758 l 424 758 l 451 661 l 463 661 q 562 746 499 719 q 696 772 625 772 m 271 976 q 219 815 253 903 q 151 651 186 728 l 3 651 q 42 826 22 733 q 71 992 61 919 l 261 992 l 271 976 z "},"Ŋ":{"ha":1129,"x_min":125,"x_max":1004,"o":"m 689 -292 q 613 -287 646 -292 q 556 -276 579 -282 l 556 -112 q 608 -122 581 -118 q 668 -126 636 -126 q 782 -96 746 -126 q 821 3 818 -65 l 306 750 l 300 750 q 306 659 303 711 q 310 556 308 607 q 313 467 313 504 l 313 0 l 125 0 l 125 992 l 390 992 l 821 381 l 825 381 q 821 470 824 419 q 817 571 818 521 q 815 654 815 621 l 815 992 l 1004 992 l 1004 0 q 917 -222 1004 -151 q 689 -292 829 -292 z "},"ŋ":{"ha":913,"x_min":108,"x_max":808,"o":"m 563 -333 q 496 -328 531 -333 q 438 -317 461 -324 l 438 -154 q 477 -163 458 -160 q 518 -167 496 -167 q 577 -143 553 -167 q 601 -51 601 -119 l 601 458 q 479 607 601 607 q 350 542 385 607 q 315 357 315 478 l 315 0 l 108 0 l 108 758 l 267 758 l 294 661 l 307 661 q 406 746 343 719 q 539 772 469 772 q 735 706 661 772 q 808 494 808 640 l 808 -82 q 784 -208 808 -151 q 706 -299 760 -265 q 563 -333 651 -333 z "},"Ō":{"ha":1106,"x_min":81,"x_max":1025,"o":"m 1025 497 q 974 228 1025 343 q 819 50 924 114 q 553 -14 715 -14 q 287 50 392 -14 q 131 229 182 114 q 81 499 81 344 q 131 767 81 653 q 287 944 182 881 q 554 1007 392 1007 q 819 944 715 1007 q 974 766 924 881 q 1025 497 1025 651 m 301 497 q 361 252 301 342 q 553 163 421 163 q 746 252 688 163 q 804 497 804 342 q 746 743 804 654 q 554 832 688 832 q 361 743 421 832 q 301 497 301 654 m 782 1218 l 782 1075 l 322 1075 l 322 1218 l 782 1218 z "},"ō":{"ha":860,"x_min":63,"x_max":797,"o":"m 797 381 q 698 89 797 192 q 428 -14 599 -14 q 240 32 322 -14 q 110 166 157 78 q 63 381 63 254 q 161 671 63 569 q 432 772 260 772 q 621 726 539 772 q 750 594 703 681 q 797 381 797 507 m 274 381 q 310 210 274 268 q 431 153 347 153 q 549 210 513 153 q 586 381 586 268 q 549 549 586 493 q 429 606 513 606 q 310 549 347 606 q 274 381 274 493 m 660 985 l 660 842 l 200 842 l 200 985 l 660 985 z "},"Ŏ":{"ha":1106,"x_min":81,"x_max":1025,"o":"m 1025 497 q 974 228 1025 343 q 819 50 924 114 q 553 -14 715 -14 q 287 50 392 -14 q 131 229 182 114 q 81 499 81 344 q 131 767 81 653 q 287 944 182 881 q 554 1007 392 1007 q 819 944 715 1007 q 974 766 924 881 q 1025 497 1025 651 m 301 497 q 361 252 301 342 q 553 163 421 163 q 746 252 688 163 q 804 497 804 342 q 746 743 804 654 q 554 832 688 832 q 361 743 421 832 q 301 497 301 654 m 819 1304 q 739 1139 813 1203 q 550 1075 665 1075 q 361 1138 431 1075 q 286 1304 292 1200 l 401 1304 q 426 1247 406 1265 q 479 1224 446 1229 q 551 1219 513 1219 q 617 1226 585 1219 q 674 1250 650 1232 q 701 1304 697 1268 l 819 1304 z "},"ŏ":{"ha":860,"x_min":63,"x_max":797,"o":"m 797 381 q 698 89 797 192 q 428 -14 599 -14 q 240 32 322 -14 q 110 166 157 78 q 63 381 63 254 q 161 671 63 569 q 432 772 260 772 q 621 726 539 772 q 750 594 703 681 q 797 381 797 507 m 274 381 q 310 210 274 268 q 431 153 347 153 q 549 210 513 153 q 586 381 586 268 q 549 549 586 493 q 429 606 513 606 q 310 549 347 606 q 274 381 274 493 m 697 1071 q 617 906 690 969 q 428 842 543 842 q 239 904 308 842 q 164 1071 169 967 l 279 1071 q 303 1014 283 1032 q 357 991 324 996 q 429 986 390 986 q 495 992 463 986 q 551 1017 528 999 q 579 1071 575 1035 l 697 1071 z "},"Ő":{"ha":1106,"x_min":81,"x_max":1025,"o":"m 1025 497 q 974 228 1025 343 q 819 50 924 114 q 553 -14 715 -14 q 287 50 392 -14 q 131 229 182 114 q 81 499 81 344 q 131 767 81 653 q 287 944 182 881 q 554 1007 392 1007 q 819 944 715 1007 q 974 766 924 881 q 1025 497 1025 651 m 301 497 q 361 252 301 342 q 553 163 421 163 q 746 252 688 163 q 804 497 804 342 q 746 743 804 654 q 554 832 688 832 q 361 743 421 832 q 301 497 301 654 m 856 1283 q 818 1238 844 1265 q 757 1179 792 1210 q 688 1122 722 1149 q 629 1075 654 1094 l 519 1075 l 519 1093 q 564 1156 539 1119 q 613 1229 589 1192 q 651 1297 636 1267 l 856 1297 l 856 1283 m 586 1283 q 549 1238 575 1265 q 488 1179 522 1210 q 419 1122 453 1149 q 360 1075 385 1094 l 250 1075 l 250 1093 q 294 1156 269 1119 q 342 1229 318 1192 q 382 1297 365 1267 l 586 1297 l 586 1283 z "},"ő":{"ha":860,"x_min":63,"x_max":797,"o":"m 797 381 q 698 89 797 192 q 428 -14 599 -14 q 240 32 322 -14 q 110 166 157 78 q 63 381 63 254 q 161 671 63 569 q 432 772 260 772 q 621 726 539 772 q 750 594 703 681 q 797 381 797 507 m 274 381 q 310 210 274 268 q 431 153 347 153 q 549 210 513 153 q 586 381 586 268 q 549 549 586 493 q 429 606 513 606 q 310 549 347 606 q 274 381 274 493 m 733 1050 q 696 1004 722 1032 q 635 946 669 976 q 566 888 600 915 q 507 842 532 861 l 397 842 l 397 860 q 442 922 417 886 q 490 996 467 958 q 529 1064 514 1033 l 733 1064 l 733 1050 m 464 1050 q 426 1004 453 1032 q 365 946 400 976 q 297 888 331 915 q 238 842 263 861 l 128 842 l 128 860 q 172 922 147 886 q 219 996 196 958 q 260 1064 243 1033 l 464 1064 l 464 1050 z "},"Œ":{"ha":1351,"x_min":81,"x_max":1269,"o":"m 526 1007 q 606 1003 563 1007 q 681 992 650 999 l 1269 992 l 1269 819 l 888 819 l 888 601 l 1244 601 l 1244 429 l 888 429 l 888 174 l 1269 174 l 1269 0 l 678 0 q 604 -10 647 -6 q 525 -14 561 -14 q 275 50 374 -14 q 128 229 176 114 q 81 499 81 344 q 128 767 81 653 q 275 944 176 881 q 526 1007 374 1007 m 526 832 q 353 743 408 832 q 297 497 297 654 q 352 252 297 342 q 525 163 407 163 q 608 169 565 163 q 678 189 651 176 l 678 804 q 610 825 653 818 q 526 832 567 832 z "},"œ":{"ha":1358,"x_min":63,"x_max":1299,"o":"m 949 772 q 1204 683 1110 772 q 1299 428 1299 593 l 1299 328 l 793 328 q 849 190 797 239 q 989 140 900 140 q 1128 155 1065 140 q 1256 200 1190 169 l 1256 40 q 1134 -1 1197 13 q 981 -14 1071 -14 q 822 12 894 -14 q 696 92 749 38 q 581 13 649 39 q 431 -14 513 -14 q 240 32 322 -14 q 110 166 157 78 q 63 381 63 254 q 159 671 63 569 q 429 772 256 772 q 574 746 506 772 q 689 667 642 719 q 949 772 786 772 m 953 625 q 847 586 889 625 q 799 465 806 547 l 1104 465 q 1066 580 1103 535 q 953 625 1029 625 m 429 606 q 310 549 347 606 q 274 381 274 493 q 310 210 274 268 q 431 153 347 153 q 549 210 513 153 q 586 381 586 268 q 549 549 586 493 q 429 606 513 606 z "},"Ŕ":{"ha":917,"x_min":125,"x_max":917,"o":"m 414 992 q 713 918 617 992 q 810 694 810 844 q 784 576 810 626 q 716 490 758 525 q 625 432 674 454 l 917 0 l 683 0 l 447 381 l 335 381 l 335 0 l 125 0 l 125 992 l 414 992 m 399 819 l 335 819 l 335 551 l 403 551 q 552 586 507 551 q 597 689 597 621 q 549 790 597 760 q 399 819 501 819 m 763 1283 q 711 1236 743 1264 q 642 1178 679 1208 q 570 1120 606 1147 q 508 1075 535 1093 l 371 1075 l 371 1093 q 423 1155 393 1119 q 482 1228 453 1190 q 531 1297 511 1267 l 763 1297 l 763 1283 z "},"ŕ":{"ha":631,"x_min":108,"x_max":646,"o":"m 532 772 q 568 771 547 772 q 601 767 589 769 l 586 572 q 558 577 576 575 q 525 579 539 579 q 424 560 472 579 q 345 500 375 542 q 315 386 315 458 l 315 0 l 108 0 l 108 758 l 265 758 l 296 631 l 306 631 q 397 731 339 689 q 532 772 456 772 m 646 1050 q 594 1003 626 1031 q 526 944 563 975 q 453 887 489 914 q 392 842 418 860 l 254 842 l 254 860 q 306 922 276 886 q 365 995 336 957 q 414 1064 394 1033 l 646 1064 l 646 1050 z "},"Ŗ":{"ha":917,"x_min":125,"x_max":917,"o":"m 414 992 q 713 918 617 992 q 810 694 810 844 q 784 576 810 626 q 716 490 758 525 q 625 432 674 454 l 917 0 l 683 0 l 447 381 l 335 381 l 335 0 l 125 0 l 125 992 l 414 992 m 399 819 l 335 819 l 335 551 l 403 551 q 552 586 507 551 q 597 689 597 621 q 549 790 597 760 q 399 819 501 819 m 614 -99 q 565 -198 593 -144 q 501 -307 538 -251 l 381 -307 l 381 -289 q 404 -189 392 -249 q 422 -85 417 -129 l 614 -85 l 614 -99 z "},"ŗ":{"ha":631,"x_min":100,"x_max":601,"o":"m 532 772 q 568 771 547 772 q 601 767 589 769 l 586 572 q 558 577 576 575 q 525 579 539 579 q 424 560 472 579 q 345 500 375 542 q 315 386 315 458 l 315 0 l 108 0 l 108 758 l 265 758 l 296 631 l 306 631 q 397 731 339 689 q 532 772 456 772 m 333 -99 q 285 -198 313 -144 q 221 -307 257 -251 l 100 -307 l 100 -289 q 124 -189 111 -249 q 142 -85 136 -129 l 333 -85 l 333 -99 z "},"Ř":{"ha":917,"x_min":125,"x_max":917,"o":"m 414 992 q 713 918 617 992 q 810 694 810 844 q 784 576 810 626 q 716 490 758 525 q 625 432 674 454 l 917 0 l 683 0 l 447 381 l 335 381 l 335 0 l 125 0 l 125 992 l 414 992 m 399 819 l 335 819 l 335 551 l 403 551 q 552 586 507 551 q 597 689 597 621 q 549 790 597 760 q 399 819 501 819 m 349 1075 q 298 1144 329 1107 q 234 1218 267 1182 q 175 1279 201 1254 l 175 1297 l 313 1297 q 390 1245 349 1275 q 468 1178 432 1215 q 547 1245 504 1215 q 626 1297 590 1275 l 764 1297 l 764 1279 q 706 1218 739 1254 q 641 1144 672 1182 q 590 1075 610 1107 l 349 1075 z "},"ř":{"ha":631,"x_min":58,"x_max":647,"o":"m 532 772 q 568 771 547 772 q 601 767 589 769 l 586 572 q 558 577 576 575 q 525 579 539 579 q 424 560 472 579 q 345 500 375 542 q 315 386 315 458 l 315 0 l 108 0 l 108 758 l 265 758 l 296 631 l 306 631 q 397 731 339 689 q 532 772 456 772 m 232 842 q 181 911 213 874 q 117 985 150 949 q 58 1046 85 1021 l 58 1064 l 196 1064 q 274 1012 232 1042 q 351 944 315 982 q 431 1012 388 982 q 510 1064 474 1042 l 647 1064 l 647 1046 q 589 985 622 1021 q 524 911 556 949 q 474 842 493 874 l 232 842 z "},"Ś":{"ha":765,"x_min":64,"x_max":710,"o":"m 710 275 q 615 65 710 143 q 344 -14 519 -14 q 64 46 188 -14 l 64 242 q 210 185 135 211 q 361 160 286 160 q 472 190 439 160 q 504 265 504 219 q 478 329 504 303 q 410 378 453 356 q 311 428 367 401 q 236 467 276 444 q 159 524 196 490 q 99 607 122 558 q 75 724 75 656 q 165 931 75 857 q 411 1006 256 1006 q 559 988 489 1006 q 706 936 629 969 l 638 772 q 515 815 569 800 q 404 831 461 831 q 313 803 344 831 q 281 731 281 775 q 328 647 281 678 q 468 572 375 617 q 598 497 544 536 q 681 406 651 458 q 710 275 710 353 m 688 1283 q 636 1236 668 1264 q 567 1178 604 1208 q 495 1120 531 1147 q 433 1075 460 1093 l 296 1075 l 296 1093 q 348 1155 318 1119 q 407 1228 378 1190 q 456 1297 436 1267 l 688 1297 l 688 1283 z "},"ś":{"ha":690,"x_min":63,"x_max":639,"o":"m 638 225 q 556 48 638 110 q 314 -14 475 -14 q 178 -3 235 -14 q 64 31 121 7 l 64 201 q 196 156 125 174 q 321 138 267 138 q 408 156 382 138 q 433 203 433 174 q 423 238 433 222 q 378 272 413 253 q 269 322 343 292 q 153 383 199 353 q 85 455 107 413 q 63 561 63 497 q 144 719 63 667 q 363 772 226 772 q 497 758 433 772 q 629 713 561 744 l 567 564 q 461 603 511 588 q 360 619 411 619 q 268 569 268 619 q 280 537 268 551 q 326 506 292 522 q 426 461 360 489 q 539 406 492 435 q 612 335 586 378 q 638 225 638 293 m 639 1050 q 588 1003 619 1031 q 519 944 556 975 q 447 887 482 914 q 385 842 411 860 l 247 842 l 247 860 q 299 922 269 886 q 358 995 329 957 q 407 1064 388 1033 l 639 1064 l 639 1050 z "},"Ŝ":{"ha":765,"x_min":64,"x_max":710,"o":"m 710 275 q 615 65 710 143 q 344 -14 519 -14 q 64 46 188 -14 l 64 242 q 210 185 135 211 q 361 160 286 160 q 472 190 439 160 q 504 265 504 219 q 478 329 504 303 q 410 378 453 356 q 311 428 367 401 q 236 467 276 444 q 159 524 196 490 q 99 607 122 558 q 75 724 75 656 q 165 931 75 857 q 411 1006 256 1006 q 559 988 489 1006 q 706 936 629 969 l 638 772 q 515 815 569 800 q 404 831 461 831 q 313 803 344 831 q 281 731 281 775 q 328 647 281 678 q 468 572 375 617 q 598 497 544 536 q 681 406 651 458 q 710 275 710 353 m 515 1297 q 566 1228 535 1267 q 631 1154 597 1190 q 689 1093 664 1118 l 689 1075 l 551 1075 q 472 1127 515 1097 q 393 1194 429 1157 q 315 1128 357 1157 q 238 1075 274 1099 l 100 1075 l 100 1093 q 159 1155 126 1119 q 223 1228 192 1190 q 274 1297 254 1267 l 515 1297 z "},"ŝ":{"ha":690,"x_min":51,"x_max":640,"o":"m 638 225 q 556 48 638 110 q 314 -14 475 -14 q 178 -3 235 -14 q 64 31 121 7 l 64 201 q 196 156 125 174 q 321 138 267 138 q 408 156 382 138 q 433 203 433 174 q 423 238 433 222 q 378 272 413 253 q 269 322 343 292 q 153 383 199 353 q 85 455 107 413 q 63 561 63 497 q 144 719 63 667 q 363 772 226 772 q 497 758 433 772 q 629 713 561 744 l 567 564 q 461 603 511 588 q 360 619 411 619 q 268 569 268 619 q 280 537 268 551 q 326 506 292 522 q 426 461 360 489 q 539 406 492 435 q 612 335 586 378 q 638 225 638 293 m 467 1064 q 517 995 486 1033 q 582 921 549 957 q 640 860 615 885 l 640 842 l 503 842 q 424 894 467 864 q 344 961 381 924 q 267 894 308 924 q 189 842 225 865 l 51 842 l 51 860 q 110 922 78 886 q 174 995 143 957 q 225 1064 206 1033 l 467 1064 z "},"Ş":{"ha":765,"x_min":64,"x_max":710,"o":"m 710 275 q 615 65 710 143 q 344 -14 519 -14 q 64 46 188 -14 l 64 242 q 210 185 135 211 q 361 160 286 160 q 472 190 439 160 q 504 265 504 219 q 478 329 504 303 q 410 378 453 356 q 311 428 367 401 q 236 467 276 444 q 159 524 196 490 q 99 607 122 558 q 75 724 75 656 q 165 931 75 857 q 411 1006 256 1006 q 559 988 489 1006 q 706 936 629 969 l 638 772 q 515 815 569 800 q 404 831 461 831 q 313 803 344 831 q 281 731 281 775 q 328 647 281 678 q 468 572 375 617 q 598 497 544 536 q 681 406 651 458 q 710 275 710 353 m 526 -169 q 481 -290 526 -247 q 317 -333 436 -333 q 262 -329 286 -333 q 218 -319 238 -325 l 218 -206 q 266 -215 238 -211 q 315 -219 294 -219 q 349 -210 335 -219 q 364 -178 364 -201 q 339 -133 364 -153 q 251 -104 314 -114 l 304 0 l 435 0 l 417 -42 q 492 -87 458 -56 q 526 -169 526 -118 z "},"ş":{"ha":690,"x_min":63,"x_max":638,"o":"m 638 225 q 556 48 638 110 q 314 -14 475 -14 q 178 -3 235 -14 q 64 31 121 7 l 64 201 q 196 156 125 174 q 321 138 267 138 q 408 156 382 138 q 433 203 433 174 q 423 238 433 222 q 378 272 413 253 q 269 322 343 292 q 153 383 199 353 q 85 455 107 413 q 63 561 63 497 q 144 719 63 667 q 363 772 226 772 q 497 758 433 772 q 629 713 561 744 l 567 564 q 461 603 511 588 q 360 619 411 619 q 268 569 268 619 q 280 537 268 551 q 326 506 292 522 q 426 461 360 489 q 539 406 492 435 q 612 335 586 378 q 638 225 638 293 m 500 -169 q 455 -290 500 -247 q 290 -333 410 -333 q 235 -329 260 -333 q 192 -319 211 -325 l 192 -206 q 240 -215 211 -211 q 289 -219 268 -219 q 323 -210 308 -219 q 338 -178 338 -201 q 313 -133 338 -153 q 225 -104 288 -114 l 278 0 l 408 0 l 390 -42 q 466 -87 432 -56 q 500 -169 500 -118 z "},"Š":{"ha":765,"x_min":64,"x_max":710,"o":"m 710 275 q 615 65 710 143 q 344 -14 519 -14 q 64 46 188 -14 l 64 242 q 210 185 135 211 q 361 160 286 160 q 472 190 439 160 q 504 265 504 219 q 478 329 504 303 q 410 378 453 356 q 311 428 367 401 q 236 467 276 444 q 159 524 196 490 q 99 607 122 558 q 75 724 75 656 q 165 931 75 857 q 411 1006 256 1006 q 559 988 489 1006 q 706 936 629 969 l 638 772 q 515 815 569 800 q 404 831 461 831 q 313 803 344 831 q 281 731 281 775 q 328 647 281 678 q 468 572 375 617 q 598 497 544 536 q 681 406 651 458 q 710 275 710 353 m 274 1075 q 223 1144 254 1107 q 159 1218 192 1182 q 100 1279 126 1254 l 100 1297 l 238 1297 q 315 1245 274 1275 q 393 1178 357 1215 q 472 1245 429 1215 q 551 1297 515 1275 l 689 1297 l 689 1279 q 631 1218 664 1254 q 566 1144 597 1182 q 515 1075 535 1107 l 274 1075 z "},"š":{"ha":690,"x_min":51,"x_max":640,"o":"m 638 225 q 556 48 638 110 q 314 -14 475 -14 q 178 -3 235 -14 q 64 31 121 7 l 64 201 q 196 156 125 174 q 321 138 267 138 q 408 156 382 138 q 433 203 433 174 q 423 238 433 222 q 378 272 413 253 q 269 322 343 292 q 153 383 199 353 q 85 455 107 413 q 63 561 63 497 q 144 719 63 667 q 363 772 226 772 q 497 758 433 772 q 629 713 561 744 l 567 564 q 461 603 511 588 q 360 619 411 619 q 268 569 268 619 q 280 537 268 551 q 326 506 292 522 q 426 461 360 489 q 539 406 492 435 q 612 335 586 378 q 638 225 638 293 m 225 842 q 174 911 206 874 q 110 985 143 949 q 51 1046 78 1021 l 51 1064 l 189 1064 q 267 1012 225 1042 q 344 944 308 982 q 424 1012 381 982 q 503 1064 467 1042 l 640 1064 l 640 1046 q 582 985 615 1021 q 517 911 549 949 q 467 842 486 874 l 225 842 z "},"Ț":{"ha":804,"x_min":28,"x_max":776,"o":"m 507 0 l 297 0 l 297 817 l 28 817 l 28 992 l 776 992 l 776 817 l 507 817 l 507 0 m 519 -99 q 471 -198 499 -144 q 407 -307 443 -251 l 286 -307 l 286 -289 q 310 -189 297 -249 q 328 -85 322 -129 l 519 -85 l 519 -99 z "},"ț":{"ha":603,"x_min":32,"x_max":558,"o":"m 428 151 q 494 158 463 151 q 558 175 526 165 l 558 21 q 476 -3 525 7 q 368 -14 426 -14 q 247 8 300 -14 q 162 85 193 31 q 131 238 131 140 l 131 603 l 32 603 l 32 690 l 146 760 l 206 919 l 338 919 l 338 758 l 550 758 l 550 603 l 338 603 l 338 238 q 363 173 338 194 q 428 151 388 151 m 451 -99 q 403 -198 431 -144 q 339 -307 375 -251 l 218 -307 l 218 -289 q 242 -189 229 -249 q 260 -85 254 -129 l 451 -85 l 451 -99 z "},"Ť":{"ha":804,"x_min":28,"x_max":776,"o":"m 507 0 l 297 0 l 297 817 l 28 817 l 28 992 l 776 992 l 776 817 l 507 817 l 507 0 m 282 1075 q 231 1144 263 1107 q 167 1218 200 1182 q 108 1279 135 1254 l 108 1297 l 246 1297 q 324 1245 282 1275 q 401 1178 365 1215 q 481 1245 438 1215 q 560 1297 524 1275 l 697 1297 l 697 1279 q 639 1218 672 1254 q 574 1144 606 1182 q 524 1075 543 1107 l 282 1075 z "},"ť":{"ha":603,"x_min":32,"x_max":792,"o":"m 792 1042 q 743 942 771 996 q 679 833 715 889 l 558 833 l 558 851 q 582 951 569 892 q 600 1056 594 1011 l 792 1056 l 792 1042 m 428 151 q 494 158 463 151 q 558 175 526 165 l 558 21 q 476 -3 525 7 q 368 -14 426 -14 q 247 8 300 -14 q 162 85 193 31 q 131 238 131 140 l 131 603 l 32 603 l 32 690 l 146 760 l 206 919 l 338 919 l 338 758 l 550 758 l 550 603 l 338 603 l 338 238 q 363 173 338 194 q 428 151 388 151 z "},"Ŧ":{"ha":804,"x_min":28,"x_max":776,"o":"m 297 0 l 297 404 l 129 404 l 129 576 l 297 576 l 297 817 l 28 817 l 28 992 l 776 992 l 776 817 l 507 817 l 507 576 l 675 576 l 675 404 l 507 404 l 507 0 l 297 0 z "},"ŧ":{"ha":603,"x_min":32,"x_max":558,"o":"m 44 338 l 44 472 l 131 472 l 131 603 l 32 603 l 32 690 l 146 760 l 206 919 l 338 919 l 338 758 l 550 758 l 550 603 l 338 603 l 338 472 l 526 472 l 526 338 l 338 338 l 338 238 q 363 173 338 194 q 428 151 388 151 q 494 158 463 151 q 558 175 526 165 l 558 21 q 476 -3 525 7 q 368 -14 426 -14 q 247 8 300 -14 q 162 85 193 31 q 131 238 131 140 l 131 338 l 44 338 z "},"Ũ":{"ha":1050,"x_min":118,"x_max":932,"o":"m 932 350 q 887 165 932 247 q 751 34 842 82 q 521 -14 660 -14 q 221 87 324 -14 q 118 353 118 188 l 118 992 l 328 992 l 328 385 q 378 213 328 263 q 526 163 428 163 q 676 217 629 163 q 722 386 722 271 l 722 992 l 932 992 l 932 350 m 244 1074 q 305 1233 253 1182 q 429 1283 357 1283 q 502 1265 467 1283 q 572 1230 538 1247 q 638 1213 606 1213 q 678 1231 658 1213 q 706 1285 697 1249 l 807 1285 q 746 1126 799 1178 q 622 1075 693 1075 q 551 1092 586 1075 q 481 1128 515 1110 q 414 1146 447 1146 q 374 1128 393 1146 q 346 1074 354 1110 l 244 1074 z "},"ũ":{"ha":913,"x_min":104,"x_max":804,"o":"m 804 758 l 804 0 l 646 0 l 618 97 l 607 97 q 508 13 571 39 q 374 -14 444 -14 q 178 52 251 -14 q 104 264 104 118 l 104 758 l 311 758 l 311 315 q 340 193 311 235 q 433 151 369 151 q 563 216 528 151 q 597 401 597 281 l 597 758 l 804 758 m 176 840 q 237 999 185 949 q 361 1050 289 1050 q 434 1032 399 1050 q 503 997 469 1014 q 569 979 538 979 q 610 997 590 979 q 638 1051 629 1015 l 739 1051 q 678 893 731 944 q 554 842 625 842 q 483 859 518 842 q 413 894 447 876 q 346 913 379 913 q 306 894 325 913 q 278 840 286 876 l 176 840 z "},"Ū":{"ha":1050,"x_min":118,"x_max":932,"o":"m 932 350 q 887 165 932 247 q 751 34 842 82 q 521 -14 660 -14 q 221 87 324 -14 q 118 353 118 188 l 118 992 l 328 992 l 328 385 q 378 213 328 263 q 526 163 428 163 q 676 217 629 163 q 722 386 722 271 l 722 992 l 932 992 l 932 350 m 754 1218 l 754 1075 l 294 1075 l 294 1218 l 754 1218 z "},"ū":{"ha":913,"x_min":104,"x_max":804,"o":"m 804 758 l 804 0 l 646 0 l 618 97 l 607 97 q 508 13 571 39 q 374 -14 444 -14 q 178 52 251 -14 q 104 264 104 118 l 104 758 l 311 758 l 311 315 q 340 193 311 235 q 433 151 369 151 q 563 216 528 151 q 597 401 597 281 l 597 758 l 804 758 m 686 985 l 686 842 l 226 842 l 226 985 l 686 985 z "},"Ŭ":{"ha":1050,"x_min":118,"x_max":932,"o":"m 932 350 q 887 165 932 247 q 751 34 842 82 q 521 -14 660 -14 q 221 87 324 -14 q 118 353 118 188 l 118 992 l 328 992 l 328 385 q 378 213 328 263 q 526 163 428 163 q 676 217 629 163 q 722 386 722 271 l 722 992 l 932 992 l 932 350 m 792 1304 q 711 1139 785 1203 q 522 1075 638 1075 q 333 1138 403 1075 q 258 1304 264 1200 l 374 1304 q 398 1247 378 1265 q 451 1224 418 1229 q 524 1219 485 1219 q 590 1226 557 1219 q 646 1250 622 1232 q 674 1304 669 1268 l 792 1304 z "},"ŭ":{"ha":913,"x_min":104,"x_max":804,"o":"m 804 758 l 804 0 l 646 0 l 618 97 l 607 97 q 508 13 571 39 q 374 -14 444 -14 q 178 52 251 -14 q 104 264 104 118 l 104 758 l 311 758 l 311 315 q 340 193 311 235 q 433 151 369 151 q 563 216 528 151 q 597 401 597 281 l 597 758 l 804 758 m 724 1071 q 643 906 717 969 q 454 842 569 842 q 265 904 335 842 q 190 1071 196 967 l 306 1071 q 330 1014 310 1032 q 383 991 350 996 q 456 986 417 986 q 522 992 489 986 q 578 1017 554 999 q 606 1071 601 1035 l 724 1071 z "},"Ů":{"ha":1050,"x_min":118,"x_max":932,"o":"m 932 350 q 887 165 932 247 q 751 34 842 82 q 521 -14 660 -14 q 221 87 324 -14 q 118 353 118 188 l 118 992 l 328 992 l 328 385 q 378 213 328 263 q 526 163 428 163 q 676 217 629 163 q 722 386 722 271 l 722 992 l 932 992 l 932 350 m 522 1074 q 401 1117 447 1074 q 354 1235 354 1160 q 401 1353 354 1310 q 522 1396 447 1396 q 644 1353 594 1396 q 694 1236 694 1310 q 645 1117 694 1160 q 522 1074 596 1074 m 522 1169 q 569 1187 550 1169 q 588 1235 588 1204 q 569 1283 588 1265 q 522 1300 550 1300 q 476 1283 494 1300 q 457 1235 457 1265 q 474 1187 457 1204 q 522 1169 490 1169 z "},"ů":{"ha":913,"x_min":104,"x_max":804,"o":"m 804 758 l 804 0 l 646 0 l 618 97 l 607 97 q 508 13 571 39 q 374 -14 444 -14 q 178 52 251 -14 q 104 264 104 118 l 104 758 l 311 758 l 311 315 q 340 193 311 235 q 433 151 369 151 q 563 216 528 151 q 597 401 597 281 l 597 758 l 804 758 m 454 840 q 333 883 379 840 q 286 1001 286 926 q 333 1119 286 1076 q 454 1163 379 1163 q 576 1119 526 1163 q 626 1003 626 1076 q 577 883 626 926 q 454 840 528 840 m 454 936 q 501 953 482 936 q 519 1001 519 971 q 501 1049 519 1032 q 454 1067 482 1067 q 408 1049 426 1067 q 389 1001 389 1032 q 406 953 389 971 q 454 936 422 936 z "},"Ű":{"ha":1050,"x_min":118,"x_max":932,"o":"m 932 350 q 887 165 932 247 q 751 34 842 82 q 521 -14 660 -14 q 221 87 324 -14 q 118 353 118 188 l 118 992 l 328 992 l 328 385 q 378 213 328 263 q 526 163 428 163 q 676 217 629 163 q 722 386 722 271 l 722 992 l 932 992 l 932 350 m 828 1283 q 790 1238 817 1265 q 729 1179 764 1210 q 660 1122 694 1149 q 601 1075 626 1094 l 492 1075 l 492 1093 q 536 1156 511 1119 q 585 1229 561 1192 q 624 1297 608 1267 l 828 1297 l 828 1283 m 558 1283 q 521 1238 547 1265 q 460 1179 494 1210 q 391 1122 425 1149 q 332 1075 357 1094 l 222 1075 l 222 1093 q 266 1156 242 1119 q 314 1229 290 1192 q 354 1297 338 1267 l 558 1297 l 558 1283 z "},"ű":{"ha":913,"x_min":104,"x_max":804,"o":"m 804 758 l 804 0 l 646 0 l 618 97 l 607 97 q 508 13 571 39 q 374 -14 444 -14 q 178 52 251 -14 q 104 264 104 118 l 104 758 l 311 758 l 311 315 q 340 193 311 235 q 433 151 369 151 q 563 216 528 151 q 597 401 597 281 l 597 758 l 804 758 m 760 1050 q 722 1004 749 1032 q 661 946 696 976 q 592 888 626 915 q 533 842 558 861 l 424 842 l 424 860 q 468 922 443 886 q 517 996 493 958 q 556 1064 540 1033 l 760 1064 l 760 1050 m 490 1050 q 453 1004 479 1032 q 392 946 426 976 q 323 888 357 915 q 264 842 289 861 l 154 842 l 154 860 q 198 922 174 886 q 246 996 222 958 q 286 1064 269 1033 l 490 1064 l 490 1050 z "},"Ų":{"ha":1050,"x_min":118,"x_max":932,"o":"m 674 -139 q 690 -192 674 -174 q 731 -210 707 -210 q 772 -206 753 -210 q 806 -197 792 -201 l 806 -318 q 758 -328 783 -324 q 700 -333 733 -333 q 576 -289 622 -333 q 531 -168 531 -244 q 549 -84 531 -125 q 597 -10 567 -43 q 521 -14 561 -14 q 221 87 324 -14 q 118 353 118 188 l 118 992 l 328 992 l 328 385 q 378 213 328 263 q 526 163 428 163 q 676 217 629 163 q 722 386 722 271 l 722 992 l 932 992 l 932 350 q 899 187 932 261 q 797 64 865 113 q 703 -48 732 1 q 674 -139 674 -97 z "},"ų":{"ha":913,"x_min":104,"x_max":804,"o":"m 804 758 l 804 0 l 646 0 l 618 97 l 607 97 q 508 13 571 39 q 374 -14 444 -14 q 178 52 251 -14 q 104 264 104 118 l 104 758 l 311 758 l 311 315 q 340 193 311 235 q 433 151 369 151 q 563 216 528 151 q 597 401 597 281 l 597 758 l 804 758 m 660 -154 q 675 -196 660 -182 q 714 -210 690 -210 q 757 -206 736 -210 q 792 -197 778 -201 l 792 -318 q 744 -328 769 -324 q 686 -333 719 -333 q 563 -290 608 -333 q 517 -178 517 -246 q 561 -64 517 -117 q 669 24 606 -11 l 760 0 q 686 -81 713 -44 q 660 -154 660 -118 z "},"Ŵ":{"ha":1343,"x_min":0,"x_max":1343,"o":"m 1343 992 l 1090 0 l 851 0 l 717 521 q 706 567 713 536 q 692 633 700 597 q 679 702 685 669 q 671 753 674 735 q 663 702 669 735 q 650 634 657 669 q 636 567 643 599 q 625 519 629 536 l 492 0 l 253 0 l 0 992 l 207 992 l 333 450 q 351 369 342 418 q 369 272 361 321 q 382 190 378 224 q 394 273 386 225 q 412 366 403 321 q 428 436 421 411 l 572 992 l 771 992 l 915 436 q 931 367 922 413 q 949 272 940 321 q 961 190 957 224 q 974 273 965 225 q 992 369 982 321 q 1010 450 1003 418 l 1136 992 l 1343 992 m 793 1297 q 844 1228 813 1267 q 908 1154 875 1190 q 967 1093 942 1118 l 967 1075 l 829 1075 q 750 1127 793 1097 q 671 1194 707 1157 q 593 1128 635 1157 q 515 1075 551 1099 l 378 1075 l 378 1093 q 437 1155 404 1119 q 501 1228 469 1190 q 551 1297 532 1267 l 793 1297 z "},"ŵ":{"ha":1189,"x_min":14,"x_max":1175,"o":"m 674 265 q 658 335 668 289 q 635 435 647 382 q 611 534 622 489 q 596 600 600 579 l 590 600 q 576 534 586 579 q 553 435 565 489 q 529 335 540 382 q 513 263 518 288 l 451 0 l 229 0 l 14 758 l 219 758 l 307 422 q 324 339 317 388 q 339 245 332 290 q 349 174 346 200 l 354 174 q 360 226 356 193 q 370 293 364 258 q 381 356 376 328 q 389 394 386 385 l 482 758 l 710 758 l 799 394 q 812 332 804 375 q 826 244 819 289 q 832 174 832 200 l 838 174 q 847 242 840 197 q 863 338 854 288 q 882 422 872 388 l 972 758 l 1175 758 l 957 0 l 732 0 l 674 265 m 715 1064 q 766 995 735 1033 q 831 921 797 957 q 889 860 864 885 l 889 842 l 751 842 q 672 894 715 864 q 593 961 629 924 q 515 894 557 924 q 438 842 474 865 l 300 842 l 300 860 q 359 922 326 886 q 423 995 392 957 q 474 1064 454 1033 l 715 1064 z "},"Ŷ":{"ha":867,"x_min":0,"x_max":867,"o":"m 433 583 l 640 992 l 867 992 l 538 386 l 538 0 l 329 0 l 329 379 l 0 992 l 228 992 l 433 583 m 554 1297 q 605 1228 574 1267 q 669 1154 636 1190 q 728 1093 703 1118 l 728 1075 l 590 1075 q 511 1127 554 1097 q 432 1194 468 1157 q 354 1128 396 1157 q 276 1075 313 1099 l 139 1075 l 139 1093 q 198 1155 165 1119 q 262 1228 231 1190 q 313 1297 293 1267 l 554 1297 z "},"ŷ":{"ha":790,"x_min":0,"x_max":790,"o":"m 0 758 l 226 758 l 369 332 q 386 269 381 301 q 394 200 392 236 l 399 200 q 410 269 403 236 q 428 332 418 301 l 568 758 l 790 758 l 469 -97 q 344 -274 426 -215 q 153 -333 261 -333 q 92 -330 118 -333 q 47 -322 67 -326 l 47 -158 q 84 -164 63 -161 q 129 -167 106 -167 q 233 -127 194 -167 q 289 -32 271 -87 l 301 6 l 0 758 m 517 1064 q 567 995 536 1033 q 632 921 599 957 q 690 860 665 885 l 690 842 l 553 842 q 474 894 517 864 q 394 961 431 924 q 317 894 358 924 q 239 842 275 865 l 101 842 l 101 860 q 160 922 128 886 q 224 995 193 957 q 275 1064 256 1033 l 517 1064 z "},"Ÿ":{"ha":867,"x_min":0,"x_max":867,"o":"m 433 583 l 640 992 l 867 992 l 538 386 l 538 0 l 329 0 l 329 379 l 0 992 l 228 992 l 433 583 m 200 1186 q 228 1256 200 1235 q 294 1278 256 1278 q 362 1256 333 1278 q 390 1186 390 1235 q 362 1118 390 1140 q 294 1096 333 1096 q 228 1118 256 1096 q 200 1186 200 1140 m 474 1186 q 501 1256 474 1235 q 569 1278 529 1278 q 637 1256 608 1278 q 665 1186 665 1235 q 637 1118 665 1140 q 569 1096 608 1096 q 501 1118 529 1096 q 474 1186 474 1140 z "},"Ź":{"ha":804,"x_min":33,"x_max":771,"o":"m 771 0 l 33 0 l 33 136 l 508 818 l 46 818 l 46 992 l 758 992 l 758 856 l 283 174 l 771 174 l 771 0 m 703 1283 q 651 1236 683 1264 q 583 1178 619 1208 q 510 1120 546 1147 q 449 1075 475 1093 l 311 1075 l 311 1093 q 363 1155 333 1119 q 422 1228 393 1190 q 471 1297 451 1267 l 703 1297 l 703 1283 z "},"ź":{"ha":678,"x_min":38,"x_max":636,"o":"m 636 0 l 38 0 l 38 122 l 389 600 l 58 600 l 58 758 l 624 758 l 624 624 l 282 158 l 636 158 l 636 0 m 632 1050 q 581 1003 613 1031 q 512 944 549 975 q 440 887 475 914 q 378 842 404 860 l 240 842 l 240 860 q 292 922 263 886 q 351 995 322 957 q 400 1064 381 1033 l 632 1064 l 632 1050 z "},"Ż":{"ha":804,"x_min":33,"x_max":771,"o":"m 771 0 l 33 0 l 33 136 l 508 818 l 46 818 l 46 992 l 758 992 l 758 856 l 283 174 l 771 174 l 771 0 m 410 1289 q 489 1267 456 1289 q 522 1188 522 1246 q 489 1108 522 1131 q 410 1086 456 1086 q 330 1108 363 1086 q 297 1188 297 1131 q 330 1267 297 1246 q 410 1289 363 1289 z "},"ż":{"ha":678,"x_min":38,"x_max":636,"o":"m 636 0 l 38 0 l 38 122 l 389 600 l 58 600 l 58 758 l 624 758 l 624 624 l 282 158 l 636 158 l 636 0 m 339 1056 q 418 1034 385 1056 q 451 954 451 1013 q 418 875 451 897 q 339 853 385 853 q 259 875 292 853 q 226 954 226 897 q 259 1034 226 1013 q 339 1056 292 1056 z "},"Ž":{"ha":804,"x_min":33,"x_max":771,"o":"m 771 0 l 33 0 l 33 136 l 508 818 l 46 818 l 46 992 l 758 992 l 758 856 l 283 174 l 771 174 l 771 0 m 289 1075 q 238 1144 269 1107 q 174 1218 207 1182 q 115 1279 142 1254 l 115 1297 l 253 1297 q 331 1245 289 1275 q 408 1178 372 1215 q 488 1245 444 1215 q 567 1297 531 1275 l 704 1297 l 704 1279 q 646 1218 679 1254 q 581 1144 613 1182 q 531 1075 550 1107 l 289 1075 z "},"ž":{"ha":678,"x_min":38,"x_max":636,"o":"m 636 0 l 38 0 l 38 122 l 389 600 l 58 600 l 58 758 l 624 758 l 624 624 l 282 158 l 636 158 l 636 0 m 218 842 q 167 911 199 874 q 103 985 136 949 q 44 1046 71 1021 l 44 1064 l 182 1064 q 260 1012 218 1042 q 338 944 301 982 q 417 1012 374 982 q 496 1064 460 1042 l 633 1064 l 633 1046 q 575 985 608 1021 q 510 911 542 949 q 460 842 479 874 l 218 842 z "},"ſ":{"ha":532,"x_min":108,"x_max":564,"o":"m 401 899 q 335 872 354 899 q 315 806 315 846 l 315 0 l 108 0 l 108 814 q 141 965 108 911 q 234 1040 174 1018 q 375 1063 294 1063 q 488 1053 442 1063 q 564 1031 533 1043 l 515 879 q 465 892 492 886 q 401 899 438 899 z "},"ƒ":{"ha":718,"x_min":8,"x_max":781,"o":"m 260 -335 q 70 -269 132 -335 q 8 -101 8 -204 q 17 -31 8 -61 q 35 21 25 -1 l 200 -33 q 186 -106 186 -69 q 204 -162 186 -142 q 250 -182 222 -182 q 302 -157 282 -182 q 322 -83 322 -132 l 322 603 l 208 603 l 208 703 l 322 758 l 322 814 q 355 965 322 911 q 448 1040 388 1018 q 590 1063 508 1063 q 701 1053 651 1063 q 781 1031 750 1043 l 728 879 q 676 892 704 886 q 613 899 649 899 q 549 872 569 899 q 529 806 529 846 l 529 758 l 708 758 l 708 603 l 529 603 l 529 -67 q 456 -268 529 -201 q 260 -335 382 -335 z "},"Ǻ":{"ha":958,"x_min":0,"x_max":958,"o":"m 396 1200 q 458 1263 425 1226 q 514 1331 492 1300 l 746 1331 l 746 1322 q 693 1281 732 1307 q 610 1231 654 1256 q 533 1189 565 1206 l 396 1189 l 396 1200 m 339 892 q 310 990 310 932 q 356 1108 310 1065 q 478 1151 403 1151 q 600 1108 550 1151 q 650 992 650 1065 q 642 936 650 961 q 618 892 633 911 l 958 0 l 733 0 l 661 224 l 299 224 l 225 0 l 0 0 l 339 892 m 478 926 q 543 990 543 926 q 524 1038 543 1021 q 478 1056 506 1056 q 430 1038 447 1056 q 413 990 413 1021 q 430 944 413 961 q 478 926 447 926 m 344 400 l 617 400 l 547 596 q 526 658 540 618 q 498 737 511 697 q 479 799 485 776 q 465 753 475 783 q 445 691 456 724 q 426 632 435 658 q 413 596 417 606 l 344 400 z "},"ǻ":{"ha":839,"x_min":58,"x_max":735,"o":"m 669 1322 q 617 1281 656 1307 q 533 1231 578 1256 q 457 1189 489 1206 l 319 1189 l 319 1200 q 382 1263 349 1226 q 438 1331 415 1300 l 669 1331 l 669 1322 m 425 1135 q 547 1092 497 1135 q 597 975 597 1049 q 548 856 597 899 q 425 813 499 813 q 303 856 350 813 q 257 974 257 899 q 303 1092 257 1049 q 425 1135 350 1135 m 425 1039 q 378 1022 397 1039 q 360 974 360 1004 q 376 926 360 943 q 425 908 393 908 q 472 926 453 908 q 490 974 490 943 q 472 1022 490 1004 q 425 1039 453 1039 m 419 774 q 653 708 572 774 q 735 506 735 642 l 735 0 l 590 0 l 550 103 l 544 103 q 442 14 496 42 q 293 -14 388 -14 q 125 45 192 -14 q 58 226 58 104 q 143 405 58 347 q 397 468 228 463 l 529 472 l 529 506 q 498 593 529 565 q 411 621 467 621 q 303 605 356 621 q 197 565 250 589 l 129 706 q 265 756 190 738 q 419 774 339 774 m 449 349 q 310 313 349 346 q 271 225 271 279 q 299 158 271 178 q 371 138 326 138 q 483 177 438 138 q 529 289 529 217 l 529 351 l 449 349 z "},"Ǽ":{"ha":1322,"x_min":0,"x_max":1240,"o":"m 1240 0 l 649 0 l 649 236 l 315 236 l 214 0 l 0 0 l 444 992 l 1240 992 l 1240 819 l 858 819 l 858 601 l 1215 601 l 1215 429 l 858 429 l 858 174 l 1240 174 l 1240 0 m 392 413 l 649 413 l 649 813 l 563 813 l 392 413 m 996 1283 q 944 1236 976 1264 q 876 1178 913 1208 q 803 1120 839 1147 q 742 1075 768 1093 l 604 1075 l 604 1093 q 656 1155 626 1119 q 715 1228 686 1190 q 764 1297 744 1267 l 996 1297 l 996 1283 z "},"ǽ":{"ha":1274,"x_min":58,"x_max":1214,"o":"m 890 772 q 1059 732 986 772 q 1173 615 1132 692 q 1214 428 1214 539 l 1214 328 l 724 328 q 776 190 726 240 q 913 140 825 140 q 1171 200 1046 140 l 1171 40 q 1053 -1 1114 13 q 901 -14 992 -14 q 732 21 808 -14 q 607 126 656 56 q 526 47 567 78 q 432 1 485 15 q 300 -14 379 -14 q 180 12 235 -14 q 92 91 125 38 q 58 226 58 144 q 140 405 58 347 q 386 468 222 463 l 515 472 l 515 529 q 485 599 515 576 q 403 621 456 621 q 298 606 349 621 q 196 568 247 592 l 129 706 q 263 756 189 738 q 415 774 336 774 q 647 685 568 774 q 751 751 692 729 q 890 772 810 772 m 886 625 q 776 586 818 625 q 728 465 735 547 l 1019 465 q 985 580 1018 535 q 886 625 951 625 m 439 349 q 308 313 344 346 q 271 225 271 279 q 297 158 271 178 q 365 138 322 138 q 472 177 429 138 q 515 289 515 217 l 515 351 l 439 349 m 940 1050 q 889 1003 921 1031 q 820 944 857 975 q 748 887 783 914 q 686 842 713 860 l 549 842 l 549 860 q 601 922 571 886 q 660 995 631 957 q 708 1064 689 1033 l 940 1064 l 940 1050 z "},"Ǿ":{"ha":1106,"x_min":81,"x_max":1025,"o":"m 1025 497 q 974 228 1025 343 q 819 50 924 114 q 553 -14 715 -14 q 325 31 421 -14 l 264 -61 l 154 13 l 215 104 q 114 272 147 172 q 81 499 81 372 q 131 767 81 653 q 287 944 182 881 q 554 1007 392 1007 q 682 995 624 1007 q 788 960 740 983 l 844 1044 l 953 974 l 893 885 q 992 719 960 818 q 1025 497 1025 621 m 301 497 q 310 382 301 435 q 339 289 319 329 l 682 801 q 554 832 628 832 q 361 743 421 832 q 301 497 301 654 m 804 497 q 769 699 804 621 l 431 189 q 486 169 456 176 q 553 163 517 163 q 746 252 688 163 q 804 497 804 342 m 851 1283 q 800 1236 832 1264 q 731 1178 768 1208 q 659 1120 694 1147 q 597 1075 624 1093 l 460 1075 l 460 1093 q 512 1155 482 1119 q 571 1228 542 1190 q 619 1297 600 1267 l 851 1297 l 851 1283 z "},"ǿ":{"ha":860,"x_min":63,"x_max":797,"o":"m 797 381 q 698 89 797 192 q 428 -14 599 -14 q 345 -6 385 -14 q 269 17 306 3 l 224 -51 l 119 19 l 165 88 q 90 212 117 139 q 63 381 63 285 q 161 671 63 569 q 432 772 260 772 q 600 738 522 772 l 638 793 l 740 719 l 701 663 q 772 542 747 613 q 797 381 797 471 m 274 381 q 286 268 274 314 l 501 590 q 429 606 471 606 q 310 549 347 606 q 274 381 274 493 m 586 381 q 578 476 586 435 l 368 163 q 431 153 393 153 q 549 210 513 153 q 586 381 586 268 m 725 1050 q 674 1003 706 1031 q 605 944 642 975 q 533 887 568 914 q 471 842 497 860 l 333 842 l 333 860 q 385 922 356 886 q 444 995 415 957 q 493 1064 474 1033 l 725 1064 l 725 1050 z "},"Ș":{"ha":765,"x_min":64,"x_max":710,"o":"m 710 275 q 615 65 710 143 q 344 -14 519 -14 q 64 46 188 -14 l 64 242 q 210 185 135 211 q 361 160 286 160 q 472 190 439 160 q 504 265 504 219 q 478 329 504 303 q 410 378 453 356 q 311 428 367 401 q 236 467 276 444 q 159 524 196 490 q 99 607 122 558 q 75 724 75 656 q 165 931 75 857 q 411 1006 256 1006 q 559 988 489 1006 q 706 936 629 969 l 638 772 q 515 815 569 800 q 404 831 461 831 q 313 803 344 831 q 281 731 281 775 q 328 647 281 678 q 468 572 375 617 q 598 497 544 536 q 681 406 651 458 q 710 275 710 353 m 489 -99 q 440 -198 468 -144 q 376 -307 413 -251 l 256 -307 l 256 -289 q 279 -189 267 -249 q 297 -85 292 -129 l 489 -85 l 489 -99 z "},"ș":{"ha":690,"x_min":63,"x_max":638,"o":"m 638 225 q 556 48 638 110 q 314 -14 475 -14 q 178 -3 235 -14 q 64 31 121 7 l 64 201 q 196 156 125 174 q 321 138 267 138 q 408 156 382 138 q 433 203 433 174 q 423 238 433 222 q 378 272 413 253 q 269 322 343 292 q 153 383 199 353 q 85 455 107 413 q 63 561 63 497 q 144 719 63 667 q 363 772 226 772 q 497 758 433 772 q 629 713 561 744 l 567 564 q 461 603 511 588 q 360 619 411 619 q 268 569 268 619 q 280 537 268 551 q 326 506 292 522 q 426 461 360 489 q 539 406 492 435 q 612 335 586 378 q 638 225 638 293 m 463 -99 q 414 -198 442 -144 q 350 -307 386 -251 l 229 -307 l 229 -289 q 253 -189 240 -249 q 271 -85 265 -129 l 463 -85 l 463 -99 z "},"ˆ":{"ha":700,"x_min":56,"x_max":644,"o":"m 471 1064 q 522 995 490 1033 q 586 921 553 957 q 644 860 619 885 l 644 842 l 507 842 q 428 894 471 864 q 349 961 385 924 q 271 894 313 924 q 193 842 229 865 l 56 842 l 56 860 q 115 922 82 886 q 178 995 147 957 q 229 1064 210 1033 l 471 1064 z "},"ˇ":{"ha":700,"x_min":56,"x_max":644,"o":"m 229 842 q 178 911 210 874 q 115 985 147 949 q 56 1046 82 1021 l 56 1064 l 193 1064 q 271 1012 229 1042 q 349 944 313 982 q 428 1012 385 982 q 507 1064 471 1042 l 644 1064 l 644 1046 q 586 985 619 1021 q 522 911 553 949 q 471 842 490 874 l 229 842 z "},"ˉ":{"ha":571,"x_min":56,"x_max":515,"o":"m 515 985 l 515 842 l 56 842 l 56 985 l 515 985 z "},"˘":{"ha":644,"x_min":56,"x_max":589,"o":"m 589 1071 q 508 906 582 969 q 319 842 435 842 q 131 904 200 842 q 56 1071 61 967 l 171 1071 q 195 1014 175 1032 q 249 991 215 996 q 321 986 282 986 q 387 992 354 986 q 443 1017 419 999 q 471 1071 467 1035 l 589 1071 z "},"˙":{"ha":336,"x_min":56,"x_max":281,"o":"m 168 1056 q 247 1034 214 1056 q 281 954 281 1013 q 247 875 281 897 q 168 853 214 853 q 88 875 121 853 q 56 954 56 897 q 88 1034 56 1013 q 168 1056 121 1056 z "},"˚":{"ha":451,"x_min":56,"x_max":396,"o":"m 224 840 q 102 883 149 840 q 56 1001 56 926 q 102 1119 56 1076 q 224 1163 149 1163 q 346 1119 296 1163 q 396 1003 396 1076 q 347 883 396 926 q 224 840 297 840 m 224 936 q 270 953 251 936 q 289 1001 289 971 q 270 1049 289 1032 q 224 1067 251 1067 q 177 1049 196 1067 q 158 1001 158 1032 q 175 953 158 971 q 224 936 192 936 z "},"˛":{"ha":386,"x_min":56,"x_max":331,"o":"m 199 -154 q 214 -196 199 -182 q 253 -210 229 -210 q 296 -206 275 -210 q 331 -197 317 -201 l 331 -318 q 283 -328 308 -324 q 225 -333 258 -333 q 101 -290 147 -333 q 56 -178 56 -246 q 100 -64 56 -117 q 208 24 144 -11 l 299 0 q 225 -81 251 -44 q 199 -154 199 -118 z "},"˜":{"ha":674,"x_min":56,"x_max":618,"o":"m 56 840 q 116 999 64 949 q 240 1050 168 1050 q 313 1032 278 1050 q 383 997 349 1014 q 449 979 417 979 q 489 997 469 979 q 517 1051 508 1015 l 618 1051 q 557 893 610 944 q 433 842 504 842 q 362 859 397 842 q 292 894 326 876 q 225 913 258 913 q 185 894 204 913 q 157 840 165 876 l 56 840 z "},"˝":{"ha":717,"x_min":56,"x_max":661,"o":"m 661 1050 q 624 1004 650 1032 q 563 946 597 976 q 494 888 528 915 q 435 842 460 861 l 325 842 l 325 860 q 369 922 344 886 q 418 996 394 958 q 457 1064 442 1033 l 661 1064 l 661 1050 m 392 1050 q 354 1004 381 1032 q 293 946 328 976 q 224 888 258 915 q 165 842 190 861 l 56 842 l 56 860 q 99 922 75 886 q 147 996 124 958 q 188 1064 171 1033 l 392 1064 l 392 1050 z "},"΄":{"ha":408,"x_min":56,"x_max":353,"o":"m 56 842 l 56 860 l 121 1078 l 353 1078 l 353 1064 l 194 842 l 56 842 z "},"΅":{"ha":1097,"x_min":189,"x_max":908,"o":"m 424 842 l 424 860 l 475 1078 l 707 1078 l 707 1064 l 563 842 l 424 842 m 283 863 q 217 885 244 863 q 189 953 189 907 q 217 1023 189 1001 q 283 1044 244 1044 q 351 1023 322 1044 q 379 953 379 1001 q 351 885 379 907 q 283 863 322 863 m 813 863 q 744 885 772 863 q 717 953 717 907 q 744 1023 717 1001 q 813 1044 772 1044 q 880 1023 851 1044 q 908 953 908 1001 q 880 885 908 907 q 813 863 851 863 z "},"Ά":{"ha":1111,"x_min":14,"x_max":1111,"o":"m 885 0 l 813 236 l 451 236 l 379 0 l 153 0 l 503 996 l 760 996 l 1111 0 l 885 0 m 690 643 q 672 703 683 667 q 650 776 661 739 q 632 842 639 814 q 613 773 625 814 q 591 695 601 732 q 575 643 581 658 l 504 413 l 763 413 l 690 643 m 14 756 l 14 774 l 79 992 l 311 992 l 311 978 l 153 756 l 14 756 z "},"·":{"ha":396,"x_min":79,"x_max":317,"o":"m 79 656 q 114 745 79 719 q 199 771 149 771 q 282 745 247 771 q 317 656 317 719 q 282 567 317 594 q 199 540 247 540 q 114 567 149 540 q 79 656 79 594 z "},"Έ":{"ha":1089,"x_min":14,"x_max":1007,"o":"m 1007 0 l 436 0 l 436 992 l 1007 992 l 1007 819 l 646 819 l 646 601 l 982 601 l 982 429 l 646 429 l 646 174 l 1007 174 l 1007 0 m 14 756 l 14 774 l 79 992 l 311 992 l 311 978 l 153 756 l 14 756 z "},"Ή":{"ha":1374,"x_min":14,"x_max":1249,"o":"m 1249 0 l 1039 0 l 1039 428 l 646 428 l 646 0 l 436 0 l 436 992 l 646 992 l 646 603 l 1039 603 l 1039 992 l 1249 992 l 1249 0 m 14 756 l 14 774 l 79 992 l 311 992 l 311 978 l 153 756 l 14 756 z "},"Ί":{"ha":879,"x_min":14,"x_max":835,"o":"m 835 0 l 383 0 l 383 119 l 504 175 l 504 817 l 383 872 l 383 992 l 835 992 l 835 872 l 714 817 l 714 175 l 835 119 l 835 0 m 14 756 l 14 774 l 79 992 l 311 992 l 311 978 l 153 756 l 14 756 z "},"Ό":{"ha":1347,"x_min":14,"x_max":1267,"o":"m 1267 497 q 1216 228 1267 343 q 1061 50 1165 114 q 794 -14 957 -14 q 528 50 633 -14 q 373 229 424 114 q 322 499 322 344 q 373 767 322 653 q 528 944 424 881 q 796 1007 633 1007 q 1061 944 957 1007 q 1216 766 1165 881 q 1267 497 1267 651 m 543 497 q 603 252 543 342 q 794 163 663 163 q 988 252 929 163 q 1046 497 1046 342 q 988 743 1046 654 q 796 832 929 832 q 603 743 663 832 q 543 497 543 654 m 14 756 l 14 774 l 79 992 l 311 992 l 311 978 l 153 756 l 14 756 z "},"Ύ":{"ha":1247,"x_min":14,"x_max":1247,"o":"m 814 583 l 1021 992 l 1247 992 l 918 386 l 918 0 l 710 0 l 710 379 l 381 992 l 608 992 l 814 583 m 14 756 l 14 774 l 79 992 l 311 992 l 311 978 l 153 756 l 14 756 z "},"Ώ":{"ha":1311,"x_min":14,"x_max":1264,"o":"m 303 0 l 303 176 l 513 176 q 363 335 415 236 q 311 564 311 435 q 369 790 311 690 q 533 949 426 890 q 783 1007 639 1007 q 1035 949 929 1007 q 1198 790 1140 890 q 1256 563 1256 689 q 1051 176 1256 300 l 1264 176 l 1264 0 l 856 0 l 856 189 q 972 281 932 225 q 1025 403 1011 338 q 1039 535 1039 469 q 971 753 1039 674 q 783 832 903 832 q 597 753 665 832 q 528 533 528 674 q 544 403 528 468 q 601 282 561 338 q 708 189 640 226 l 708 0 l 303 0 m 14 756 l 14 774 l 79 992 l 311 992 l 311 978 l 153 756 l 14 756 z "},"ΐ":{"ha":557,"x_min":-71,"x_max":649,"o":"m 376 -14 q 220 20 279 -14 q 135 111 161 54 q 108 238 108 168 l 108 758 l 315 758 l 315 268 q 344 176 315 200 q 415 153 374 153 q 465 156 443 153 q 513 165 488 160 l 513 3 q 450 -9 488 -4 q 376 -14 413 -14 m 164 842 l 164 860 l 215 1078 l 447 1078 l 447 1064 l 303 842 l 164 842 m 24 863 q -43 885 -15 863 q -71 953 -71 907 q -43 1023 -71 1001 q 24 1044 -15 1044 q 91 1023 63 1044 q 119 953 119 1001 q 91 885 119 907 q 24 863 63 863 m 553 863 q 485 885 513 863 q 457 953 457 907 q 485 1023 457 1001 q 553 1044 513 1044 q 620 1023 592 1044 q 649 953 649 1001 q 620 885 649 907 q 553 863 592 863 z "},"Α":{"ha":958,"x_min":0,"x_max":958,"o":"m 732 0 l 660 236 l 299 236 l 226 0 l 0 0 l 350 996 l 607 996 l 958 0 l 732 0 m 538 643 q 519 703 531 667 q 497 776 508 739 q 479 842 486 814 q 460 773 472 814 q 438 695 449 732 q 422 643 428 658 l 351 413 l 610 413 l 538 643 z "},"Β":{"ha":933,"x_min":125,"x_max":860,"o":"m 433 992 q 733 936 632 992 q 835 740 835 881 q 795 597 835 656 q 682 526 756 539 l 682 519 q 772 485 732 510 q 836 413 813 460 q 860 288 860 365 q 763 76 860 153 q 496 0 665 0 l 125 0 l 125 992 l 433 992 m 457 599 q 584 628 549 599 q 619 713 619 657 q 578 794 619 769 q 446 819 536 819 l 335 819 l 335 599 l 457 599 m 335 432 l 335 174 l 472 174 q 604 210 567 174 q 642 308 642 247 q 603 398 642 364 q 465 432 565 432 l 335 432 z "},"Γ":{"ha":735,"x_min":125,"x_max":665,"o":"m 125 0 l 125 992 l 665 992 l 665 819 l 332 819 l 332 0 l 125 0 z "},"Δ":{"ha":932,"x_min":14,"x_max":918,"o":"m 14 0 l 14 114 l 336 996 l 593 996 l 918 110 l 918 0 l 14 0 m 256 176 l 675 176 l 526 643 q 508 703 519 667 q 484 776 496 739 q 465 842 472 814 q 446 773 458 814 q 422 695 433 732 q 406 643 411 658 l 256 176 z "},"Ε":{"ha":778,"x_min":125,"x_max":696,"o":"m 696 0 l 125 0 l 125 992 l 696 992 l 696 819 l 335 819 l 335 601 l 671 601 l 671 429 l 335 429 l 335 174 l 696 174 l 696 0 z "},"Ζ":{"ha":804,"x_min":33,"x_max":771,"o":"m 771 0 l 33 0 l 33 136 l 508 818 l 46 818 l 46 992 l 758 992 l 758 856 l 283 174 l 771 174 l 771 0 z "},"Η":{"ha":1063,"x_min":125,"x_max":938,"o":"m 938 0 l 728 0 l 728 428 l 335 428 l 335 0 l 125 0 l 125 992 l 335 992 l 335 603 l 728 603 l 728 992 l 938 992 l 938 0 z "},"Θ":{"ha":1106,"x_min":81,"x_max":1025,"o":"m 1025 497 q 974 228 1025 343 q 819 50 924 114 q 553 -14 715 -14 q 287 50 392 -14 q 131 229 182 114 q 81 499 81 344 q 131 767 81 653 q 287 944 182 881 q 554 1007 392 1007 q 819 944 715 1007 q 974 766 924 881 q 1025 497 1025 651 m 301 497 q 361 252 301 342 q 553 163 421 163 q 746 252 688 163 q 804 497 804 342 q 746 743 804 654 q 554 832 688 832 q 361 743 421 832 q 301 497 301 654 m 376 418 l 376 590 l 729 590 l 729 418 l 376 418 z "},"Ι":{"ha":540,"x_min":44,"x_max":496,"o":"m 496 0 l 44 0 l 44 119 l 165 175 l 165 817 l 44 872 l 44 992 l 496 992 l 496 872 l 375 817 l 375 175 l 496 119 l 496 0 z "},"Κ":{"ha":922,"x_min":125,"x_max":922,"o":"m 922 0 l 683 0 l 424 418 l 335 354 l 335 0 l 125 0 l 125 992 l 335 992 l 335 538 q 376 596 356 567 q 418 654 397 625 l 686 992 l 919 992 l 574 553 l 922 0 z "},"Λ":{"ha":931,"x_min":0,"x_max":931,"o":"m 0 0 l 336 996 l 593 996 l 931 0 l 704 0 l 518 643 q 501 703 511 667 q 482 776 492 739 q 465 842 472 814 q 448 773 458 814 q 428 695 438 732 q 414 643 419 658 l 226 0 l 0 0 z "},"Μ":{"ha":1310,"x_min":125,"x_max":1185,"o":"m 544 0 l 306 778 l 300 778 q 304 694 301 750 q 310 576 307 639 q 313 461 313 513 l 313 0 l 125 0 l 125 992 l 411 992 l 646 233 l 650 233 l 899 992 l 1185 992 l 1185 0 l 989 0 l 989 469 q 991 578 989 517 q 995 694 993 639 q 999 776 997 749 l 993 776 l 738 0 l 544 0 z "},"Ν":{"ha":1129,"x_min":125,"x_max":1004,"o":"m 1004 0 l 738 0 l 306 750 l 300 750 q 306 608 303 679 q 313 467 310 538 l 313 0 l 125 0 l 125 992 l 390 992 l 821 249 l 825 249 q 821 386 824 318 q 815 522 818 454 l 815 992 l 1004 992 l 1004 0 z "},"Ξ":{"ha":869,"x_min":82,"x_max":788,"o":"m 110 817 l 110 992 l 760 992 l 760 817 l 110 817 m 165 429 l 165 604 l 704 604 l 704 429 l 165 429 m 82 0 l 82 175 l 788 175 l 788 0 l 82 0 z "},"Ο":{"ha":1106,"x_min":81,"x_max":1025,"o":"m 1025 497 q 974 228 1025 343 q 819 50 924 114 q 553 -14 715 -14 q 287 50 392 -14 q 131 229 182 114 q 81 499 81 344 q 131 767 81 653 q 287 944 182 881 q 554 1007 392 1007 q 819 944 715 1007 q 974 766 924 881 q 1025 497 1025 651 m 301 497 q 361 252 301 342 q 553 163 421 163 q 746 252 688 163 q 804 497 804 342 q 746 743 804 654 q 554 832 688 832 q 361 743 421 832 q 301 497 301 654 z "},"Π":{"ha":1049,"x_min":125,"x_max":924,"o":"m 125 0 l 125 992 l 924 992 l 924 0 l 714 0 l 714 817 l 335 817 l 335 0 l 125 0 z "},"Ρ":{"ha":872,"x_min":125,"x_max":810,"o":"m 442 992 q 722 909 633 992 q 810 682 810 826 q 774 520 810 596 q 653 399 738 444 q 425 353 569 353 l 335 353 l 335 0 l 125 0 l 125 992 l 442 992 m 431 819 l 335 819 l 335 525 l 404 525 q 545 560 493 525 q 597 675 597 596 q 431 819 597 819 z "},"Σ":{"ha":804,"x_min":33,"x_max":771,"o":"m 33 0 l 33 165 l 339 519 l 46 836 l 46 992 l 758 992 l 758 819 l 432 819 q 370 821 404 819 q 297 826 336 822 l 546 551 l 546 499 l 256 165 q 345 172 304 169 q 433 174 386 174 l 771 174 l 771 0 l 33 0 z "},"Τ":{"ha":804,"x_min":28,"x_max":776,"o":"m 507 0 l 297 0 l 297 817 l 28 817 l 28 992 l 776 992 l 776 817 l 507 817 l 507 0 z "},"Υ":{"ha":867,"x_min":0,"x_max":867,"o":"m 433 583 l 640 992 l 867 992 l 538 386 l 538 0 l 329 0 l 329 379 l 0 992 l 228 992 l 433 583 z "},"Φ":{"ha":1258,"x_min":67,"x_max":1192,"o":"m 535 -14 l 535 125 q 300 165 392 128 q 157 260 208 201 q 86 385 106 318 q 67 514 67 451 q 89 653 67 586 q 164 775 111 721 q 307 862 217 829 q 535 897 397 894 l 535 1006 l 724 1006 l 724 897 q 951 862 861 894 q 1094 775 1042 829 q 1169 653 1147 721 q 1192 514 1192 586 q 1171 384 1192 451 q 1099 259 1150 317 q 957 165 1049 201 q 724 125 865 128 l 724 -14 l 535 -14 m 535 288 l 535 733 q 365 699 424 729 q 285 620 307 668 q 264 515 264 572 q 288 403 264 453 q 370 322 311 353 q 535 288 429 292 m 724 288 q 888 322 829 292 q 971 403 947 353 q 994 515 994 453 q 973 620 994 572 q 893 699 951 668 q 724 733 835 729 l 724 288 z "},"Χ":{"ha":926,"x_min":0,"x_max":926,"o":"m 926 0 l 686 0 l 456 375 l 225 0 l 0 0 l 329 511 l 21 992 l 253 992 l 467 635 l 676 992 l 903 992 l 592 500 l 926 0 z "},"Ψ":{"ha":1222,"x_min":118,"x_max":1104,"o":"m 517 0 l 517 254 q 294 303 382 254 q 162 442 206 353 q 118 650 118 532 l 118 992 l 315 992 l 315 639 q 369 470 315 517 q 517 424 424 424 l 517 992 l 706 992 l 706 424 q 806 443 760 424 q 879 509 851 463 q 907 636 907 556 l 907 992 l 1104 992 l 1104 653 q 1003 361 1104 468 q 706 254 901 254 l 706 0 l 517 0 z "},"Ω":{"ha":1056,"x_min":47,"x_max":1008,"o":"m 47 0 l 47 176 l 257 176 q 108 335 160 236 q 56 564 56 435 q 113 790 56 690 q 277 949 171 890 q 528 1007 383 1007 q 779 949 674 1007 q 942 790 885 890 q 1000 563 1000 689 q 796 176 1000 300 l 1008 176 l 1008 0 l 600 0 l 600 189 q 716 281 676 225 q 769 403 756 338 q 783 535 783 469 q 715 753 783 674 q 528 832 647 832 q 341 753 410 832 q 272 533 272 674 q 289 403 272 468 q 345 282 306 338 q 453 189 385 226 l 453 0 l 47 0 z "},"Ϊ":{"ha":540,"x_min":38,"x_max":503,"o":"m 496 0 l 44 0 l 44 119 l 165 175 l 165 817 l 44 872 l 44 992 l 496 992 l 496 872 l 375 817 l 375 175 l 496 119 l 496 0 m 38 1186 q 65 1256 38 1235 q 132 1278 93 1278 q 199 1256 171 1278 q 228 1186 228 1235 q 199 1118 228 1140 q 132 1096 171 1096 q 65 1118 93 1096 q 38 1186 38 1140 m 311 1186 q 339 1256 311 1235 q 407 1278 367 1278 q 474 1256 446 1278 q 503 1186 503 1235 q 474 1118 503 1140 q 407 1096 446 1096 q 339 1118 367 1096 q 311 1186 311 1140 z "},"Ϋ":{"ha":867,"x_min":0,"x_max":867,"o":"m 433 583 l 640 992 l 867 992 l 538 386 l 538 0 l 329 0 l 329 379 l 0 992 l 228 992 l 433 583 m 200 1186 q 228 1256 200 1235 q 294 1278 256 1278 q 362 1256 333 1278 q 390 1186 390 1235 q 362 1118 390 1140 q 294 1096 333 1096 q 228 1118 256 1096 q 200 1186 200 1140 m 474 1186 q 501 1256 474 1235 q 569 1278 529 1278 q 637 1256 608 1278 q 665 1186 665 1235 q 637 1118 665 1140 q 569 1096 608 1096 q 501 1118 529 1096 q 474 1186 474 1140 z "},"ά":{"ha":913,"x_min":63,"x_max":868,"o":"m 346 -14 q 137 92 211 -14 q 63 376 63 199 q 142 672 63 571 q 353 772 221 772 q 486 741 433 772 q 572 661 539 710 l 578 661 l 596 758 l 771 758 l 771 240 q 788 176 771 193 q 828 160 806 160 q 850 163 838 160 q 868 167 863 165 l 868 4 q 828 -8 858 -1 q 775 -14 799 -14 q 663 11 706 -14 q 596 100 619 36 l 582 100 q 492 19 551 53 q 346 -14 432 -14 m 422 149 q 543 202 508 149 q 578 369 578 256 l 578 378 q 544 547 578 489 q 419 604 510 604 q 274 375 274 604 q 422 149 274 149 m 365 842 l 365 860 l 431 1078 l 663 1078 l 663 1064 l 504 842 l 365 842 z "},"έ":{"ha":700,"x_min":49,"x_max":657,"o":"m 385 -14 q 133 47 218 -14 q 49 210 49 108 q 94 335 49 293 q 217 392 140 376 l 217 399 q 117 457 150 415 q 85 560 85 499 q 158 714 85 656 q 385 772 232 772 q 531 758 457 772 q 657 711 604 743 l 600 565 q 497 608 543 596 q 400 619 450 619 q 308 598 338 619 q 279 536 279 576 q 309 478 279 496 q 399 461 339 461 l 511 461 l 511 313 l 400 313 q 292 292 324 313 q 260 228 260 272 q 410 140 260 140 q 524 155 474 140 q 633 206 575 169 l 633 43 q 526 0 583 14 q 385 -14 469 -14 m 328 842 l 328 860 l 393 1078 l 625 1078 l 625 1064 l 467 842 l 328 842 z "},"ή":{"ha":899,"x_min":108,"x_max":794,"o":"m 588 -333 l 588 443 q 469 607 588 607 q 349 542 382 607 q 315 357 315 478 l 315 0 l 108 0 l 108 758 l 267 758 l 294 661 l 306 661 q 400 746 342 719 q 529 772 458 772 q 722 706 649 772 q 794 494 794 640 l 794 -333 l 588 -333 m 332 842 l 332 860 l 397 1078 l 629 1078 l 629 1064 l 471 842 l 332 842 z "},"ί":{"ha":557,"x_min":108,"x_max":513,"o":"m 376 -14 q 220 20 279 -14 q 135 111 161 54 q 108 238 108 168 l 108 758 l 315 758 l 315 268 q 344 176 315 200 q 415 153 374 153 q 465 156 443 153 q 513 165 488 160 l 513 3 q 450 -9 488 -4 q 376 -14 413 -14 m 157 842 l 157 860 l 222 1078 l 454 1078 l 454 1064 l 296 842 l 157 842 z "},"ΰ":{"ha":885,"x_min":104,"x_max":867,"o":"m 432 -12 q 232 32 303 -12 q 133 154 161 76 q 104 332 104 232 l 104 758 l 311 758 l 311 325 q 342 190 311 226 q 439 153 372 153 q 558 213 521 153 q 594 417 594 272 q 581 587 594 507 q 546 758 568 667 l 754 758 q 790 588 778 668 q 801 411 801 508 q 710 90 801 193 q 432 -12 618 -12 m 382 842 l 382 860 l 433 1078 l 665 1078 l 665 1064 l 521 842 l 382 842 m 242 863 q 175 885 203 863 q 147 953 147 907 q 175 1023 147 1001 q 242 1044 203 1044 q 309 1023 281 1044 q 338 953 338 1001 q 309 885 338 907 q 242 863 281 863 m 771 863 q 703 885 731 863 q 675 953 675 907 q 703 1023 675 1001 q 771 1044 731 1044 q 838 1023 810 1044 q 867 953 867 1001 q 838 885 867 907 q 771 863 810 863 z "},"α":{"ha":913,"x_min":63,"x_max":868,"o":"m 346 -14 q 137 92 211 -14 q 63 376 63 199 q 142 672 63 571 q 353 772 221 772 q 486 741 433 772 q 572 661 539 710 l 578 661 l 596 758 l 771 758 l 771 240 q 788 176 771 193 q 828 160 806 160 q 850 163 838 160 q 868 167 863 165 l 868 4 q 828 -8 858 -1 q 775 -14 799 -14 q 663 11 706 -14 q 596 100 619 36 l 582 100 q 492 19 551 53 q 346 -14 432 -14 m 422 149 q 543 202 508 149 q 578 369 578 256 l 578 378 q 544 547 578 489 q 419 604 510 604 q 274 375 274 604 q 422 149 274 149 z "},"β":{"ha":879,"x_min":108,"x_max":817,"o":"m 108 -333 l 108 733 q 199 982 108 901 q 444 1063 290 1063 q 678 996 593 1063 q 763 796 763 929 q 713 637 763 696 q 578 563 663 578 l 578 558 q 751 482 685 544 q 817 293 817 419 q 773 127 817 196 q 656 22 729 58 q 494 -14 583 -14 q 421 -9 450 -14 q 367 6 392 -4 q 315 29 343 15 l 315 -333 l 108 -333 m 456 151 q 564 194 525 151 q 603 311 603 236 q 580 403 603 368 q 522 455 557 439 q 450 471 488 471 l 388 471 l 388 626 l 438 626 q 524 667 493 626 q 556 771 556 707 q 522 869 556 836 q 443 901 489 901 q 349 863 383 901 q 315 732 315 825 l 315 199 q 383 164 350 176 q 456 151 417 151 z "},"γ":{"ha":782,"x_min":0,"x_max":740,"o":"m 264 -292 l 264 18 l 0 758 l 213 758 l 346 338 q 371 259 357 307 q 393 183 385 211 l 399 183 q 500 424 468 288 q 532 758 532 561 l 740 758 q 717 485 740 611 q 634 244 693 358 q 471 14 575 129 l 471 -292 l 264 -292 z "},"δ":{"ha":846,"x_min":49,"x_max":783,"o":"m 413 -14 q 225 25 307 -14 q 96 136 143 64 q 49 310 49 208 q 83 468 49 404 q 171 573 117 532 q 285 638 225 614 q 194 716 232 667 q 156 842 156 765 q 194 959 156 910 q 299 1035 232 1008 q 454 1063 367 1063 q 620 1039 543 1063 q 754 958 697 1015 l 676 819 q 572 890 628 867 q 464 913 517 913 q 379 888 403 913 q 356 835 356 863 q 397 765 356 790 q 506 704 438 740 q 721 540 658 626 q 783 333 783 453 q 682 72 783 157 q 413 -14 581 -14 m 418 153 q 534 205 493 153 q 575 336 575 257 q 535 466 575 414 q 425 553 494 518 q 302 471 347 524 q 257 332 257 418 q 301 201 257 249 q 418 153 344 153 z "},"ε":{"ha":700,"x_min":49,"x_max":657,"o":"m 385 -14 q 133 47 218 -14 q 49 210 49 108 q 94 335 49 293 q 217 392 140 376 l 217 399 q 117 457 150 415 q 85 560 85 499 q 158 714 85 656 q 385 772 232 772 q 531 758 457 772 q 657 711 604 743 l 600 565 q 497 608 543 596 q 400 619 450 619 q 308 598 338 619 q 279 536 279 576 q 309 478 279 496 q 399 461 339 461 l 511 461 l 511 313 l 400 313 q 292 292 324 313 q 260 228 260 272 q 410 140 260 140 q 524 155 474 140 q 633 206 575 169 l 633 43 q 526 0 583 14 q 385 -14 469 -14 z "},"ζ":{"ha":674,"x_min":63,"x_max":672,"o":"m 401 -281 q 449 -182 432 -228 q 465 -106 465 -136 q 456 -60 465 -76 q 418 -33 446 -44 q 336 -8 390 -21 q 130 93 197 26 q 63 278 63 160 q 103 457 63 372 q 209 625 143 542 q 349 797 275 708 l 443 911 q 396 904 425 907 q 338 901 367 901 q 290 900 308 900 l 93 900 l 93 1056 l 672 1056 l 672 925 l 492 700 q 372 544 421 611 q 299 421 324 476 q 274 313 274 365 q 310 217 274 253 q 447 157 347 181 q 580 112 532 138 q 647 48 628 86 q 667 -49 667 10 q 649 -164 667 -108 q 597 -281 631 -219 l 401 -281 z "},"η":{"ha":899,"x_min":108,"x_max":794,"o":"m 588 -333 l 588 443 q 469 607 588 607 q 349 542 382 607 q 315 357 315 478 l 315 0 l 108 0 l 108 758 l 267 758 l 294 661 l 306 661 q 400 746 342 719 q 529 772 458 772 q 722 706 649 772 q 794 494 794 640 l 794 -333 l 588 -333 z "},"θ":{"ha":846,"x_min":63,"x_max":783,"o":"m 422 -14 q 151 129 240 -14 q 63 525 63 272 q 99 815 63 694 q 214 999 135 935 q 422 1063 293 1063 q 694 922 604 1063 q 783 525 783 781 q 747 236 783 357 q 632 51 711 115 q 422 -14 553 -14 m 271 604 l 575 604 q 534 840 569 769 q 424 910 499 910 q 312 840 347 910 q 271 604 276 769 m 422 139 q 536 210 500 139 q 575 449 572 281 l 269 449 q 308 211 272 283 q 422 139 343 139 z "},"ι":{"ha":557,"x_min":108,"x_max":513,"o":"m 376 -14 q 220 20 279 -14 q 135 111 161 54 q 108 238 108 168 l 108 758 l 315 758 l 315 268 q 344 176 315 200 q 415 153 374 153 q 465 156 443 153 q 513 165 488 160 l 513 3 q 450 -9 488 -4 q 376 -14 413 -14 z "},"κ":{"ha":861,"x_min":108,"x_max":861,"o":"m 843 758 l 544 411 l 861 0 l 625 0 l 413 289 l 315 228 l 315 0 l 108 0 l 108 758 l 315 758 l 315 560 q 314 476 314 518 q 311 394 314 435 l 314 394 q 361 452 338 424 q 410 510 385 481 l 622 758 l 843 758 z "},"λ":{"ha":797,"x_min":0,"x_max":797,"o":"m 678 -14 q 556 28 593 -14 q 494 140 518 71 l 435 325 q 396 440 417 379 q 371 558 375 501 l 367 558 q 351 447 363 497 q 319 329 339 396 l 226 0 l 0 0 l 274 753 l 258 797 q 195 879 236 863 q 100 896 154 896 q 57 893 76 896 q 24 888 38 890 l 24 1051 q 72 1059 43 1056 q 136 1063 101 1063 q 272 1044 215 1063 q 370 981 329 1026 q 443 850 411 935 l 650 297 q 687 210 672 240 q 716 170 701 181 q 750 160 731 160 q 775 162 765 160 q 797 167 785 164 l 797 7 q 742 -8 781 -1 q 678 -14 704 -14 z "},"μ":{"ha":943,"x_min":108,"x_max":899,"o":"m 108 -333 l 108 758 l 315 758 l 315 315 q 439 151 315 151 q 560 216 526 151 q 594 401 594 281 l 594 758 l 801 758 l 801 240 q 819 176 801 193 q 858 160 836 160 q 881 163 868 160 q 899 167 893 165 l 899 4 q 859 -8 889 -1 q 806 -14 829 -14 q 691 12 736 -14 q 622 101 646 38 l 613 101 q 443 -14 556 -14 q 313 47 358 -14 l 308 47 q 313 3 311 33 q 315 -59 314 -26 q 315 -117 315 -92 l 315 -333 l 108 -333 z "},"ν":{"ha":782,"x_min":0,"x_max":740,"o":"m 271 0 l 0 758 l 213 758 l 346 338 q 371 259 357 307 q 393 183 385 211 l 399 183 q 500 424 468 288 q 532 758 532 561 l 740 758 q 715 480 740 608 q 628 234 690 351 q 457 0 567 117 l 271 0 z "},"ξ":{"ha":729,"x_min":63,"x_max":686,"o":"m 415 -281 q 462 -184 444 -228 q 479 -106 479 -140 q 469 -59 479 -75 q 431 -32 458 -43 q 351 -8 403 -21 q 200 49 265 13 q 99 142 135 85 q 63 283 63 199 q 268 549 63 488 l 268 556 q 106 728 106 589 q 153 843 106 801 q 301 908 200 885 q 232 905 269 907 q 165 901 194 903 q 122 900 135 900 l 107 900 l 107 1056 l 686 1056 l 686 908 l 635 908 q 462 898 535 908 q 349 855 389 888 q 310 754 310 822 q 349 661 310 696 q 499 626 389 626 l 650 626 l 650 471 l 497 471 q 326 433 379 471 q 274 311 274 394 q 297 222 274 251 q 364 181 321 193 q 465 156 407 168 q 601 108 556 138 q 664 42 647 79 q 681 -37 681 4 q 664 -158 681 -100 q 611 -281 647 -217 l 415 -281 z "},"ο":{"ha":860,"x_min":63,"x_max":797,"o":"m 797 381 q 698 89 797 192 q 428 -14 599 -14 q 240 32 322 -14 q 110 166 157 78 q 63 381 63 254 q 161 671 63 569 q 432 772 260 772 q 621 726 539 772 q 750 594 703 681 q 797 381 797 507 m 274 381 q 310 210 274 268 q 431 153 347 153 q 549 210 513 153 q 586 381 586 268 q 549 549 586 493 q 429 606 513 606 q 310 549 347 606 q 274 381 274 493 z "},"π":{"ha":1038,"x_min":32,"x_max":993,"o":"m 835 -14 q 683 39 739 -14 q 626 208 626 92 l 626 603 l 397 603 l 397 0 l 190 0 l 190 603 l 32 603 l 32 758 l 993 758 l 993 603 l 833 603 l 833 217 q 852 165 833 182 q 897 149 871 149 q 943 156 921 149 q 985 172 965 163 l 985 24 q 919 -2 961 10 q 835 -14 878 -14 z "},"ρ":{"ha":858,"x_min":88,"x_max":796,"o":"m 88 -333 l 88 381 q 181 669 88 567 q 436 772 274 772 q 698 670 600 772 q 796 372 796 568 q 749 160 796 246 q 628 30 701 74 q 474 -14 554 -14 q 378 1 421 -14 q 297 39 335 17 l 285 39 q 292 -46 288 7 q 296 -143 296 -99 l 296 -333 l 88 -333 m 444 153 q 546 205 507 153 q 585 372 585 257 q 545 552 585 499 q 432 606 506 606 q 329 556 363 606 q 296 390 296 506 l 296 211 q 365 167 325 182 q 444 153 404 153 z "},"σ":{"ha":910,"x_min":63,"x_max":851,"o":"m 421 -14 q 231 36 311 -14 q 106 173 150 86 q 63 369 63 260 q 112 595 63 510 q 250 720 161 681 q 457 760 339 760 l 851 760 l 851 603 l 678 603 q 758 489 733 550 q 782 350 782 428 q 761 225 782 289 q 697 107 740 161 q 584 19 653 53 q 421 -14 515 -14 m 424 153 q 539 215 506 153 q 572 368 572 278 q 500 603 572 536 l 463 603 q 363 582 406 603 q 297 510 319 561 q 274 369 274 460 q 307 213 274 272 q 424 153 340 153 z "},"τ":{"ha":757,"x_min":32,"x_max":699,"o":"m 472 -14 q 345 8 401 -14 q 256 85 289 31 q 222 238 222 140 l 222 603 l 32 603 l 32 758 l 699 758 l 699 603 l 429 603 l 429 238 q 454 173 429 194 q 519 151 479 151 q 586 158 554 151 q 650 175 618 165 l 650 21 q 573 -3 619 7 q 472 -14 526 -14 z "},"υ":{"ha":885,"x_min":104,"x_max":801,"o":"m 432 -12 q 232 32 303 -12 q 133 154 161 76 q 104 332 104 232 l 104 758 l 311 758 l 311 325 q 342 190 311 226 q 439 153 372 153 q 558 213 521 153 q 594 417 594 272 q 581 587 594 507 q 546 758 568 667 l 754 758 q 790 588 778 668 q 801 411 801 508 q 710 90 801 193 q 432 -12 618 -12 z "},"φ":{"ha":1131,"x_min":63,"x_max":1068,"o":"m 471 -333 l 471 -6 q 169 117 275 13 q 63 379 63 221 q 162 645 63 542 q 471 763 261 749 l 471 1056 l 663 1056 l 663 763 q 964 642 860 746 q 1068 379 1068 539 q 967 115 1068 219 q 663 -6 865 11 l 663 -333 l 471 -333 m 471 144 l 471 614 q 328 538 381 601 q 275 379 275 475 q 326 219 275 282 q 471 144 378 156 m 663 144 q 806 219 756 156 q 856 379 856 282 q 804 538 856 475 q 663 611 753 600 l 663 144 z "},"χ":{"ha":864,"x_min":7,"x_max":871,"o":"m 15 -335 l 340 204 l 188 506 q 140 575 163 556 q 85 594 117 594 q 51 592 71 594 q 7 582 31 589 l 7 747 q 59 762 33 756 q 126 768 85 768 q 254 728 207 768 q 347 599 301 688 l 461 375 l 663 758 l 871 758 l 550 201 l 694 -81 q 741 -142 718 -125 q 803 -160 764 -160 q 833 -158 818 -160 q 871 -151 849 -157 l 871 -312 q 813 -328 842 -322 q 739 -333 783 -333 q 641 -314 678 -333 q 576 -251 604 -294 q 511 -135 549 -207 l 428 31 l 224 -335 l 15 -335 z "},"ψ":{"ha":1151,"x_min":104,"x_max":1068,"o":"m 485 -333 l 485 -12 q 284 27 369 -8 q 151 143 199 63 q 104 363 104 224 l 104 758 l 296 758 l 296 357 q 313 235 296 279 q 370 171 329 190 q 485 146 411 151 l 485 1056 l 676 1056 l 676 147 q 794 178 750 154 q 858 254 839 203 q 878 392 878 306 q 863 572 878 483 q 824 758 847 661 l 1015 758 q 1068 390 1068 568 q 1017 162 1068 249 q 878 35 967 75 q 676 -12 790 -6 l 676 -333 l 485 -333 z "},"ω":{"ha":1204,"x_min":76,"x_max":1128,"o":"m 382 -14 q 213 35 281 -14 q 110 170 144 83 q 76 368 76 257 q 115 604 76 507 q 208 758 153 701 l 393 758 q 304 606 342 703 q 267 375 267 508 q 298 210 267 274 q 399 147 329 147 q 484 192 461 147 q 507 317 507 236 l 507 517 l 697 517 l 697 317 q 720 192 697 236 q 806 147 743 147 q 906 210 875 147 q 938 372 938 274 q 904 598 938 501 q 811 758 871 694 l 996 758 q 1093 599 1058 693 q 1128 368 1128 504 q 1094 170 1128 257 q 992 35 1060 83 q 822 -14 924 -14 q 683 26 733 -14 q 606 143 632 67 l 599 143 q 522 26 572 67 q 382 -14 471 -14 z "},"ϊ":{"ha":557,"x_min":-19,"x_max":513,"o":"m 376 -14 q 220 20 279 -14 q 135 111 161 54 q 108 238 108 168 l 108 758 l 315 758 l 315 268 q 344 176 315 200 q 415 153 374 153 q 465 156 443 153 q 513 165 488 160 l 513 3 q 450 -9 488 -4 q 376 -14 413 -14 m -19 953 q 8 1023 -19 1001 q 75 1044 36 1044 q 142 1023 114 1044 q 171 953 171 1001 q 142 885 171 907 q 75 863 114 863 q 8 885 36 863 q -19 953 -19 907 m 254 953 q 282 1023 254 1001 q 350 1044 310 1044 q 417 1023 389 1044 q 446 953 446 1001 q 417 885 446 907 q 350 863 389 863 q 282 885 310 863 q 254 953 254 907 z "},"ϋ":{"ha":885,"x_min":104,"x_max":801,"o":"m 432 -12 q 232 32 303 -12 q 133 154 161 76 q 104 332 104 232 l 104 758 l 311 758 l 311 325 q 342 190 311 226 q 439 153 372 153 q 558 213 521 153 q 594 417 594 272 q 581 587 594 507 q 546 758 568 667 l 754 758 q 790 588 778 668 q 801 411 801 508 q 710 90 801 193 q 432 -12 618 -12 m 199 953 q 226 1023 199 1001 q 293 1044 254 1044 q 360 1023 332 1044 q 389 953 389 1001 q 360 885 389 907 q 293 863 332 863 q 226 885 254 863 q 199 953 199 907 m 472 953 q 500 1023 472 1001 q 568 1044 528 1044 q 635 1023 607 1044 q 664 953 664 1001 q 635 885 664 907 q 568 863 607 863 q 500 885 528 863 q 472 953 472 907 z "},"ό":{"ha":860,"x_min":63,"x_max":797,"o":"m 797 381 q 698 89 797 192 q 428 -14 599 -14 q 240 32 322 -14 q 110 166 157 78 q 63 381 63 254 q 161 671 63 569 q 432 772 260 772 q 621 726 539 772 q 750 594 703 681 q 797 381 797 507 m 274 381 q 310 210 274 268 q 431 153 347 153 q 549 210 513 153 q 586 381 586 268 q 549 549 586 493 q 429 606 513 606 q 310 549 347 606 q 274 381 274 493 m 374 842 l 374 860 l 439 1078 l 671 1078 l 671 1064 l 513 842 l 374 842 z "},"ύ":{"ha":885,"x_min":104,"x_max":801,"o":"m 432 -12 q 232 32 303 -12 q 133 154 161 76 q 104 332 104 232 l 104 758 l 311 758 l 311 325 q 342 190 311 226 q 439 153 372 153 q 558 213 521 153 q 594 417 594 272 q 581 587 594 507 q 546 758 568 667 l 754 758 q 790 588 778 668 q 801 411 801 508 q 710 90 801 193 q 432 -12 618 -12 m 375 842 l 375 860 l 440 1078 l 672 1078 l 672 1064 l 514 842 l 375 842 z "},"ώ":{"ha":1204,"x_min":76,"x_max":1128,"o":"m 382 -14 q 213 35 281 -14 q 110 170 144 83 q 76 368 76 257 q 115 604 76 507 q 208 758 153 701 l 393 758 q 304 606 342 703 q 267 375 267 508 q 298 210 267 274 q 399 147 329 147 q 484 192 461 147 q 507 317 507 236 l 507 517 l 697 517 l 697 317 q 720 192 697 236 q 806 147 743 147 q 906 210 875 147 q 938 372 938 274 q 904 598 938 501 q 811 758 871 694 l 996 758 q 1093 599 1058 693 q 1128 368 1128 504 q 1094 170 1128 257 q 992 35 1060 83 q 822 -14 924 -14 q 683 26 733 -14 q 606 143 632 67 l 599 143 q 522 26 572 67 q 382 -14 471 -14 m 546 842 l 546 860 l 611 1078 l 843 1078 l 843 1064 l 685 842 l 546 842 z "},"Ё":{"ha":778,"x_min":125,"x_max":696,"o":"m 696 0 l 125 0 l 125 992 l 696 992 l 696 819 l 335 819 l 335 601 l 671 601 l 671 429 l 335 429 l 335 174 l 696 174 l 696 0 m 185 1186 q 213 1256 185 1235 q 279 1278 240 1278 q 347 1256 318 1278 q 375 1186 375 1235 q 347 1118 375 1140 q 279 1096 318 1096 q 213 1118 240 1096 q 185 1186 185 1140 m 458 1186 q 486 1256 458 1235 q 554 1278 514 1278 q 622 1256 593 1278 q 650 1186 650 1235 q 622 1118 650 1140 q 554 1096 593 1096 q 486 1118 514 1096 q 458 1186 458 1140 z "},"Ђ":{"ha":1118,"x_min":28,"x_max":1044,"o":"m 768 -12 q 698 -6 733 -12 q 631 14 663 0 l 631 188 q 692 166 663 174 q 747 158 722 158 q 790 165 771 158 q 822 193 810 171 q 835 263 835 215 l 835 349 q 807 433 835 410 q 714 457 779 457 l 486 457 l 486 0 l 276 0 l 276 817 l 28 817 l 28 992 l 783 992 l 783 817 l 486 817 l 486 632 l 722 632 q 962 562 879 632 q 1044 364 1044 492 l 1044 276 q 974 62 1044 136 q 768 -12 904 -12 z "},"Ѓ":{"ha":779,"x_min":125,"x_max":751,"o":"m 751 992 l 751 818 l 335 818 l 335 0 l 125 0 l 125 992 l 751 992 m 719 1283 q 668 1236 700 1264 q 599 1178 636 1208 q 527 1120 563 1147 q 465 1075 492 1093 l 328 1075 l 328 1093 q 380 1155 350 1119 q 439 1228 410 1190 q 488 1297 468 1267 l 719 1297 l 719 1283 z "},"Є":{"ha":940,"x_min":81,"x_max":892,"o":"m 571 831 q 384 767 458 831 q 303 586 310 704 l 732 586 l 732 414 l 301 414 q 378 227 310 293 q 574 161 447 161 q 708 175 640 161 q 854 214 775 189 l 854 38 q 715 -1 783 11 q 561 -14 647 -14 q 290 49 396 -14 q 132 227 183 113 q 81 494 81 342 q 138 760 81 644 q 308 940 196 875 q 581 1006 419 1006 q 744 987 669 1006 q 892 936 819 968 l 817 765 q 699 811 756 792 q 571 831 643 831 z "},"Ѕ":{"ha":765,"x_min":64,"x_max":710,"o":"m 710 275 q 615 65 710 143 q 344 -14 519 -14 q 64 46 188 -14 l 64 242 q 210 185 135 211 q 361 160 286 160 q 472 190 439 160 q 504 265 504 219 q 478 329 504 303 q 410 378 453 356 q 311 428 367 401 q 236 467 276 444 q 159 524 196 490 q 99 607 122 558 q 75 724 75 656 q 165 931 75 857 q 411 1006 256 1006 q 559 988 489 1006 q 706 936 629 969 l 638 772 q 515 815 569 800 q 404 831 461 831 q 313 803 344 831 q 281 731 281 775 q 328 647 281 678 q 468 572 375 617 q 598 497 544 536 q 681 406 651 458 q 710 275 710 353 z "},"І":{"ha":540,"x_min":44,"x_max":496,"o":"m 496 0 l 44 0 l 44 119 l 165 175 l 165 817 l 44 872 l 44 992 l 496 992 l 496 872 l 375 817 l 375 175 l 496 119 l 496 0 z "},"Ї":{"ha":540,"x_min":38,"x_max":503,"o":"m 496 0 l 44 0 l 44 119 l 165 175 l 165 817 l 44 872 l 44 992 l 496 992 l 496 872 l 375 817 l 375 175 l 496 119 l 496 0 m 38 1186 q 65 1256 38 1235 q 132 1278 93 1278 q 199 1256 171 1278 q 228 1186 228 1235 q 199 1118 228 1140 q 132 1096 171 1096 q 65 1118 93 1096 q 38 1186 38 1140 m 311 1186 q 339 1256 311 1235 q 407 1278 367 1278 q 474 1256 446 1278 q 503 1186 503 1235 q 474 1118 503 1140 q 407 1096 446 1096 q 339 1118 367 1096 q 311 1186 311 1140 z "},"Ј":{"ha":460,"x_min":-103,"x_max":335,"o":"m 21 -292 q -50 -287 -19 -292 q -103 -276 -81 -282 l -103 -101 q -56 -111 -81 -107 q -4 -115 -32 -115 q 62 -101 32 -115 q 108 -49 92 -87 q 125 63 125 -10 l 125 992 l 335 992 l 335 64 q 295 -142 335 -64 q 185 -256 256 -221 q 21 -292 114 -292 z "},"Љ":{"ha":1388,"x_min":11,"x_max":1325,"o":"m 111 -14 q 11 1 57 -14 l 11 174 q 47 164 29 168 q 85 160 64 160 q 147 202 125 160 q 190 361 168 244 q 214 500 199 406 q 248 722 229 594 q 283 992 267 849 l 864 992 l 864 611 l 942 611 q 1158 572 1074 611 q 1284 465 1243 533 q 1325 310 1325 397 q 1231 81 1325 163 q 931 0 1136 0 l 654 0 l 654 817 l 457 817 q 440 678 449 753 q 420 526 431 603 q 399 380 410 449 q 376 258 388 311 q 328 111 358 172 q 247 18 299 50 q 111 -14 194 -14 m 928 172 q 1063 203 1014 172 q 1113 310 1113 233 q 1059 414 1113 389 q 913 439 1006 439 l 864 439 l 864 172 l 928 172 z "},"Њ":{"ha":1392,"x_min":125,"x_max":1329,"o":"m 125 0 l 125 992 l 335 992 l 335 603 l 658 603 l 658 992 l 868 992 l 868 611 l 946 611 q 1163 572 1078 611 q 1288 465 1247 533 q 1329 310 1329 397 q 1235 81 1329 163 q 935 0 1140 0 l 658 0 l 658 428 l 335 428 l 335 0 l 125 0 m 932 172 q 1067 203 1018 172 q 1117 310 1117 233 q 1063 414 1117 389 q 917 439 1010 439 l 868 439 l 868 172 l 932 172 z "},"Ћ":{"ha":1118,"x_min":28,"x_max":1044,"o":"m 783 992 l 783 817 l 486 817 l 486 632 l 747 632 q 966 562 888 632 q 1044 364 1044 492 l 1044 0 l 835 0 l 835 349 q 811 433 835 410 q 733 457 788 457 l 486 457 l 486 0 l 276 0 l 276 817 l 28 817 l 28 992 l 783 992 z "},"Ќ":{"ha":933,"x_min":125,"x_max":933,"o":"m 933 0 l 694 0 l 335 503 l 335 0 l 125 0 l 125 992 l 335 992 l 335 511 l 690 992 l 914 992 l 553 515 l 933 0 m 774 1283 q 722 1236 754 1264 q 653 1178 690 1208 q 581 1120 617 1147 q 519 1075 546 1093 l 382 1075 l 382 1093 q 434 1155 404 1119 q 493 1228 464 1190 q 542 1297 522 1267 l 774 1297 l 774 1283 z "},"Ў":{"ha":921,"x_min":14,"x_max":921,"o":"m 804 1318 q 764 1191 797 1246 q 660 1106 731 1136 q 469 1075 589 1075 q 278 1105 347 1075 q 181 1189 210 1135 q 146 1318 151 1243 l 331 1318 q 369 1217 338 1242 q 474 1192 401 1192 q 572 1219 533 1192 q 617 1318 610 1246 l 804 1318 m 614 290 q 526 127 572 196 q 407 22 479 58 q 218 -14 335 -14 q 139 -8 182 -14 q 60 7 96 -3 l 60 188 q 133 168 93 174 q 208 163 174 163 q 308 197 278 163 q 357 279 339 231 l 14 992 l 236 992 l 421 563 q 447 503 431 542 q 472 439 464 465 l 479 439 q 503 504 488 464 q 532 575 519 544 l 704 992 l 921 992 l 614 290 z "},"Џ":{"ha":1035,"x_min":125,"x_max":910,"o":"m 910 0 l 619 0 l 619 -289 l 417 -289 l 417 0 l 125 0 l 125 992 l 335 992 l 335 175 l 700 175 l 700 992 l 910 992 l 910 0 z "},"А":{"ha":958,"x_min":0,"x_max":958,"o":"m 732 0 l 660 236 l 299 236 l 226 0 l 0 0 l 350 996 l 607 996 l 958 0 l 732 0 m 538 643 q 519 703 531 667 q 497 776 508 739 q 479 842 486 814 q 460 773 472 814 q 438 695 449 732 q 422 643 428 658 l 351 413 l 610 413 l 538 643 z "},"Б":{"ha":886,"x_min":125,"x_max":824,"o":"m 125 0 l 125 992 l 751 992 l 751 818 l 335 818 l 335 611 l 418 611 q 648 572 558 611 q 781 465 738 533 q 824 310 824 397 q 726 81 824 163 q 414 0 628 0 l 125 0 m 406 172 q 556 203 501 172 q 611 310 611 233 q 551 414 611 389 q 389 439 492 439 l 335 439 l 335 172 l 406 172 z "},"В":{"ha":933,"x_min":125,"x_max":860,"o":"m 433 992 q 733 936 632 992 q 835 740 835 881 q 795 597 835 656 q 682 526 756 539 l 682 519 q 772 485 732 510 q 836 413 813 460 q 860 288 860 365 q 763 76 860 153 q 496 0 665 0 l 125 0 l 125 992 l 433 992 m 457 599 q 584 628 549 599 q 619 713 619 657 q 578 794 619 769 q 446 819 536 819 l 335 819 l 335 599 l 457 599 m 335 432 l 335 174 l 472 174 q 604 210 567 174 q 642 308 642 247 q 603 398 642 364 q 465 432 565 432 l 335 432 z "},"Г":{"ha":779,"x_min":125,"x_max":751,"o":"m 751 992 l 751 818 l 335 818 l 335 0 l 125 0 l 125 992 l 751 992 z "},"Д":{"ha":1061,"x_min":7,"x_max":1033,"o":"m 901 992 l 901 175 l 1033 175 l 1033 -289 l 831 -289 l 831 0 l 210 0 l 210 -289 l 7 -289 l 7 175 l 83 175 q 182 398 136 279 q 265 663 228 517 q 324 992 301 808 l 901 992 m 490 817 q 451 609 478 721 q 386 385 424 497 q 304 175 349 274 l 692 175 l 692 817 l 490 817 z "},"Е":{"ha":778,"x_min":125,"x_max":696,"o":"m 696 0 l 125 0 l 125 992 l 696 992 l 696 819 l 335 819 l 335 601 l 671 601 l 671 429 l 335 429 l 335 174 l 696 174 l 696 0 z "},"Ж":{"ha":1310,"x_min":0,"x_max":1310,"o":"m 353 515 l 19 992 l 236 992 l 557 511 l 557 992 l 753 992 l 753 511 l 1074 992 l 1290 992 l 957 515 l 1310 0 l 1085 0 l 753 503 l 753 0 l 557 0 l 557 503 l 225 0 l 0 0 l 353 515 z "},"З":{"ha":900,"x_min":64,"x_max":840,"o":"m 810 760 q 739 599 810 660 q 558 522 668 538 l 558 518 q 767 442 694 504 q 840 282 840 381 q 734 69 840 151 q 422 -14 628 -14 q 223 0 310 -14 q 72 40 136 14 l 72 217 q 169 181 115 196 q 279 159 224 167 q 382 151 335 151 q 573 190 514 151 q 632 297 632 228 q 546 401 632 368 q 314 433 460 433 l 221 433 l 221 597 l 304 597 q 488 613 422 597 q 579 657 553 628 q 606 726 606 686 q 560 808 606 778 q 425 838 515 838 q 281 815 349 838 q 156 757 214 793 l 64 897 q 233 976 140 947 q 454 1006 326 1006 q 716 936 622 1006 q 810 760 810 867 z "},"И":{"ha":1143,"x_min":125,"x_max":1018,"o":"m 125 992 l 314 992 l 314 513 q 313 435 314 478 q 310 351 311 392 q 307 280 308 310 q 304 239 306 250 l 308 239 l 767 992 l 1018 992 l 1018 0 l 831 0 l 831 476 q 832 559 831 514 q 835 646 833 604 q 840 719 838 688 q 843 760 842 750 l 838 760 l 378 0 l 125 0 l 125 992 z "},"Й":{"ha":1143,"x_min":125,"x_max":1018,"o":"m 924 1318 q 883 1191 917 1246 q 779 1106 850 1136 q 589 1075 708 1075 q 398 1105 467 1075 q 300 1189 329 1135 q 265 1318 271 1243 l 450 1318 q 489 1217 457 1242 q 593 1192 521 1192 q 691 1219 653 1192 q 736 1318 729 1246 l 924 1318 m 125 992 l 314 992 l 314 513 q 313 435 314 478 q 310 351 311 392 q 307 280 308 310 q 304 239 306 250 l 308 239 l 767 992 l 1018 992 l 1018 0 l 831 0 l 831 476 q 832 559 831 514 q 835 646 833 604 q 840 719 838 688 q 843 760 842 750 l 838 760 l 378 0 l 125 0 l 125 992 z "},"К":{"ha":933,"x_min":125,"x_max":933,"o":"m 933 0 l 694 0 l 335 503 l 335 0 l 125 0 l 125 992 l 335 992 l 335 511 l 690 992 l 914 992 l 553 515 l 933 0 z "},"Л":{"ha":1035,"x_min":11,"x_max":910,"o":"m 910 0 l 700 0 l 700 817 l 457 817 q 440 678 449 753 q 420 526 431 603 q 399 380 410 449 q 376 258 388 311 q 328 111 358 172 q 247 18 299 50 q 111 -14 194 -14 q 11 1 57 -14 l 11 174 q 47 164 29 168 q 85 160 64 160 q 147 202 125 160 q 190 361 168 244 q 214 500 199 406 q 248 722 229 594 q 283 992 267 849 l 910 992 l 910 0 z "},"М":{"ha":1310,"x_min":125,"x_max":1185,"o":"m 544 0 l 306 778 l 300 778 q 304 694 301 750 q 310 576 307 639 q 313 461 313 513 l 313 0 l 125 0 l 125 992 l 411 992 l 646 233 l 650 233 l 899 992 l 1185 992 l 1185 0 l 989 0 l 989 469 q 991 578 989 517 q 995 694 993 639 q 999 776 997 749 l 993 776 l 738 0 l 544 0 z "},"Н":{"ha":1063,"x_min":125,"x_max":938,"o":"m 938 0 l 728 0 l 728 428 l 335 428 l 335 0 l 125 0 l 125 992 l 335 992 l 335 603 l 728 603 l 728 992 l 938 992 l 938 0 z "},"О":{"ha":1106,"x_min":81,"x_max":1025,"o":"m 1025 497 q 974 228 1025 343 q 819 50 924 114 q 553 -14 715 -14 q 287 50 392 -14 q 131 229 182 114 q 81 499 81 344 q 131 767 81 653 q 287 944 182 881 q 554 1007 392 1007 q 819 944 715 1007 q 974 766 924 881 q 1025 497 1025 651 m 301 497 q 361 252 301 342 q 553 163 421 163 q 746 252 688 163 q 804 497 804 342 q 746 743 804 654 q 554 832 688 832 q 361 743 421 832 q 301 497 301 654 z "},"П":{"ha":1035,"x_min":125,"x_max":910,"o":"m 125 0 l 125 992 l 910 992 l 910 0 l 700 0 l 700 817 l 335 817 l 335 0 l 125 0 z "},"Р":{"ha":872,"x_min":125,"x_max":810,"o":"m 442 992 q 722 909 633 992 q 810 682 810 826 q 774 520 810 596 q 653 399 738 444 q 425 353 569 353 l 335 353 l 335 0 l 125 0 l 125 992 l 442 992 m 431 819 l 335 819 l 335 525 l 404 525 q 545 560 493 525 q 597 675 597 596 q 431 819 597 819 z "},"С":{"ha":885,"x_min":81,"x_max":836,"o":"m 546 831 q 361 740 425 831 q 297 493 297 650 q 356 248 297 335 q 546 161 415 161 q 667 175 607 161 q 799 214 728 189 l 799 38 q 669 -1 733 11 q 526 -14 606 -14 q 274 49 374 -14 q 128 227 175 113 q 81 494 81 342 q 135 760 81 644 q 292 940 189 875 q 546 1006 396 1006 q 694 987 619 1006 q 836 936 768 968 l 768 765 q 656 811 713 792 q 546 831 600 831 z "},"Т":{"ha":804,"x_min":28,"x_max":776,"o":"m 507 0 l 297 0 l 297 817 l 28 817 l 28 992 l 776 992 l 776 817 l 507 817 l 507 0 z "},"У":{"ha":921,"x_min":14,"x_max":921,"o":"m 614 290 q 526 127 572 196 q 407 22 479 58 q 218 -14 335 -14 q 139 -8 182 -14 q 60 7 96 -3 l 60 188 q 133 168 93 174 q 208 163 174 163 q 308 197 278 163 q 357 279 339 231 l 14 992 l 236 992 l 421 563 q 447 503 431 542 q 472 439 464 465 l 479 439 q 503 504 488 464 q 532 575 519 544 l 704 992 l 921 992 l 614 290 z "},"Ф":{"ha":1194,"x_min":63,"x_max":1132,"o":"m 692 1006 l 692 883 q 951 827 854 879 q 1090 693 1047 775 q 1132 514 1132 611 q 1110 386 1132 451 q 1038 266 1089 321 q 903 176 988 211 q 692 139 818 142 l 692 -14 l 503 -14 l 503 139 q 290 176 375 142 q 154 267 204 211 q 83 387 104 322 q 63 514 63 451 q 105 693 63 611 q 244 827 147 775 q 503 883 340 879 l 503 1006 l 692 1006 m 503 719 q 314 658 368 714 q 260 515 260 601 q 318 365 260 422 q 503 301 376 307 l 503 719 m 692 301 q 877 365 819 307 q 935 515 935 422 q 881 658 935 601 q 692 719 828 714 l 692 301 z "},"Х":{"ha":926,"x_min":0,"x_max":926,"o":"m 926 0 l 686 0 l 456 375 l 225 0 l 0 0 l 329 511 l 21 992 l 253 992 l 467 635 l 676 992 l 903 992 l 592 500 l 926 0 z "},"Ц":{"ha":1085,"x_min":125,"x_max":1057,"o":"m 1057 167 l 1057 -289 l 854 -289 l 854 0 l 125 0 l 125 992 l 335 992 l 335 175 l 700 175 l 700 992 l 910 992 l 910 167 l 1057 167 z "},"Ч":{"ha":1011,"x_min":74,"x_max":886,"o":"m 886 0 l 676 0 l 676 383 q 516 338 589 353 q 369 322 443 322 q 152 390 231 322 q 74 582 74 457 l 74 992 l 283 992 l 283 642 q 317 533 283 569 q 429 497 350 497 q 546 510 488 497 q 676 547 604 522 l 676 992 l 886 992 l 886 0 z "},"Ш":{"ha":1497,"x_min":125,"x_max":1372,"o":"m 1372 0 l 125 0 l 125 992 l 335 992 l 335 175 l 643 175 l 643 992 l 854 992 l 854 175 l 1163 175 l 1163 992 l 1372 992 l 1372 0 z "},"Щ":{"ha":1547,"x_min":125,"x_max":1519,"o":"m 1519 167 l 1519 -289 l 1317 -289 l 1317 0 l 125 0 l 125 992 l 335 992 l 335 175 l 643 175 l 643 992 l 854 992 l 854 175 l 1163 175 l 1163 992 l 1372 992 l 1372 167 l 1519 167 z "},"Ъ":{"ha":1010,"x_min":0,"x_max":947,"o":"m 249 0 l 249 817 l 0 817 l 0 992 l 458 992 l 458 611 l 542 611 q 772 572 682 611 q 904 465 861 533 q 947 310 947 397 q 849 81 947 163 q 538 0 751 0 l 249 0 m 529 172 q 680 203 625 172 q 735 310 735 233 q 675 414 735 389 q 513 439 615 439 l 458 439 l 458 172 l 529 172 z "},"Ы":{"ha":1258,"x_min":125,"x_max":1133,"o":"m 125 0 l 125 992 l 335 992 l 335 611 l 403 611 q 629 572 540 611 q 760 465 718 533 q 803 310 803 397 q 706 81 803 163 q 396 0 608 0 l 125 0 m 924 0 l 924 992 l 1133 992 l 1133 0 l 924 0 m 390 172 q 537 203 483 172 q 590 310 590 233 q 535 414 590 389 q 381 439 481 439 l 335 439 l 335 172 l 390 172 z "},"Ь":{"ha":886,"x_min":125,"x_max":824,"o":"m 125 0 l 125 992 l 335 992 l 335 611 l 418 611 q 648 572 558 611 q 781 465 738 533 q 824 310 824 397 q 726 81 824 163 q 414 0 628 0 l 125 0 m 406 172 q 556 203 501 172 q 611 310 611 233 q 551 414 611 389 q 389 439 492 439 l 335 439 l 335 172 l 406 172 z "},"Э":{"ha":921,"x_min":49,"x_max":840,"o":"m 375 831 q 243 812 308 831 q 115 767 178 793 l 49 936 q 204 987 122 968 q 379 1006 286 1006 q 719 872 599 1006 q 840 494 840 738 q 789 227 840 342 q 631 49 738 113 q 360 -14 525 -14 q 206 -1 275 -14 q 67 38 138 11 l 67 214 q 213 175 146 189 q 347 161 281 161 q 544 224 475 161 q 619 414 614 288 l 189 414 l 189 586 l 618 586 q 549 766 614 701 q 375 831 483 831 z "},"Ю":{"ha":1486,"x_min":125,"x_max":1406,"o":"m 1406 497 q 1358 228 1406 343 q 1213 50 1310 114 q 964 -14 1115 -14 q 731 41 825 -14 q 587 195 638 96 q 525 428 536 294 l 335 428 l 335 0 l 125 0 l 125 992 l 335 992 l 335 603 l 529 603 q 658 898 551 789 q 965 1007 765 1007 q 1213 944 1115 1007 q 1358 766 1311 881 q 1406 497 1406 651 m 740 497 q 794 252 740 342 q 964 163 849 163 q 1136 252 1083 163 q 1189 497 1189 342 q 1136 743 1189 654 q 967 832 1083 832 q 794 743 849 832 q 740 497 740 654 z "},"Я":{"ha":924,"x_min":-7,"x_max":799,"o":"m 458 381 l 226 0 l -7 0 l 275 436 q 194 485 235 453 q 128 573 154 518 q 101 708 101 628 q 200 919 101 846 q 476 992 299 992 l 799 992 l 799 0 l 589 0 l 589 381 l 458 381 m 485 819 q 359 790 404 819 q 314 693 314 761 q 358 590 314 628 q 490 551 401 551 l 589 551 l 589 819 l 485 819 z "},"а":{"ha":839,"x_min":58,"x_max":735,"o":"m 419 774 q 653 708 572 774 q 735 506 735 642 l 735 0 l 590 0 l 550 103 l 544 103 q 442 14 496 42 q 293 -14 388 -14 q 125 45 192 -14 q 58 226 58 104 q 143 405 58 347 q 397 468 228 463 l 529 472 l 529 506 q 498 593 529 565 q 411 621 467 621 q 303 605 356 621 q 197 565 250 589 l 129 706 q 265 756 190 738 q 419 774 339 774 m 449 349 q 310 313 349 346 q 271 225 271 279 q 299 158 271 178 q 371 138 326 138 q 483 177 438 138 q 529 289 529 217 l 529 351 l 449 349 z "},"б":{"ha":864,"x_min":63,"x_max":801,"o":"m 63 454 q 158 844 63 706 q 472 1022 253 983 q 622 1044 546 1035 q 778 1063 697 1053 l 801 882 q 698 869 754 876 q 587 856 642 863 q 489 843 532 850 q 374 809 419 832 q 303 736 328 786 q 274 592 279 686 l 283 592 q 330 644 300 618 q 404 689 360 671 q 506 707 449 707 q 722 624 642 707 q 801 375 801 540 q 754 160 801 246 q 624 30 707 74 q 431 -14 540 -14 q 163 107 263 -14 q 63 454 63 228 m 443 154 q 549 199 508 154 q 590 357 590 243 q 560 501 590 447 q 457 554 531 554 q 374 533 413 554 q 310 484 336 511 q 274 438 283 457 q 289 301 274 367 q 341 195 304 236 q 443 154 378 154 z "},"в":{"ha":874,"x_min":108,"x_max":804,"o":"m 781 560 q 742 456 781 499 q 629 400 704 413 l 629 394 q 756 340 708 385 q 804 226 804 296 q 770 110 804 161 q 663 29 736 58 q 469 0 589 0 l 108 0 l 108 758 l 469 758 q 628 740 558 758 q 740 678 699 721 q 781 560 781 635 m 571 543 q 461 613 571 613 l 315 613 l 315 463 l 438 463 q 537 481 503 463 q 571 543 571 500 m 590 238 q 556 302 590 282 q 451 322 521 322 l 315 322 l 315 143 l 456 143 q 552 165 514 143 q 590 238 590 186 z "},"г":{"ha":664,"x_min":108,"x_max":632,"o":"m 632 758 l 632 603 l 315 603 l 315 0 l 108 0 l 108 758 l 632 758 z "},"д":{"ha":922,"x_min":19,"x_max":901,"o":"m 790 758 l 790 151 l 901 151 l 901 -272 l 715 -272 l 715 0 l 206 0 l 206 -272 l 19 -272 l 19 151 l 83 151 q 168 326 133 228 q 224 535 203 424 q 254 758 244 646 l 790 758 m 428 603 q 382 363 411 476 q 300 151 353 250 l 583 151 l 583 603 l 428 603 z "},"е":{"ha":821,"x_min":63,"x_max":761,"o":"m 421 772 q 669 683 578 772 q 761 428 761 593 l 761 328 l 272 328 q 324 190 275 240 q 461 140 374 140 q 594 155 535 140 q 718 200 654 169 l 718 40 q 601 -1 663 13 q 451 -14 539 -14 q 250 28 338 -14 q 113 157 163 71 q 63 374 63 243 q 108 595 63 507 q 233 728 153 683 q 421 772 314 772 m 422 625 q 323 586 363 625 q 276 465 283 547 l 567 465 q 531 580 565 535 q 422 625 496 625 z "},"ж":{"ha":1213,"x_min":0,"x_max":1213,"o":"m 1186 758 l 907 394 l 1213 0 l 992 0 l 703 385 l 703 0 l 510 0 l 510 385 l 221 0 l 0 0 l 306 394 l 26 758 l 240 758 l 510 390 l 510 758 l 703 758 l 703 390 l 972 758 l 1186 758 z "},"з":{"ha":771,"x_min":53,"x_max":718,"o":"m 385 772 q 538 751 467 772 q 653 685 610 729 q 697 571 697 640 q 656 463 697 503 q 546 404 615 422 l 546 397 q 633 366 594 386 q 695 312 672 346 q 718 221 718 278 q 678 105 718 158 q 556 19 639 51 q 344 -14 474 -14 q 53 33 156 -14 l 53 204 q 169 164 100 182 q 315 146 238 146 q 458 165 400 146 q 517 233 517 185 q 301 324 517 324 l 221 324 l 221 467 l 297 467 q 456 483 400 467 q 513 546 513 500 q 476 601 513 582 q 358 619 440 619 q 240 607 304 619 q 119 571 176 594 l 58 715 q 201 756 124 740 q 385 772 279 772 z "},"и":{"ha":1000,"x_min":108,"x_max":892,"o":"m 308 458 q 306 400 308 435 q 302 329 304 365 q 297 265 300 293 q 293 226 294 238 l 643 758 l 892 758 l 892 0 l 692 0 l 692 303 q 694 385 692 340 q 701 470 697 431 q 706 531 704 510 l 357 0 l 108 0 l 108 758 l 308 758 l 308 458 z "},"й":{"ha":1000,"x_min":108,"x_max":892,"o":"m 835 1085 q 794 958 828 1013 q 690 872 761 903 q 500 842 619 842 q 309 872 378 842 q 211 956 240 901 q 176 1085 182 1010 l 361 1085 q 400 983 368 1008 q 504 958 432 958 q 602 985 564 958 q 647 1085 640 1013 l 835 1085 m 308 458 q 306 400 308 435 q 302 329 304 365 q 297 265 300 293 q 293 226 294 238 l 643 758 l 892 758 l 892 0 l 692 0 l 692 303 q 694 385 692 340 q 701 470 697 431 q 706 531 704 510 l 357 0 l 108 0 l 108 758 l 308 758 l 308 458 z "},"к":{"ha":860,"x_min":108,"x_max":860,"o":"m 606 758 l 833 758 l 533 394 l 860 0 l 625 0 l 315 385 l 315 0 l 108 0 l 108 758 l 315 758 l 315 390 l 606 758 z "},"л":{"ha":896,"x_min":0,"x_max":788,"o":"m 788 0 l 581 0 l 581 603 l 390 603 q 342 245 372 381 q 260 48 313 110 q 118 -14 207 -14 q 0 8 46 -14 l 0 174 q 67 160 32 160 q 113 185 92 160 q 152 275 133 210 q 186 458 171 340 q 214 758 201 575 l 788 758 l 788 0 z "},"м":{"ha":1172,"x_min":108,"x_max":1064,"o":"m 1064 758 l 1064 0 l 871 0 l 871 372 q 873 481 871 428 q 879 578 875 533 l 875 578 l 665 0 l 510 0 l 297 579 l 292 579 q 299 481 297 533 q 301 367 301 429 l 301 0 l 108 0 l 108 758 l 401 758 l 590 244 l 782 758 l 1064 758 z "},"н":{"ha":919,"x_min":108,"x_max":811,"o":"m 315 758 l 315 467 l 604 467 l 604 758 l 811 758 l 811 0 l 604 0 l 604 313 l 315 313 l 315 0 l 108 0 l 108 758 l 315 758 z "},"о":{"ha":860,"x_min":63,"x_max":797,"o":"m 797 381 q 698 89 797 192 q 428 -14 599 -14 q 240 32 322 -14 q 110 166 157 78 q 63 381 63 254 q 161 671 63 569 q 432 772 260 772 q 621 726 539 772 q 750 594 703 681 q 797 381 797 507 m 274 381 q 310 210 274 268 q 431 153 347 153 q 549 210 513 153 q 586 381 586 268 q 549 549 586 493 q 429 606 513 606 q 310 549 347 606 q 274 381 274 493 z "},"п":{"ha":906,"x_min":108,"x_max":797,"o":"m 797 758 l 797 0 l 590 0 l 590 603 l 315 603 l 315 0 l 108 0 l 108 758 l 797 758 z "},"р":{"ha":879,"x_min":108,"x_max":817,"o":"m 531 772 q 738 673 658 772 q 817 381 817 574 q 735 87 817 188 q 525 -14 653 -14 q 394 16 443 -14 q 315 83 346 46 l 304 83 q 315 -28 315 25 l 315 -333 l 108 -333 l 108 758 l 276 758 l 306 660 l 315 660 q 397 739 346 706 q 531 772 449 772 m 464 607 q 351 557 383 607 q 315 404 318 507 l 315 382 q 348 213 315 272 q 467 154 381 154 q 572 213 538 154 q 606 383 606 272 q 464 607 606 607 z "},"с":{"ha":714,"x_min":63,"x_max":671,"o":"m 417 -14 q 155 80 247 -14 q 63 375 63 174 q 110 601 63 514 q 241 731 157 689 q 435 772 325 772 q 570 757 513 772 q 671 721 628 742 l 610 561 q 519 593 561 581 q 435 606 476 606 q 274 376 274 606 q 316 208 274 263 q 435 154 358 154 q 550 172 500 154 q 647 219 600 189 l 647 43 q 548 -1 600 13 q 417 -14 496 -14 z "},"т":{"ha":768,"x_min":32,"x_max":736,"o":"m 736 603 l 488 603 l 488 0 l 281 0 l 281 603 l 32 603 l 32 758 l 736 758 l 736 603 z "},"у":{"ha":790,"x_min":0,"x_max":790,"o":"m 0 758 l 226 758 l 369 332 q 386 269 381 301 q 394 200 392 236 l 399 200 q 410 269 403 236 q 428 332 418 301 l 568 758 l 790 758 l 469 -97 q 344 -274 426 -215 q 153 -333 261 -333 q 92 -330 118 -333 q 47 -322 67 -326 l 47 -158 q 84 -164 63 -161 q 129 -167 106 -167 q 233 -127 194 -167 q 289 -32 271 -87 l 301 6 l 0 758 z "},"ф":{"ha":1131,"x_min":63,"x_max":1068,"o":"m 663 763 q 964 642 860 746 q 1068 379 1068 539 q 967 115 1068 219 q 663 -6 865 11 l 663 -333 l 471 -333 l 471 -6 q 169 117 275 13 q 63 379 63 221 q 162 645 63 542 q 471 763 261 749 l 471 1056 l 663 1056 l 663 763 m 471 607 q 328 532 381 594 q 275 379 275 469 q 326 224 275 286 q 471 151 378 163 l 471 607 m 663 151 q 806 224 756 163 q 856 379 856 286 q 804 531 856 469 q 663 604 753 593 l 663 151 z "},"х":{"ha":803,"x_min":7,"x_max":796,"o":"m 264 388 l 19 758 l 254 758 l 401 517 l 550 758 l 785 758 l 538 388 l 796 0 l 561 0 l 401 260 l 242 0 l 7 0 l 264 388 z "},"ц":{"ha":956,"x_min":108,"x_max":936,"o":"m 936 -272 l 750 -272 l 750 0 l 108 0 l 108 758 l 315 758 l 315 156 l 618 156 l 618 758 l 825 758 l 825 151 l 936 151 l 936 -272 z "},"ч":{"ha":911,"x_min":83,"x_max":803,"o":"m 290 481 q 382 382 290 382 q 493 395 442 382 q 596 431 544 408 l 596 758 l 803 758 l 803 0 l 596 0 l 596 301 q 485 253 547 275 q 343 232 422 232 q 154 293 225 232 q 83 476 83 354 l 83 758 l 290 758 l 290 481 z "}}}
